<svg xmlns="http://www.w3.org/2000/svg" width="21.922" height="17.538" viewBox="0 0 21.922 17.538">
  <path id="mail-bulk-solid_2_" data-name="mail-bulk-solid (2)" d="M10.961,269.153c-1.754,0-3.508-1.535-4.384-2.192C2.192,263.892.877,262.8,0,262.138v9.207a2.192,2.192,0,0,0,2.192,2.192H19.73a2.192,2.192,0,0,0,2.192-2.192v-9.207c-.877.658-2.192,1.754-6.577,4.823C14.468,267.619,12.715,269.153,10.961,269.153ZM19.73,256H2.192A2.192,2.192,0,0,0,0,258.192v1.1c1.754,1.315,1.535,1.315,7.892,5.919.658.438,1.973,1.754,3.069,1.754s2.411-1.315,3.069-1.535c6.357-4.6,6.138-4.6,7.892-5.919v-1.315A2.192,2.192,0,0,0,19.73,256Z" transform="translate(0 -256)" fill="#fcd263"/>
</svg>
