<svg xmlns="http://www.w3.org/2000/svg" width="19.328" height="19.328" viewBox="0 0 19.328 19.328">
  <path id="phone-solid_2_" data-name="phone-solid (2)" d="M18.615.918,14.689.012a.912.912,0,0,0-1.038.525L11.839,4.765a.9.9,0,0,0,.26,1.057l2.288,1.872A13.99,13.99,0,0,1,7.7,14.383L5.826,12.1a.905.905,0,0,0-1.057-.26L.541,13.647a.917.917,0,0,0-.528,1.042l.906,3.926a.906.906,0,0,0,.883.7A17.513,17.513,0,0,0,19.317,1.8.9.9,0,0,0,18.615.918Z" transform="translate(0.01 0.011)" fill="#fcd263"/>
</svg>
