<svg xmlns="http://www.w3.org/2000/svg" width="73.205" height="57.301" viewBox="0 0 73.205 57.301">
  <g id="Group_4934" data-name="Group 4934" transform="translate(1.001 1.01)">
    <path id="Path_47599" data-name="Path 47599" d="M461.7,16.3l2.473-.528a.688.688,0,0,1,.834.678l-.377,51.039a1.475,1.475,0,0,1-1.517,1.465l-33.516-.9-33.7.452a1.63,1.63,0,0,1-1.653-1.616L393.8,16.413a1.6,1.6,0,0,1,1.6-1.611h1.31m63.319,1.008s-6.43-4.155-16.836-.914c-9.572,2.986-12.153,8.446-12.153,8.446M429.7,25.561c0,5.172.033,10.547.245,15.347m0,3.052q.226,10.994.457,21.984m-4.678-45.866c-7.824-5.469-18.536-7.763-27.316-3.25m62.325,46.1c-6.99-6.99-20.284-5.389-27.086.226m-3.279,3.034c-9.233-9.869-28.682,2.059-31.881-.937m-.08-48.321.08,48.321ZM460.732,62.85l-.707-46.978Z" transform="translate(-393.801 -13.66)" fill="none" stroke="#0e3b2e" stroke-linecap="round" stroke-miterlimit="10" stroke-width="2"/>
  </g>
</svg>
