<svg xmlns="http://www.w3.org/2000/svg" width="156.537" height="144.907" viewBox="0 0 156.537 144.907">
  <g id="Group_5191" data-name="Group 5191" transform="translate(1.25 1.251)">
    <path id="Path_47826" data-name="Path 47826" d="M.5,38.451V12.894a.867.867,0,0,1,.868-.868h152.3a.867.867,0,0,1,.868.868V38.451a.867.867,0,0,1-.868.868H1.372A.868.868,0,0,1,.5,38.451Zm1.38,7.187-.125,73.545M110.31,128.17l35.587.125m-72.322.028-69.124.263m-2.64-5.077a7.485,7.485,0,0,0,.378,3.1,3.089,3.089,0,0,0,2.266,1.975m141.335-.272a5.961,5.961,0,0,0,5.045-3.111,10.278,10.278,0,0,0,.9-4.782M17.089,25.158l58.434.051m18.4-.051,47.772.051M77.706,98.468a4.629,4.629,0,1,0-4.629-4.629A4.629,4.629,0,0,0,77.706,98.468Zm19.99,0a4.629,4.629,0,1,0-4.629-4.629A4.629,4.629,0,0,0,97.7,98.468Zm19.007,0a4.629,4.629,0,1,0-4.629-4.629A4.629,4.629,0,0,0,116.7,98.468Zm36.782-54.294-.125,72.082M25.789,54.712l-2.52-.06A4.082,4.082,0,0,0,19.2,58.8l-.475,32.411A3,3,0,0,0,21.1,94.189c.365.065,4.214.092,4.214.092M79.16,70.331l-.018-9.1a8.088,8.088,0,0,0-.286-2.206A5.254,5.254,0,0,0,73.6,54.79L28.443,54.7M27.2,94.346l29.646.1M133.781.732c-5.248-.143-7.473,11.525-1.717,14.848M95.01.732c-5.248-.143-7.473,11.525-1.717,14.848M60.392.732C55.144.589,52.92,12.257,58.675,15.581M26.7.5C21.45.358,19.226,12.027,24.981,15.35m67.924,99.8s-7.865,20.069-9.961,25.9a1.321,1.321,0,0,0,2.119,1.44,116.462,116.462,0,0,0,10.519-11.627l7.348-8.9c1.583-1.92,3.5-6.236,8.848-7.08a105.545,105.545,0,0,1,13.524-1,5.652,5.652,0,0,0,5.548-5.585c.111-9.411.314-27.638.189-29.748a5.429,5.429,0,0,0-3.277-4.809,4.952,4.952,0,0,0-1.38-.318c-1.039-.083-46.161-.383-59.417.111a5.648,5.648,0,0,0-5.142,3.882c-.665,1.989-.337,6.328-.323,8.04m2.811,28.548c-3.646.051-3.489-2.077-3.489-3.009-.014-7.247.152-20.623.152-20.623m7.473,24.066s14.632-.309,21.961-.212c.928.014,2.806-.009,2.479.965" transform="translate(-0.5 -0.5)" fill="none" stroke="#0e3b2e" stroke-linecap="round" stroke-linejoin="round" stroke-width="2.5"/>
  </g>
</svg>
