<svg xmlns="http://www.w3.org/2000/svg" width="172.467" height="170.66" viewBox="0 0 172.467 170.66">
  <g id="Group_4948" data-name="Group 4948" transform="translate(1.25 1.253)">
    <path id="Path_47611" data-name="Path 47611" d="M168.3,61.8c10.028-12.38,23.471-17.369,37.566-20.9,6.509-1.629,10.014-2.388,11.007-2.742,13.078-4.652,24.325-8.624,38.624-6.127,6.694,1.169,13.789,7.549,8.19,13.637M208.73,93.45c-13.662,12.569-33.179,20.8-36.938,41.164m41.884-44.649c1.812-2.919,5.955-3.928,7.342-7.071M203.546,121.64c10.16-20.51,42.477-29.068,44.245-52.187m5.226-29.211c-4.4,5.908-4.091,16.245-4.644,24.064M205.3,167.014c-6.422-38.444,40.874-51.157,51.768-83.071,5.067-13.479-.236-29.354,5.14-42.7m-23.433,92.873c8.614-7.432,27.837,3.962,31.92-9.291,2.227-6.045-.172-13.348.543-19.438.217-1.849,3.01-3.6,5.085-7.137,3.367-5.738-7.458-12.385-9.155-15.019-1.845-2.865-1.591-3.966-.294-7.716a38.5,38.5,0,0,0,1.6-5.025c.52-2.724-2.8-20.944-6.9-27.406m-16.408,88.465a86.445,86.445,0,0,0-7.954,44.714m32.569-15.575c-4.567-13.1,2.37-27.447,7.6-39.485l-5.475-3.941c5.888,4.816,17.695,9.319,25.3,6.444a2.763,2.763,0,0,0,1.627-1.526c.543-1.373.441-3.052.7-4.561.659-3.871,3.909-7.222,3.664-11.083a2.873,2.873,0,0,0-.166-.76c-3.472-9.9-2.445-7.105,1.036-11.183a4.41,4.41,0,0,0-.738-5.832c-1.845-1.822-4.487-2.692-6.235-4.472a4.709,4.709,0,0,1-1.56-4.681c2.588-8.577.234-20.159-1.744-24.495-.952-2.085.333-1.546,1.56-4.009,3.148-6.312-3.883-13.78-9.572-13.78-7.288,0-3.986,1.291-5.114-2.452-2.694-8.94-10.38-11.111-16.153-10.021-4.328.817-3.7,2.163-5.168-.531-.756-1.386-2.811-1.977-4.41-2.414-3.853-1.053-8.955,1.165-12.345,4.555-2.577,2.578-1.645,2.085-3.335.574-6.694-5.987-19.585-1.905-22.091,6.948m111.681,83.144c15.723-69.35-34.509-106.217-81.051-107.907-35.774-1.3-85.042,28.133-85.834,84.5-1.2,93.5,134.664,115.905,164.827,29.032" transform="translate(-161.949 -9.178)" fill="none" stroke="#10392d" stroke-linecap="round" stroke-miterlimit="10" stroke-width="2.5"/>
  </g>
</svg>
