<svg xmlns="http://www.w3.org/2000/svg" xmlns:xlink="http://www.w3.org/1999/xlink" width="332.238" height="344.046" viewBox="0 0 332.238 344.046">
  <defs>
    <clipPath id="clip-path">
      <rect id="Rectangle_22189" data-name="Rectangle 22189" width="332.238" height="344.046" transform="translate(1573 4885.982)" fill="#fff" stroke="#707070" stroke-width="1"/>
    </clipPath>
  </defs>
  <g id="Mask_Group_6" data-name="Mask Group 6" transform="translate(-1573 -4885.982)" clip-path="url(#clip-path)">
    <path id="Path_47586" data-name="Path 47586" d="M1227.97,931.521V817.463c-23.476-.774-171.281-.605-198.213-.581-1.048-153.045-.084-337.539-.275-492.012-.155,0-.155,0-.3.145,5.956-105.842-11.72-226.216-120.029-287.831-176.166-100.227-415.842,11-404.17,227.644l-.013,135.9h.156c-.44,90.462-.156,152.27-.56,242.745,6.67,111.577-60.782,179.581-171.723,176.725C222.1,817.354,138.646,408.423,0,929.778H135.086V793.867c45.582,119.37,152.725,155.8,272.443,146.184,164.256-2.674,240.856-130.115,236.377-267.781-3.787-116.163.156-203.661.156-319.9V273.069c0-11.532,2.357-22.833,3.632-34.292C659.119,134.193,795.761,108.3,853.435,164.831c44.905,43.985,39.344,110,39.261,141.707,1.488,147.806-4.147,283.172-2.146,428.993h.156c.155,19.832.511,62.946.713,82.355l-105.032.145V931.521h74.683c41.451,2.021,44.013,11.871,47.145,68.173.762,29.912.667,108.092,0,139.105h120.4V931.521Z" transform="translate(1618.449 5707.14) rotate(-90)" fill="#fff"/>
  </g>
</svg>
