<svg xmlns="http://www.w3.org/2000/svg" xmlns:xlink="http://www.w3.org/1999/xlink" width="292" height="328" viewBox="0 0 292 328">
  <defs>
    <clipPath id="clip-path">
      <rect id="Rectangle_22231" data-name="Rectangle 22231" width="292" height="328" transform="translate(1688 8228)" fill="#fff" stroke="#707070" stroke-width="1"/>
    </clipPath>
  </defs>
  <g id="Mask_Group_19" data-name="Mask Group 19" transform="translate(-1688 -8228)" clip-path="url(#clip-path)">
    <g id="Group_4958" data-name="Group 4958">
      <path id="Path_47586" data-name="Path 47586" d="M1227.8,916.834V804.575c-23.473-.762-171.258-.6-198.186-.572-1.048-150.632-.084-332.217-.275-484.254-.155,0-.155,0-.3.143C1035,215.718,1017.328,97.242,909.033,36.6,732.892-62.048,493.247,47.424,504.918,260.653l-.013,133.756h.156c-.44,89.036-.156,149.87-.56,238.918,6.669,109.818-60.774,176.75-171.7,173.939C222.066,804.467,138.628,401.984,0,915.119H135.068V781.351C180.644,898.839,287.772,934.7,407.474,925.23,571.708,922.6,648.3,797.167,643.819,661.672c-3.787-114.332.156-200.45.156-314.853V268.764c0-11.35,2.357-22.473,3.632-33.752C659.03,132.077,795.654,106.591,853.32,162.233c44.9,43.291,39.338,108.27,39.256,139.473,1.488,145.475-4.146,278.707-2.145,422.229h.156c.155,19.52.511,61.954.713,81.056l-105.018.143v111.7h74.673c41.445,1.989,44.007,11.683,47.139,67.1.762,29.441.667,106.388,0,136.912h120.382V916.834Z" transform="translate(1697.732 9051.047) rotate(-90)" fill="#f2f6ee"/>
    </g>
  </g>
</svg>
