<svg xmlns="http://www.w3.org/2000/svg" width="302.159" height="66.87" viewBox="0 0 302.159 66.87">
  <g id="Group_4823" data-name="Group 4823" transform="translate(-15619.371 -4786.001)">
    <path id="Path_47561" data-name="Path 47561" d="M697.214,17.452c-3.22,10.009-6.944,19.816-10.461,29.741-4.7,11.879-7.48,27.23-30.641,23.172l.057-8.09c6.063,1.112,14.1,1.293,17.117-3.822a3,3,0,0,0,.159-2.645l-1.332-3.267c-5-11.8-9.967-23.179-14.79-35.121h9.518c3.907,9.535,7.627,19.391,11.67,29.036,3.526-9.187,6.81-19.8,10.116-29.052Z" transform="translate(15219.26 4780.926)" fill="#0e3b2e"/>
    <path id="Path_47562" data-name="Path 47562" d="M446.86,12.41v6.678c-1.4.045-10.188.035-11.79.034-.062,8.961-.005,19.763-.016,28.807-.009,0-.009,0-.018-.008.354,6.2-.7,13.245-7.139,16.853-10.478,5.868-24.734-.644-24.04-13.329V43.488h.009c-.026-5.3-.009-8.915-.033-14.213.4-6.533-3.615-10.515-10.214-10.347s-11.169,7.348-11.4,13.051c-.257,6.755-.153,11.059-.195,17.84h-8.2V12.512h8.035V20.47c2.711-6.989,9.084-9.122,16.2-8.559,9.77.157,14.326,7.618,14.06,15.679-.225,6.8.009,11.924.009,18.73v4.643a17.927,17.927,0,0,0,.216,2.008c.68,6.123,8.807,7.64,12.237,4.33,2.671-2.575,2.34-6.441,2.335-8.3.089-8.654-.247-16.58-.128-25.118h.009c.009-1.161.03-3.686.042-4.822l-6.247-.008V12.41h4.442c2.466-.118,2.618-.7,2.8-3.992.045-1.751.04-6.329,0-8.145H435V12.41Z" transform="translate(15301.555 4785.92)" fill="#0e3b2e"/>
    <path id="Path_47563" data-name="Path 47563" d="M519.749,54.911h-7.924V48.375a5.8,5.8,0,0,1-.871,1.519,12.032,12.032,0,0,1-8.4,5.267,27.868,27.868,0,0,1-8.824-.245C487.56,53.692,483.869,49.4,483.5,42.29c-.427-8.181-.1-16.4-.1-24.712h8.063c.027.592.073,1.145.074,1.7q.007,9.354,0,18.707c0,5.533,1.845,8.513,6.011,9.734,5.224,1.531,9.1-.292,11.777-4.4a16.408,16.408,0,0,0,2.308-9.083c.05-5.248.017-10.5.023-15.745,0-.256.043-.513.077-.891h8.015Z" transform="translate(15269.646 4780.875)" fill="#0e3b2e"/>
    <path id="Path_47564" data-name="Path 47564" d="M303.612,7.24V21.91h19.857v7.068c-5.831.007-11.689,0-17.527-.016a2.441,2.441,0,0,0-2.452,2.448q.018,9.162,0,18.34h-8.713V.07h32.4V7.24Z" transform="translate(15324.599 4785.979)" fill="#0e3b2e"/>
    <path id="Path_47565" data-name="Path 47565" d="M574.577,19.138l-3.99,7.238a10.067,10.067,0,0,0-14.85,4.492c-1.717,3.1-1.924,6.221-1.941,9.509-.035,5.244-.008,8.977-.017,14.221h-8.153V17.265h8.068v7.95l.839-2.043c2.669-4.4,6.026-6.432,11.933-6.56a12.047,12.047,0,0,1,8.111,2.526" transform="translate(15251.47 4781.159)" fill="#0e3b2e"/>
    <path id="Path_47566" data-name="Path 47566" d="M628.2,23.857c-.017,3.661-.051,7.238,0,10.8v.983c0,.364,0,.729.008,1.093.06,4.543,2.094,6.551,6.653,6.585,1.805.008,6.475-1.251,9.924-2.569,0,2.009-.037,5.1-.042,6.945,0,.356-4.763,1.955-5.128,2.032a22.088,22.088,0,0,1-11.416-.077c-.3-.085-.585-.186-.881-.288-5.2-1.856-7.086-6.068-7.289-11.094-.186-4.78-.144-9.568-.093-14.357h.008l.025-2.949v-.094l.017-1.78-6.246-.009V12.433h4.441c2.466-.119,2.619-.7,2.806-3.992.017-.39.026-1.042.026-1.822v-5.1c0-.492-.026-.907-.017-1.221h7.153V12.433h11.857v6.678h-.975c-.305.034-.712.034-1.254.034h-9.56c0,1.424-.008,2.839-.017,4.237Z" transform="translate(15231.613 4785.914)" fill="#0e3b2e"/>
    <rect id="Rectangle_22128" data-name="Rectangle 22128" width="8.333" height="37.349" transform="translate(15658.132 4798.414)" fill="#0e3b2e"/>
    <path id="Path_47567" data-name="Path 47567" d="M356.523,7.221h-5.8a1.293,1.293,0,0,1-1.293-1.294V1.295A1.293,1.293,0,0,1,350.728,0h5.8a1.294,1.294,0,0,1,1.294,1.294V5.927a1.294,1.294,0,0,1-1.294,1.294" transform="translate(15308.664 4786)" fill="#0e3b2e"/>
    <rect id="Rectangle_22129" data-name="Rectangle 22129" width="8.333" height="37.349" transform="translate(15831.103 4798.414)" fill="#0e3b2e"/>
    <path id="Path_47568" data-name="Path 47568" d="M600.667,7.221h-5.795a1.294,1.294,0,0,1-1.294-1.294V1.295A1.294,1.294,0,0,1,594.873,0h5.795a1.294,1.294,0,0,1,1.294,1.294V5.927a1.294,1.294,0,0,1-1.294,1.294" transform="translate(15237.488 4786)" fill="#0e3b2e"/>
    <path id="Path_47569" data-name="Path 47569" d="M716.522,67.09h-5.795a1.294,1.294,0,0,1-1.294-1.294V61.164a1.294,1.294,0,0,1,1.294-1.294h5.795a1.294,1.294,0,0,1,1.294,1.294V65.8a1.294,1.294,0,0,1-1.294,1.294" transform="translate(15203.714 4768.546)" fill="#0e3b2e"/>
    <line id="Line_625" data-name="Line 625" x1="9.503" y2="0.039" transform="translate(15876.579 4798.31)" fill="#0c3a2d"/>
    <line id="Line_626" data-name="Line 626" y1="1.127" transform="translate(15728.474 4823.57)" fill="#0c3a2d"/>
  </g>
</svg>
