<svg xmlns="http://www.w3.org/2000/svg" width="204.218" height="95.402" viewBox="0 0 204.218 95.402">
  <g id="Group_5192" data-name="Group 5192" transform="translate(1.262 1.301)">
    <path id="Path_47827" data-name="Path 47827" d="M428.152,97.366c-16-.452-21.859,19.348-17.3,32.191A12.958,12.958,0,0,0,415,135.534c8.452,6.561,20.863,2.75,25.793-10.348,2.094-5.56,2-13.087.651-18.581" transform="translate(-401.845 -86.451)" fill="none" stroke="#0e3b2e" stroke-linecap="round" stroke-linejoin="round" stroke-width="2.5"/>
    <path id="Path_47828" data-name="Path 47828" d="M518.42,159.99c2.013-15.425,26.169-30.875,30.418-10.688" transform="translate(-455.48 -107.258)" fill="none" stroke="#0e3b2e" stroke-linecap="round" stroke-linejoin="round" stroke-width="2.5"/>
    <path id="Path_47829" data-name="Path 47829" d="M514.224,195.349c-3.3,28.69,31.073,20.787,32.573-10.836" transform="translate(-453.307 -129.311)" fill="none" stroke="#0e3b2e" stroke-linecap="round" stroke-linejoin="round" stroke-width="2.5"/>
    <path id="Path_47830" data-name="Path 47830" d="M416.5,78.763c-7.38,1.687-13.7,6.942-17.417,13.534a38.336,38.336,0,0,0-4.356,21.94,31.531,31.531,0,0,0,4.356,14.276,19.037,19.037,0,0,0,11.822,8.691" transform="translate(-394.579 -77.307)" fill="none" stroke="#0e3b2e" stroke-linecap="round" stroke-linejoin="round" stroke-width="2.5"/>
    <path id="Path_47831" data-name="Path 47831" d="M449.26,76.129c5.087-.966,10.454,1.179,14.154,4.8s5.9,8.559,7.07,13.605a37.275,37.275,0,0,1-1.55,22.433,30.511,30.511,0,0,1-15.313,16.223" transform="translate(-421.469 -75.898)" fill="none" stroke="#0e3b2e" stroke-linecap="round" stroke-linejoin="round" stroke-width="2.5"/>
    <path id="Path_47832" data-name="Path 47832" d="M433.84,164.718c1.789.7,7.517,1.042,10.81-.4,4.066-1.784,7.9-4,13.56-1.5,3.415,1.509,4.915,7.415,5.921,11.146,2.145,8.376,5.773,17.89,14.373,21.336,27.262,5.794,40.643-27.582,36.547-52.15a17.225,17.225,0,0,0-7.918-11.776" transform="translate(-413.886 -103.179)" fill="none" stroke="#0e3b2e" stroke-linecap="round" stroke-linejoin="round" stroke-width="2.5"/>
    <path id="Path_47833" data-name="Path 47833" d="M502.034,167.783c-1.1-16.883,3.349-30.865,16.091-38.793a20.579,20.579,0,0,1,11.593-3.512" transform="translate(-447.342 -100.272)" fill="none" stroke="#0e3b2e" stroke-linecap="round" stroke-linejoin="round" stroke-width="2.5"/>
    <path id="Path_47834" data-name="Path 47834" d="M539.08,172.465q6.869-2.828,13.743-5.662" transform="translate(-465.64 -120.602)" fill="none" stroke="#0e3b2e" stroke-linecap="round" stroke-linejoin="round" stroke-width="2.5"/>
    <path id="Path_47835" data-name="Path 47835" d="M527.69,190.452q8.851-4.01,17.7-8.025a11.765,11.765,0,0,0,2.648-1.484" transform="translate(-460.039 -127.555)" fill="none" stroke="#0e3b2e" stroke-linecap="round" stroke-linejoin="round" stroke-width="2.5"/>
    <line id="Line_756" data-name="Line 756" y1="9.026" x2="25.081" transform="translate(15.344 25.18)" fill="none" stroke="#0e3b2e" stroke-linecap="round" stroke-linejoin="round" stroke-width="2.5"/>
    <line id="Line_757" data-name="Line 757" y1="6.902" x2="20.345" transform="translate(18.774 33.76)" fill="none" stroke="#0e3b2e" stroke-linecap="round" stroke-linejoin="round" stroke-width="2.5"/>
    <path id="Path_47836" data-name="Path 47836" d="M476.69,85.313c39.342,12.64,78.969,24.415,118.769,35.627,9.163-11.222,21.249-2.368,15.044,10.729" transform="translate(-434.959 -80.528)" fill="none" stroke="#0e3b2e" stroke-linecap="round" stroke-linejoin="round" stroke-width="2.5"/>
    <path id="Path_47837" data-name="Path 47837" d="M538.92,253.836c26.682-2.414,53.43-3.659,80.209-4.493" transform="translate(-465.561 -161.192)" fill="none" stroke="#0e3b2e" stroke-linecap="round" stroke-linejoin="round" stroke-width="2.5"/>
    <path id="Path_47838" data-name="Path 47838" d="M710.19,223.786c8.091-.178,16.177-.544,23.877-.92,4.107-1.22,7.156-4.884,8.594-8.919s2.226-9.351.183-13.524" transform="translate(-549.786 -137.135)" fill="none" stroke="#0e3b2e" stroke-linecap="round" stroke-linejoin="round" stroke-width="2.5"/>
    <path id="Path_47839" data-name="Path 47839" d="M760.124,179.208c20.67-13.732,16.482,48.694-4.854,32.476" transform="translate(-571.955 -125.724)" fill="none" stroke="#0e3b2e" stroke-linecap="round" stroke-linejoin="round" stroke-width="2.5"/>
    <path id="Path_47840" data-name="Path 47840" d="M707.32,170.453c9.611,2.907,19.379,5.286,29.239,7.74" transform="translate(-548.375 -122.397)" fill="none" stroke="#0e3b2e" stroke-linecap="round" stroke-linejoin="round" stroke-width="2.5"/>
    <path id="Path_47841" data-name="Path 47841" d="M743.7,216.773a8.34,8.34,0,0,1-.02,5.931,16,16,0,0,1-3.217,5.1c-1.449,1.642-3.232,3.2-5.408,3.471" transform="translate(-562.017 -145.176)" fill="none" stroke="#0e3b2e" stroke-linecap="round" stroke-linejoin="round" stroke-width="2.5"/>
    <path id="Path_47842" data-name="Path 47842" d="M618.48,216.713q26.964.823,53.934,1.642" transform="translate(-504.686 -145.146)" fill="none" stroke="#0e3b2e" stroke-linecap="round" stroke-linejoin="round" stroke-width="2.5"/>
    <path id="Path_47843" data-name="Path 47843" d="M693.416,180.863a33.76,33.76,0,0,1-11.8,34.082" transform="translate(-535.737 -127.516)" fill="none" stroke="#0e3b2e" stroke-linecap="round" stroke-linejoin="round" stroke-width="2.5"/>
    <path id="Path_47844" data-name="Path 47844" d="M594.43,137.443q25.859,8.249,51.885,15.928" transform="translate(-492.859 -106.164)" fill="none" stroke="#0e3b2e" stroke-linecap="round" stroke-linejoin="round" stroke-width="2.5"/>
    <path id="Path_47845" data-name="Path 47845" d="M719.36,157.24c5.26-4.427,8.518,3.9,5.87,7.674" transform="translate(-554.296 -115.277)" fill="none" stroke="#0e3b2e" stroke-linecap="round" stroke-linejoin="round" stroke-width="2.5"/>
  </g>
</svg>
