<svg xmlns="http://www.w3.org/2000/svg" width="124.979" height="178.712" viewBox="0 0 124.979 178.712">
  <g id="Group_4949" data-name="Group 4949" transform="translate(1.301 1.269)">
    <path id="Path_47610" data-name="Path 47610" d="M48.4,168.553l63.236.213m-67.068-.87-4.528.038a1.078,1.078,0,0,0-1.027,1.075L39,174.6a1.891,1.891,0,0,0,1.885,1.894l80.211.2a1.829,1.829,0,0,0,1.831-1.92l-.254-5.039a2.12,2.12,0,0,0-2.135-2.247l-1.822-.019M100.83,61.239l1-.1a2.285,2.285,0,0,0,1.807-1.22,6.71,6.71,0,0,0,.476-1.085L111.2,28.551c.213-.87-1.026-1.711-1.921-1.723L69.706,26.3M97,61.239l-34.462.18M49.162,37.489,55.55,60.046A1.541,1.541,0,0,0,56.9,61.152l1.649-.038M53.878,34.653l4.8,17.893a1.653,1.653,0,0,0,1.6,1.225L97.839,53.7a1.655,1.655,0,0,0,1.608-1.279l4.671-19.8c.405-1.738-.25-2.011-1.775-2.2l-39.056-.228m27.788,3.147-2.8,17.038m-17.292-.235L68.542,33.8m32.295-12.98C100.155,2.577,76.01-7.191,63.106,7.954M10.488,55.435,78.9,18.121a3.781,3.781,0,0,0,1.748-4.435,3.712,3.712,0,0,0-3.372-2.535L15.363,8.917M.5,8.26l11.605.481M73.9,107.608l9.5.113a2.273,2.273,0,0,0,2.124-2.414L85.5,82.639c.033-2.14-.309-3.837-1.234-4.864a6.869,6.869,0,0,0-9.782-.766,6.385,6.385,0,0,0-2.172,4.554l-.283,23.32C72.032,106.86,71.975,107.608,73.9,107.608Zm30.513-42L116.443,165.62M54.919,65.609l-10.618,99" transform="translate(-0.5 -0.5)" fill="none" stroke="#10392d" stroke-linecap="round" stroke-miterlimit="10" stroke-width="2.5"/>
  </g>
</svg>
