<svg xmlns="http://www.w3.org/2000/svg" width="169.84" height="170.053" viewBox="0 0 169.84 170.053">
  <g id="Group_4947" data-name="Group 4947" transform="translate(1.396 1.302)">
    <path id="Path_47612" data-name="Path 47612" d="M510.247,96.341c-8.192,100.033-103.6,91.062-129.19,70.344M482.291,34.842C456.506,5.6,355.234-10.026,343.15,86.59m66.495,13.278c.26,11.083-28.356,40.555-9.872,44.781m9.508,6.544c-21.5,1.113,3.446-23.739,5.222-32.7m3.287-6.727a16.446,16.446,0,0,1-1.595,4.085m7.635,34.7c-2.029,4.688-10.187,6.056-12.337.842.852-10.021,10.8-18.247,15.664-26.954m-.331,22.424A33.972,33.972,0,0,1,437.4,133.322m-13.879,21.639c8.381,3.572,18.279-7.268,28.181-15.984,3.176-2.8,2.989-3.9.943-5.951-2.2-2.195-5.648-11.657-1.487-16.71a4.626,4.626,0,0,1,2.149-1.383,2.062,2.062,0,0,1,2.462,1.388c2.179,6.877,9.84,12.905,8.8,20.2m-1.633,3.085c-4.237,6.666-9.6,17.116-17.4,7.864m25.906-9.869c-4.324,4.761-7.565,19.521-15.932,12.9m-3.334-35.719a9.147,9.147,0,0,1,5.068-11.249,2.193,2.193,0,0,1,2.9,1.432c3.083,10.193,10.53,18.918,12.2,29.409m-13.677-31.179c-1.77-5.082,2.256-9.5,6.727-6.416m.909,2.251c2.469,9.928,10.24,18.131,12.915,27.675a3.693,3.693,0,0,1-.074,2.988c-4.079,6.162-5.116,19.649-12.26,16.509m.927-42.714c-.875-3.361,2.6-9.376,6.321-7.772.53.229-.042,2.21,4.578,12.41,4.321,9.538,6.817,12.226.781,20.941m10.479-37.487c1.828,8.205-6.334,13.082-9.729,19.6m10.032-15.6a30.4,30.4,0,0,1,8.427-9.141m-22.365-22.37a26.865,26.865,0,0,1-6.308,6.866m-2.392-7.163c8.918-9.006,38.447,14.48,33.31,24.7m8.9-3.838c-3.333,6.488-9.252,16.313-17.86,12.351M463.7,68.929c-1.145-7.413,1.7-7.049,5.312-10.656m15.132-16.2A104.461,104.461,0,0,1,471.925,54.9M411.566,98.438c11.756-10.177,28.958-13.6,42.361-21.812m26.244,3.612c-9.306,13.656-22.338-6.758-33.286-5.588M396.322,91.857C418.032,71.4,425.913,68.891,453.329,63.9a6.534,6.534,0,0,1,5.263,1.323,142.661,142.661,0,0,0,13.332,9.735c4.433,2.733,8.449,4.328,8.3,5.179M374.065,101.676c5.764-4.5,13.293-5.843,19.861-8.485m-.937,17.913c0,4.181.491,5.908.491,9M374.775,96.1a3.429,3.429,0,0,1,1.03,1.955m7.259,41.231c-7.583-4.184-15.528-40.808-10.506-46.21m13.813,46.568c-.174,1.133-.967,2.965-1.994,3.476-7.391,3.681-14.64,8.64-21.683,13.315m21.333-18.451q3.957-2.788,8.119-5.269m-44.479-11.353c-1.7-2.484-2.864-8.286-1.932-13.432m-.112-2.258c4.5-3.127,23.873-14.587,26.98-12.706" transform="translate(-343.15 -12.509)" fill="none" stroke="#10392d" stroke-linecap="round" stroke-miterlimit="10" stroke-width="2.5"/>
  </g>
</svg>
