<svg id="Group_5141" data-name="Group 5141" xmlns="http://www.w3.org/2000/svg" xmlns:xlink="http://www.w3.org/1999/xlink" width="1391.68" height="285.075" viewBox="0 0 1391.68 285.075">
  <defs>
    <clipPath id="clip-path">
      <rect id="Rectangle_22236" data-name="Rectangle 22236" width="1391.679" height="285.075" fill="none"/>
    </clipPath>
  </defs>
  <g id="Group_5140" data-name="Group 5140" clip-path="url(#clip-path)">
    <path id="Path_47673" data-name="Path 47673" d="M1266.581,52.769c-13.731,42.67-29.6,84.477-44.6,126.786-20.032,50.642-31.89,116.085-130.626,98.785l.244-34.487c25.756,4.726,59.852,5.506,72.835-16.064a12.9,12.9,0,0,0,.812-11.5l-5.68-13.925c-21.316-50.293-42.488-98.817-63.047-149.724H1137.1c16.656,40.646,32.518,82.666,49.752,123.783,15.03-39.166,29.033-84.4,43.125-123.853Z" fill="#0e3b2e"/>
    <path id="Path_47674" data-name="Path 47674" d="M550.122,52.563V81.034c-5.953.191-43.432.15-50.257.144-.266,38.2-.025,84.251-.073,122.808-.036,0-.036,0-.072-.036,1.51,26.418-2.976,56.465-30.437,71.843-44.674,25.018-105.449-2.746-102.486-56.82v-33.92h.036c-.108-22.581-.036-38.009-.144-60.59,1.692-27.851-15.41-44.826-43.538-44.115-28.086.711-47.619,31.324-48.6,55.64-1.1,28.8-.654,47.143-.831,76.055H238.75V53H273V86.923c11.559-29.8,38.724-38.892,69.082-36.49,41.652.669,61.075,32.479,59.938,66.841-.959,29,.038,50.834.038,79.847v19.795a77.748,77.748,0,0,0,.92,8.56c2.9,26.1,37.546,32.567,52.175,18.457,11.382-10.978,9.974-27.458,9.952-35.371.376-36.893-1.048-70.682-.542-107.078h.036c.044-4.951.131-15.713.181-20.558l-26.628-.037V52.563h18.932c10.514-.506,11.165-2.963,11.959-17.017.189-7.465.168-26.979,0-34.722h30.531V52.563Z" fill="#0e3b2e"/>
    <path id="Path_47675" data-name="Path 47675" d="M724.823,212.243H691.042V184.38a24.711,24.711,0,0,1-3.717,6.475c-10.775,14.851-21.634,19.756-35.82,22.454a118.791,118.791,0,0,1-37.617-1.046c-26.289-5.214-42.027-23.522-43.609-53.823-1.822-34.876-.423-69.919-.423-105.349h34.373c.114,2.526.311,4.881.313,7.236q.031,39.876.016,79.752c.012,23.588,7.868,36.291,25.623,41.5,22.27,6.528,38.8-1.243,50.206-18.774,7.68-11.8,9.707-25.084,9.838-38.723.214-22.373.072-44.749.1-67.124,0-1.093.185-2.186.331-3.795h34.167Z" fill="#0e3b2e"/>
    <path id="Path_47676" data-name="Path 47676" d="M37.684,30.777V93.319h84.654v30.132c-24.863.031-49.834.018-74.723-.068a10.409,10.409,0,0,0-10.45,10.432q.071,39.06-.023,78.192H0V.211H138.127V30.777Z" fill="#0e3b2e"/>
    <path id="Path_47677" data-name="Path 47677" d="M881.077,60.946,864.068,91.8c-21.58-13.978-50.765-7.454-63.308,19.15-7.32,13.223-8.2,26.519-8.275,40.538-.152,22.358-.033,38.27-.072,60.627H757.655V52.961h34.4v33.89l3.576-8.707c11.38-18.762,25.689-27.423,50.872-27.965,13.874-.289,25.725,3.433,34.577,10.767" fill="#0e3b2e"/>
    <path id="Path_47678" data-name="Path 47678" d="M1025.022,101.336c-.072,15.608-.217,30.855,0,46.03v4.191c0,1.554,0,3.108.036,4.661.253,19.366,8.924,27.929,28.363,28.074,7.695.036,27.6-5.334,42.308-10.952,0,8.563-.155,21.739-.18,29.605-.005,1.52-20.306,8.337-21.859,8.662-16.367,3.577-32.734,4.624-48.668-.326-1.264-.361-2.493-.8-3.758-1.228-22.184-7.913-30.2-25.87-31.072-47.295-.8-20.378-.614-40.791-.4-61.2h.036l.108-12.574v-.4L990.012,81l-26.628-.037V52.632h18.932c10.514-.506,11.164-2.962,11.959-17.017.072-1.662.108-4.444.108-7.768V6.1c0-2.1-.108-3.866-.072-5.2h30.494V52.632h50.547V81.1H1071.2c-1.3.144-3.035.144-5.347.144h-40.756c0,6.07-.036,12.1-.072,18.066Z" fill="#0e3b2e"/>
    <rect id="Rectangle_22234" data-name="Rectangle 22234" width="35.526" height="159.223" transform="translate(165.238 52.92)" fill="#0e3b2e"/>
    <path id="Path_47679" data-name="Path 47679" d="M185.438,30.781h-4.951a15.391,15.391,0,0,1,0-30.781h4.951a15.391,15.391,0,0,1,0,30.781" fill="#0e3b2e"/>
    <rect id="Rectangle_22235" data-name="Rectangle 22235" width="35.526" height="159.223" transform="translate(902.63 52.92)" fill="#0e3b2e"/>
    <path id="Path_47680" data-name="Path 47680" d="M922.83,30.781h-4.951a15.391,15.391,0,0,1,0-30.781h4.951a15.391,15.391,0,0,1,0,30.781" fill="#0e3b2e"/>
    <path id="Path_47681" data-name="Path 47681" d="M1272.749,211.6H1267.8a15.39,15.39,0,0,1,0-30.781h4.951a15.39,15.39,0,0,1,0,30.781" fill="#0e3b2e"/>
    <line id="Line_703" data-name="Line 703" y1="4.805" transform="translate(465.107 160.16)" fill="#0e3b2e"/>
    <path id="Path_47682" data-name="Path 47682" d="M1328.891,42.938V6.653h-13.046V2.168h31.043V6.653H1333.9V42.938Z" fill="#0e3b2e"/>
    <path id="Path_47683" data-name="Path 47683" d="M1351.9,42.938V2.168h6.465l13.453,34.071,13.4-34.071h6.465v40.77h-4.834v-32.5l-12.872,32.5H1369.6l-12.871-32.5v32.5Z" fill="#0e3b2e"/>
  </g>
</svg>
