<svg xmlns="http://www.w3.org/2000/svg" width="185.906" height="41.142" viewBox="0 0 185.906 41.142">
  <g id="Group_4792" data-name="Group 4792" transform="translate(-15619.371 -4786.001)">
    <path id="Path_47561" data-name="Path 47561" d="M681.4,17.434c-1.981,6.158-4.272,12.192-6.436,18.3-2.891,7.309-4.6,16.753-18.852,14.257l.035-4.978c3.73.684,8.673.8,10.531-2.351a1.843,1.843,0,0,0,.1-1.627l-.819-2.01c-3.077-7.258-6.132-14.261-9.1-21.608h5.856c2.4,5.866,4.693,11.931,7.18,17.864,2.169-5.652,4.19-12.18,6.224-17.874Z" transform="translate(15120.766 4776.182)" fill="#0e3b2e"/>
    <path id="Path_47562" data-name="Path 47562" d="M418.758,7.741V11.85c-.859.028-6.268.022-7.254.021-.038,5.513,0,12.159-.01,17.724-.006,0-.006,0-.011-.005.218,3.813-.429,8.149-4.393,10.369-6.447,3.611-15.218-.4-14.791-8.2v-4.9h.006c-.016-3.259-.006-5.485-.021-8.745.244-4.019-2.224-6.469-6.284-6.366s-6.872,4.521-7.013,8.03c-.158,4.156-.094,6.8-.12,10.976H373.82V7.8h4.944v4.9c1.668-4.3,5.589-5.613,9.97-5.266,6.011.1,8.814,4.687,8.65,9.646-.139,4.185.006,7.337.006,11.524v2.857a11.034,11.034,0,0,0,.133,1.235c.418,3.767,5.419,4.7,7.529,2.664,1.643-1.584,1.44-3.963,1.437-5.1.054-5.324-.152-10.2-.078-15.454h.006c.006-.714.019-2.268.026-2.967l-3.844-.005V7.741h2.733c1.517-.073,1.611-.428,1.725-2.456.028-1.078.024-3.894,0-5.011h4.406V7.741Z" transform="translate(15280.008 4785.846)" fill="#0e3b2e"/>
    <path id="Path_47563" data-name="Path 47563" d="M505.717,40.547h-4.875V36.526a3.568,3.568,0,0,1-.536.935,7.4,7.4,0,0,1-5.17,3.24,17.146,17.146,0,0,1-5.429-.151c-3.794-.753-6.065-3.395-6.293-7.768-.263-5.033-.061-10.091-.061-15.2h4.961c.017.364.045.7.045,1.044q0,5.755,0,11.51c0,3.4,1.135,5.238,3.7,5.989a5.959,5.959,0,0,0,7.246-2.71,10.1,10.1,0,0,0,1.42-5.589c.031-3.229.01-6.458.014-9.687,0-.158.027-.316.047-.548h4.931Z" transform="translate(15218.263 4776.084)" fill="#0e3b2e"/>
    <path id="Path_47564" data-name="Path 47564" d="M300.211,4.481v9.026h12.217v4.349c-3.587,0-7.191,0-10.784-.01a1.5,1.5,0,0,0-1.509,1.506q.011,5.637,0,11.284h-5.361V.07h19.935V4.481Z" transform="translate(15324.599 4785.961)" fill="#0e3b2e"/>
    <path id="Path_47565" data-name="Path 47565" d="M563.438,18.165l-2.455,4.453a6.194,6.194,0,0,0-9.136,2.764,11.537,11.537,0,0,0-1.194,5.851c-.022,3.227,0,5.523-.01,8.75h-5.016V17.013h4.964V21.9l.516-1.257c1.642-2.708,3.707-3.958,7.342-4.036a7.412,7.412,0,0,1,4.99,1.554" transform="translate(15183.092 4776.632)" fill="#0e3b2e"/>
    <path id="Path_47566" data-name="Path 47566" d="M622.637,14.792c-.01,2.253-.031,4.453,0,6.643v.605c0,.224,0,.449.005.673.037,2.795,1.288,4.031,4.094,4.052a24.336,24.336,0,0,0,6.106-1.581c0,1.236-.023,3.138-.026,4.273a15.865,15.865,0,0,1-3.155,1.25,13.59,13.59,0,0,1-7.024-.047c-.183-.052-.36-.115-.542-.177-3.2-1.142-4.359-3.733-4.485-6.826-.115-2.941-.088-5.887-.057-8.833h.005l.015-1.815v-.058l.01-1.095-3.843-.005V7.763h2.732c1.517-.073,1.612-.428,1.726-2.456.01-.24.016-.641.016-1.121V1.047c0-.3-.016-.558-.01-.751h4.4V7.763h7.3v4.109h-.6c-.188.021-.438.021-.772.021h-5.882c0,.876-.005,1.747-.01,2.607Z" transform="translate(15144.668 4785.833)" fill="#0e3b2e"/>
    <rect id="Rectangle_22128" data-name="Rectangle 22128" width="5.127" height="22.979" transform="translate(15643.219 4793.638)" fill="#0e3b2e"/>
    <path id="Path_47567" data-name="Path 47567" d="M353.8,4.443h-3.566a.8.8,0,0,1-.8-.8V.8a.8.8,0,0,1,.8-.8H353.8a.8.8,0,0,1,.8.8v2.85a.8.8,0,0,1-.8.8" transform="translate(15293.764 4786)" fill="#0e3b2e"/>
    <rect id="Rectangle_22129" data-name="Rectangle 22129" width="5.127" height="22.979" transform="translate(15749.641 4793.638)" fill="#0e3b2e"/>
    <path id="Path_47568" data-name="Path 47568" d="M597.94,4.443h-3.565a.8.8,0,0,1-.8-.8V.8a.8.8,0,0,1,.8-.8h3.565a.8.8,0,0,1,.8.8v2.85a.8.8,0,0,1-.8.8" transform="translate(15156.04 4786)" fill="#0e3b2e"/>
    <path id="Path_47569" data-name="Path 47569" d="M713.8,64.312H710.23a.8.8,0,0,1-.8-.8v-2.85a.8.8,0,0,1,.8-.8H713.8a.8.8,0,0,1,.8.8v2.85a.8.8,0,0,1-.8.8" transform="translate(15090.686 4752.228)" fill="#0e3b2e"/>
    <line id="Line_625" data-name="Line 625" x1="5.847" y2="0.024" transform="translate(15777.62 4793.574)" fill="#0c3a2d"/>
    <line id="Line_626" data-name="Line 626" y1="0.693" transform="translate(15686.497 4809.116)" fill="#0c3a2d"/>
  </g>
</svg>
