<svg xmlns="http://www.w3.org/2000/svg" width="54.696" height="78.142" viewBox="0 0 54.696 78.142">
  <g id="Group_4946" data-name="Group 4946" transform="translate(-765.986 -1339.244)">
    <path id="Path_47603" data-name="Path 47603" d="M85.879,202.253a64.065,64.065,0,0,0-.4-6.947" transform="translate(714.344 1214.089)" fill="none" stroke="#0e3b2e" stroke-linecap="round" stroke-miterlimit="10" stroke-width="2"/>
    <g id="Group_4945" data-name="Group 4945" transform="translate(767.047 1334.259)">
      <path id="Path_47605" data-name="Path 47605" d="M11.925,111.232c6.279-6.918,3.82-17.1,4.8-25.591.006-.053.013-.1.024-.157a88.145,88.145,0,0,1,9.666-26.941,1.457,1.457,0,0,1,2.714-.064c.839,1.4.395,3.322-.285,5.213M26.1,114.911q.229-2.775.189-5.564a1.62,1.62,0,0,1,.928-1.495c11.579-5.43,2.764-21.586,5.516-31.326a1.632,1.632,0,0,1,.093-.245c1.166-2.542.884-9.122-2.907-6.39a.79.79,0,0,0-.2.218c-2.155,3.454-2.035,7.809-3.351,11.562-1.021,2.548-3.3,4.829-3.064,7.743m20.776.1c-1.532-4.925-5.1-12.155-5.91-18.358a1.566,1.566,0,0,0-.82-1.193c-4.211-2.193-4.327,6.3-3.072,9.2a1.681,1.681,0,0,1,.086.24c2.574,9.744-5.732,25.137,7.333,29.478m13.954,3.3c-7.235-7.94-5.618-19.566-5.733-29.509a1.724,1.724,0,0,0-.055-.414c-2.114-8.223-6.366-16.095-8.888-24.33a1.675,1.675,0,0,0-2.254-1.108c-1.7.81-1.162,4.118-.231,6.895m-.063-6.929c-1.378-3.232-3.389-3.686-4.414-.737a.945.945,0,0,0-.039.156c-.483,3.06.9,6.718,2.342,10.268m-4.943-.146c2.165-4.995,3.762-9.866.627-12.179a1.568,1.568,0,0,0-2.207.659c-.419.761-.968,1.881-1.325,2.674" transform="translate(-7.517 -33.309)" fill="none" stroke="#0e3b2e" stroke-linecap="round" stroke-miterlimit="10" stroke-width="2"/>
      <path id="Path_47606" data-name="Path 47606" d="M5.11,39.59C-8.248,20.72,9.056-3.569,31.59,1.079" transform="translate(-0.5 5.5)" fill="none" stroke="#0e3b2e" stroke-linecap="round" stroke-miterlimit="10" stroke-width="2"/>
      <path id="Path_47607" data-name="Path 47607" d="M118.548,52.785c8.056-9.127,7.127-23.149-2.357-32.633" transform="translate(-71.377 -6.572)" fill="none" stroke="#0e3b2e" stroke-linecap="round" stroke-miterlimit="10" stroke-width="2"/>
      <path id="Path_47608" data-name="Path 47608" d="M87.106,3.247a23.3,23.3,0,0,1,8,4.034" transform="translate(-53.702 3.812)" fill="none" stroke="#0e3b2e" stroke-linecap="round" stroke-miterlimit="10" stroke-width="2"/>
    </g>
  </g>
</svg>
