<svg xmlns="http://www.w3.org/2000/svg" xmlns:xlink="http://www.w3.org/1999/xlink" width="425" height="713.855" viewBox="0 0 425 713.855">
  <defs>
    <clipPath id="clip-path">
      <rect id="Rectangle_22169" data-name="Rectangle 22169" width="425" height="713.855" transform="translate(1108 3438.145)" fill="#f7a094" stroke="#707070" stroke-width="1"/>
    </clipPath>
  </defs>
  <g id="Mask_Group_1" data-name="Mask Group 1" transform="translate(-1108 -3438.145)" clip-path="url(#clip-path)">
    <path id="Path_47570" data-name="Path 47570" d="M1275.435,992.633c-.176,0-.176,0-.353-.176,7.38,129.077-14.538,275.888-148.712,351.023-218.272,122.234-515.218-13.417-500.738-277.62l0-165.73h.177c-.53-110.332-.177-185.708-.706-296.043,8.269-136.076-75.3-219.012-212.727-215.538C275.148,392.02,171.747,890.737,0,254.911H167.353v165.76c56.475-145.585,189.2-190.021,337.528-178.288,203.51,3.27,298.41,158.69,292.858,326.579-4.686,141.673.183,248.374.183,390.128v96.717c0,14.062,2.941,27.85,4.5,41.824,14.178,127.539,183.446,159.118,254.921,90.18,55.612-53.639,48.735-134.157,48.627-172.817,1.834-180.261-5.118-345.349-2.649-523.178h.176c.217-24.193.642-76.773.883-100.446l-130.1-.18v-138.4h92.5c51.371-2.472,54.549-14.477,58.431-83.147.924-36.473.818-131.814,0-169.645h149.168V252.792S1275.669,804.245,1275.435,992.633Z" transform="translate(2154.844 4826.974) rotate(-180)" fill="#f7a094"/>
  </g>
</svg>
