<svg xmlns="http://www.w3.org/2000/svg" xmlns:xlink="http://www.w3.org/1999/xlink" width="919" height="731" viewBox="0 0 919 731">
  <defs>
    <clipPath id="clip-path">
      <rect id="Rectangle_22170" data-name="Rectangle 22170" width="919" height="731" transform="translate(0 2136)" fill="#fff" stroke="#707070" stroke-width="1"/>
    </clipPath>
  </defs>
  <g id="Mask_Group_2" data-name="Mask Group 2" transform="translate(0 -2136)" clip-path="url(#clip-path)">
    <path id="Path_47573" data-name="Path 47573" d="M1162.4,249.174V386.285c-28.669.931-209.17.727-242.06.7-1.28,183.979-.1,405.763-.335,591.458-.19,0-.19,0-.363-.174,7.273,127.234-14.314,271.939-146.582,346.007-40.32,22.581-80.334,65.661-123.689,71.232-19.916,2.559-42.988-26.026-62.835-26.828-165.965-6.705-317.4-128.985-307.054-318.06l-.015-163.367h.191c-.538-108.746-.191-183.048-.685-291.808C287.117,461.314,204.743,379.565,69.262,383c-135.25,3.418-55-155.643,91.2-144.079,200.591,3.215,294.136,156.414,288.667,321.9-4.625,139.642.191,244.825.191,384.554v95.335c0,13.862,2.879,27.448,4.436,41.223,13.951,125.722,180.821,156.85,251.253,88.891,54.839-52.875,48.047-132.238,47.946-170.349,1.818-177.68-5.063-340.407-2.619-515.7h.19c.189-23.841.624-75.669.871-99L623.131,385.6V249.174h91.2c50.62-2.429,53.748-14.27,57.573-81.953.931-35.958.815-129.94,0-167.222H918.941V249.174Z" transform="matrix(-0.105, -0.995, 0.995, -0.105, -410.878, 2871.374)" fill="#fcd263"/>
  </g>
</svg>
