<svg xmlns="http://www.w3.org/2000/svg" xmlns:xlink="http://www.w3.org/1999/xlink" width="57.883" height="40.532" viewBox="0 0 57.883 40.532">
  <defs>
    <clipPath id="clip-path">
      <rect id="Rectangle_22177" data-name="Rectangle 22177" width="57.883" height="40.532" transform="translate(-19958.479 5425.605)" fill="#fff" stroke="#fff" stroke-width="1"/>
    </clipPath>
  </defs>
  <g id="Mask_Group_3" data-name="Mask Group 3" transform="translate(19958.479 -5425.605)" clip-path="url(#clip-path)">
    <path id="Path_47562" data-name="Path 47562" d="M455.8,11.685v6.279c-1.313.043-9.579.033-11.085.032-.059,8.425,0,18.582-.015,27.085-.009,0-.009,0-.017-.008.333,5.827-.655,12.453-6.712,15.845-9.852,5.517-23.256-.606-22.6-12.532V40.9h.009c-.025-4.98-.009-8.383-.031-13.363.373-6.142-12.122-16.856-5.427-16.327,9.186.147,13.47,7.163,13.219,14.741-.212,6.395.009,11.212.009,17.61v4.366a16.858,16.858,0,0,0,.2,1.888c.639,5.757,8.28,7.183,11.506,4.071,2.511-2.421,2.2-6.056,2.2-7.8.083-8.137-.232-15.589-.12-23.616h.009c.009-1.092.029-3.465.04-4.534l-5.874-.008V11.685h4.177c2.318-.111,2.461-.653,2.637-3.753.043-1.647.037-5.95,0-7.658h6.733V11.685Z" transform="translate(-20361.637 5393.985)" fill="#fff" stroke="#fff" stroke-width="1"/>
  </g>
</svg>
