<svg xmlns="http://www.w3.org/2000/svg" xmlns:xlink="http://www.w3.org/1999/xlink" width="56.15" height="39.318" viewBox="0 0 56.15 39.318">
  <defs>
    <clipPath id="clip-path">
      <rect id="Rectangle_22178" data-name="Rectangle 22178" width="56.15" height="39.318" transform="translate(-19958.479 5425.605)" fill="#f7a094" stroke="#f7a094" stroke-width="1.4"/>
    </clipPath>
  </defs>
  <g id="Mask_Group_4" data-name="Mask Group 4" transform="translate(19958.479 -5425.605)" clip-path="url(#clip-path)">
    <path id="Path_47583" data-name="Path 47583" d="M454.364,11.343v6.091c-1.274.041-9.292.032-10.753.031-.057,8.173,0,18.025-.015,26.274-.008,0-.008,0-.016-.008.323,5.652-.636,12.08-6.512,15.371-9.557,5.352-22.559-.587-21.926-12.157V39.688h.008c-.024-4.831-.008-8.131-.03-12.963.362-5.958-11.759-16.351-5.264-15.838,8.911.143,13.066,6.948,12.823,14.3-.205,6.2.008,10.876.008,17.083v4.235a16.368,16.368,0,0,0,.2,1.831c.62,5.585,8.033,6.968,11.161,3.949,2.436-2.349,2.134-5.874,2.13-7.567.081-7.893-.225-15.122-.116-22.909h.008c.008-1.059.028-3.361.039-4.4l-5.7-.008v-6.06h4.052c2.249-.108,2.388-.634,2.558-3.641.041-1.6.036-5.772,0-7.428h6.532V11.343Z" transform="translate(-20361.783 5394.924)" fill="#f7a094" stroke="#f7a094" stroke-width="1.4"/>
  </g>
</svg>
