<svg xmlns="http://www.w3.org/2000/svg" width="148.854" height="133.97" viewBox="0 0 148.854 133.97">
  <g id="Group_5178" data-name="Group 5178" transform="translate(16974.979 -8285.629)">
    <g id="Group_5173" data-name="Group 5173" transform="translate(-16973.729 8286.879)">
      <line id="Line_704" data-name="Line 704" x1="52.946" transform="translate(10.337 34.465)" fill="none" stroke="#0e3b2e" stroke-linecap="round" stroke-linejoin="round" stroke-width="2.5"/>
      <path id="Path_47742" data-name="Path 47742" d="M924.86,91.766H920a2.086,2.086,0,0,0-2.085,2.085v92.834A2.086,2.086,0,0,0,920,188.771h3.039" transform="translate(-917.91 -57.301)" fill="none" stroke="#0e3b2e" stroke-linecap="round" stroke-linejoin="round" stroke-width="2.5"/>
      <line id="Line_705" data-name="Line 705" x2="59.136" transform="translate(11.628 131.466)" fill="none" stroke="#0e3b2e" stroke-linecap="round" stroke-linejoin="round" stroke-width="2.5"/>
      <path id="Path_47743" data-name="Path 47743" d="M1108.357,105.562V93.841a2.086,2.086,0,0,0-2.085-2.085H1089.95" transform="translate(-1023.267 -57.294)" fill="none" stroke="#0e3b2e" stroke-linecap="round" stroke-linejoin="round" stroke-width="2.5"/>
      <path id="Path_47744" data-name="Path 47744" d="M1111.37,215.982h8.02a2.086,2.086,0,0,0,2.085-2.085V136.206" transform="translate(-1036.385 -84.516)" fill="none" stroke="#0e3b2e" stroke-linecap="round" stroke-linejoin="round" stroke-width="2.5"/>
      <line id="Line_706" data-name="Line 706" x2="45.946" transform="translate(38.155 17.872)" fill="none" stroke="#0e3b2e" stroke-linecap="round" stroke-linejoin="round" stroke-width="2.5"/>
      <line id="Line_707" data-name="Line 707" x2="11.911" transform="translate(86.23 115.722)" fill="none" stroke="#0e3b2e" stroke-linecap="round" stroke-linejoin="round" stroke-width="2.5"/>
      <path id="Path_47745" data-name="Path 47745" d="M996.2,48.956h-4.864a2.086,2.086,0,0,0-2.085,2.085V65.476" transform="translate(-961.599 -31.084)" fill="none" stroke="#0e3b2e" stroke-linecap="round" stroke-linejoin="round" stroke-width="2.5"/>
      <path id="Path_47746" data-name="Path 47746" d="M1174.079,64.454V51.031a2.086,2.086,0,0,0-2.085-2.085H1151.42" transform="translate(-1060.911 -31.078)" fill="none" stroke="#0e3b2e" stroke-linecap="round" stroke-linejoin="round" stroke-width="2.5"/>
      <path id="Path_47747" data-name="Path 47747" d="M1183.81,183.954h8.019a2.086,2.086,0,0,0,2.085-2.085V109.616" transform="translate(-1080.747 -68.232)" fill="none" stroke="#0e3b2e" stroke-linecap="round" stroke-linejoin="round" stroke-width="2.5"/>
      <path id="Path_47748" data-name="Path 47748" d="M1269.43,137.854h8.019a2.086,2.086,0,0,0,2.085-2.085V63.516" transform="translate(-1133.181 -40)" fill="none" stroke="#0e3b2e" stroke-linecap="round" stroke-linejoin="round" stroke-width="2.5"/>
      <line id="Line_708" data-name="Line 708" x2="45.946" transform="translate(71.337 0.004)" fill="none" stroke="#0e3b2e" stroke-linecap="round" stroke-linejoin="round" stroke-width="2.5"/>
      <line id="Line_709" data-name="Line 709" x2="11.911" transform="translate(119.412 97.853)" fill="none" stroke="#0e3b2e" stroke-linecap="round" stroke-linejoin="round" stroke-width="2.5"/>
      <path id="Path_47749" data-name="Path 47749" d="M1081.82,2.856h-4.865a2.086,2.086,0,0,0-2.085,2.085V19.376" transform="translate(-1014.032 -2.852)" fill="none" stroke="#0e3b2e" stroke-linecap="round" stroke-linejoin="round" stroke-width="2.5"/>
      <path id="Path_47750" data-name="Path 47750" d="M1259.7,18.354V4.931a2.086,2.086,0,0,0-2.085-2.085H1237.04" transform="translate(-1113.345 -2.846)" fill="none" stroke="#0e3b2e" stroke-linecap="round" stroke-linejoin="round" stroke-width="2.5"/>
      <line id="Line_710" data-name="Line 710" y1="0.043" x2="47.124" transform="translate(15.733 60.272)" fill="none" stroke="#0e3b2e" stroke-linecap="round" stroke-linejoin="round" stroke-width="2.5"/>
      <line id="Line_711" data-name="Line 711" y1="0.039" x2="25.264" transform="translate(14.031 70.485)" fill="none" stroke="#0e3b2e" stroke-linecap="round" stroke-linejoin="round" stroke-width="2.5"/>
      <line id="Line_712" data-name="Line 712" y1="0.039" x2="25.26" transform="translate(47.915 70.505)" fill="none" stroke="#0e3b2e" stroke-linecap="round" stroke-linejoin="round" stroke-width="2.5"/>
      <line id="Line_713" data-name="Line 713" y1="0.039" x2="25.264" transform="translate(15.733 85.396)" fill="none" stroke="#0e3b2e" stroke-linecap="round" stroke-linejoin="round" stroke-width="2.5"/>
      <line id="Line_714" data-name="Line 714" y1="0.039" x2="22.124" transform="translate(17.171 95.179)" fill="none" stroke="#0e3b2e" stroke-linecap="round" stroke-linejoin="round" stroke-width="2.5"/>
      <path id="Path_47751" data-name="Path 47751" d="M1249.981,194.013c-11.019-1.973-11.066,13.671-.171,11.368" transform="translate(-1116.185 -119.811)" fill="none" stroke="#0e3b2e" stroke-linecap="round" stroke-linejoin="round" stroke-width="2.5"/>
      <line id="Line_715" data-name="Line 715" y1="3.488" x2="0.004" transform="translate(131.331 70.543)" fill="none" stroke="#0e3b2e" stroke-linecap="round" stroke-linejoin="round" stroke-width="2.5"/>
      <line id="Line_716" data-name="Line 716" y2="4.798" transform="translate(131.334 85.803)" fill="none" stroke="#0e3b2e" stroke-linecap="round" stroke-linejoin="round" stroke-width="2.5"/>
      <path id="Path_47752" data-name="Path 47752" d="M1161.515,80.209c-5.419-1.4-5.892-11.178,1.86-12.155,6.709-.845,9.143,8.868,3.7,11.57" transform="translate(-1064.63 -42.748)" fill="none" stroke="#0e3b2e" stroke-linecap="round" stroke-linejoin="round" stroke-width="2.5"/>
      <path id="Path_47753" data-name="Path 47753" d="M1233.13,41.37V30.079a.523.523,0,0,1,.523-.523h13.415a.523.523,0,0,1,.523.523V41.366a.524.524,0,0,1-.523.523h-13.415A.518.518,0,0,1,1233.13,41.37Z" transform="translate(-1110.951 -19.203)" fill="none" stroke="#0e3b2e" stroke-linecap="round" stroke-linejoin="round" stroke-width="2.5"/>
      <line id="Line_717" data-name="Line 717" x2="10.985" transform="translate(126.206 37.074)" fill="none" stroke="#0e3b2e" stroke-linecap="round" stroke-linejoin="round" stroke-width="2.5"/>
      <line id="Line_718" data-name="Line 718" x2="10.985" transform="translate(126.206 45.582)" fill="none" stroke="#0e3b2e" stroke-linecap="round" stroke-linejoin="round" stroke-width="2.5"/>
      <line id="Line_719" data-name="Line 719" x2="10.981" transform="translate(93.66 54.516)" fill="none" stroke="#0e3b2e" stroke-linecap="round" stroke-linejoin="round" stroke-width="2.5"/>
      <line id="Line_720" data-name="Line 720" x2="10.981" transform="translate(93.66 63.024)" fill="none" stroke="#0e3b2e" stroke-linecap="round" stroke-linejoin="round" stroke-width="2.5"/>
      <path id="Path_47754" data-name="Path 47754" d="M1165.471,238.683c-11.02-1.973-11.066,13.671-.171,11.368" transform="translate(-1064.431 -147.167)" fill="none" stroke="#0e3b2e" stroke-linecap="round" stroke-linejoin="round" stroke-width="2.5"/>
      <line id="Line_721" data-name="Line 721" y1="2.907" x2="0.004" transform="translate(98.571 87.857)" fill="none" stroke="#0e3b2e" stroke-linecap="round" stroke-linejoin="round" stroke-width="2.5"/>
      <line id="Line_722" data-name="Line 722" y2="5.221" transform="translate(98.575 103.117)" fill="none" stroke="#0e3b2e" stroke-linecap="round" stroke-linejoin="round" stroke-width="2.5"/>
      <path id="Path_47755" data-name="Path 47755" d="M1085.34,285.883c-11.019-1.973-11.066,13.671-.17,11.368" transform="translate(-1015.359 -176.072)" fill="none" stroke="#0e3b2e" stroke-linecap="round" stroke-linejoin="round" stroke-width="2.5"/>
      <line id="Line_723" data-name="Line 723" y1="2.903" transform="translate(67.52 106.152)" fill="none" stroke="#0e3b2e" stroke-linecap="round" stroke-linejoin="round" stroke-width="2.5"/>
      <line id="Line_724" data-name="Line 724" y2="3.519" transform="translate(67.52 121.412)" fill="none" stroke="#0e3b2e" stroke-linecap="round" stroke-linejoin="round" stroke-width="2.5"/>
      <path id="Path_47756" data-name="Path 47756" d="M1086.1,113.776l8.318.054a.754.754,0,0,1,.632,1.159l-4.124,6.461a.755.755,0,0,1-1.271,0l-4.194-6.516A.756.756,0,0,1,1086.1,113.776Z" transform="translate(-1020.445 -70.779)" fill="none" stroke="#0e3b2e" stroke-linecap="round" stroke-linejoin="round" stroke-width="2.5"/>
    </g>
  </g>
</svg>
