<svg xmlns="http://www.w3.org/2000/svg" width="198.219" height="121.598" viewBox="0 0 198.219 121.598">
  <g id="Group_5177" data-name="Group 5177" transform="translate(17218.666 -8297.998)">
    <path id="Path_47757" data-name="Path 47757" d="M602.286,118.511q5.561,7.438,11.117,14.879c2.973,3.979,5.989,8.038,7.605,12.733m-4.3,13.59a9.386,9.386,0,0,0,5.713-8.848m-9.819,11.143a66.8,66.8,0,0,1-13.654,4.377c-2.32.475-4.8.891-6.557,2.477s-2.231,4.823-.276,6.159a5.721,5.721,0,0,0,3.028.708,104.939,104.939,0,0,0,18.459-.9c5.209-.717,10.489-1.832,15.681-.988a42.416,42.416,0,0,1,8.78,2.778q9.149,3.652,18.3,7.3c2.312.92,4.746,1.862,7.215,1.544,2.77-.356,5.077-2.223,7.211-4.025,6.3-5.323,12.954-11.5,13.98-19.685m-.352-4.611a4.049,4.049,0,0,0-.925-4.857q-2.965-3.563-5.925-7.126M637.5,140.584c-1.811-2.664-3.75-5.446-6.642-6.859-1.171-.573-2.452-.895-3.593-1.527a15.416,15.416,0,0,1-4.034-3.754Q614.38,118,604.809,108.2c-1.417-1.451-3.253-3.016-5.221-2.524-1.731.433-2.723,2.392-2.638,4.174a10.884,10.884,0,0,0,1.909,4.937m46.462,20.241q-4.32-4.4-8.64-8.8a7.723,7.723,0,0,0-2.609-1.994c-2.575-.988-5.281.9-7.389,2.676m28.376,5.009c-2.9-.933-4.916-3.478-7.016-5.684s-4.848-4.314-7.868-3.928a9.027,9.027,0,0,0-4.632,2.452m37.784,14.879a172,172,0,0,1-16.36-15.134c-1.166-1.226-2.452-2.545-4.131-2.774-2.3-.31-4.275,1.523-5.87,3.211m12.11,63.861c-1.747.874-2.295,3.232-1.731,5.1a12.552,12.552,0,0,0,3.3,4.772c3.707,3.885,8.161,8.038,13.522,7.749a16,16,0,0,0,6.96-2.477A51.68,51.68,0,0,0,704.2,175.59m.115-5.595c.25-1.786-1.188-3.313-2.511-4.534q-6.375-5.891-12.754-11.787l-3.652,1.68" transform="translate(-17726.225 8211.9)" fill="none" stroke="#0e3b2e" stroke-linecap="round" stroke-linejoin="round" stroke-width="2.5"/>
    <path id="Path_47758" data-name="Path 47758" d="M452.485,100.519c-24.906-24.906,13.624-55.093,32.49-25.818m-24.843,29.016a16.627,16.627,0,0,0,13.2-1.315m-38.24,7.16c-19.867,0-27.57,19.388-18.582,32.969a21.092,21.092,0,0,0,21.008,9.323c17.861-3.126,25.61-27.935,6.447-39.442M408.067,62.7c-19.867,0-27.57,19.388-18.582,32.969a21.092,21.092,0,0,0,21.008,9.323c17.861-3.126,25.61-27.935,6.447-39.442" transform="translate(-17602.943 8236.624)" fill="none" stroke="#0e3b2e" stroke-linecap="round" stroke-linejoin="round" stroke-width="2.5"/>
    <path id="Path_47759" data-name="Path 47759" d="M487.277,107.325a7.566,7.566,0,0,1-3.207,2.312,26.242,26.242,0,0,1-7.821-7.923,11.252,11.252,0,0,1-1.883-4.742,5.285,5.285,0,0,1,1.688-4.64,4.908,4.908,0,0,1,5.45-.212,7.3,7.3,0,0,1,3.19,4.657,9.238,9.238,0,0,1,2.969-4.835c1.557-1.132,4.008-1.222,5.23.267m-46.935,49.471c4.432,3.389,9.119,7.028,13.543,10.4m-11.91.848,10.7-12.534M419.34,94.448c4.432,3.389,9.119,7.028,13.543,10.4m-11.91.848,10.7-12.534" transform="translate(-17622.279 8220.248)" fill="none" stroke="#0e3b2e" stroke-linecap="round" stroke-linejoin="round" stroke-width="2.5"/>
  </g>
</svg>
