<svg xmlns="http://www.w3.org/2000/svg" width="153.16" height="147.795" viewBox="0 0 153.16 147.795">
  <g id="Group_5182" data-name="Group 5182" transform="translate(17470.441 -8824.024)">
    <line id="Line_731" data-name="Line 731" x2="0.2" y2="13.046" transform="translate(-17403.145 8827.631)" fill="none" stroke="#0e3b2e" stroke-linecap="round" stroke-linejoin="round" stroke-width="2.5"/>
    <path id="Path_47769" data-name="Path 47769" d="M150.722,58.04c.084,11.861-.063,33.123.022,44.984l22.326-21.8" transform="translate(-17553.26 8792.759)" fill="none" stroke="#0e3b2e" stroke-linecap="round" stroke-linejoin="round" stroke-width="2.5"/>
    <line id="Line_732" data-name="Line 732" y1="0.222" x2="13.618" transform="translate(-17355.469 8888.667)" fill="none" stroke="#0e3b2e" stroke-linecap="round" stroke-linejoin="round" stroke-width="2.5"/>
    <line id="Line_733" data-name="Line 733" y1="0.102" x2="11.209" transform="translate(-17464.617 8889.457)" fill="none" stroke="#0e3b2e" stroke-linecap="round" stroke-linejoin="round" stroke-width="2.5"/>
    <path id="Path_47770" data-name="Path 47770" d="M196.538,220.524a37.883,37.883,0,0,0,3.833,5.017,54.061,54.061,0,0,1,7.927-5.851" transform="translate(-17578.756 8702.814)" fill="none" stroke="#0e3b2e" stroke-linecap="round" stroke-linejoin="round" stroke-width="2.5"/>
    <path id="Path_47771" data-name="Path 47771" d="M171.029,227.646a24.41,24.41,0,0,1,7.878-13.4" transform="translate(-17564.561 8705.841)" fill="none" stroke="#0e3b2e" stroke-linecap="round" stroke-linejoin="round" stroke-width="2.5"/>
    <path id="Path_47772" data-name="Path 47772" d="M122.428,216.77a20.569,20.569,0,0,1,7.377,11.906" transform="translate(-17537.52 8704.438)" fill="none" stroke="#0e3b2e" stroke-linecap="round" stroke-linejoin="round" stroke-width="2.5"/>
    <path id="Path_47773" data-name="Path 47773" d="M76.239,224.844a21.816,21.816,0,0,1,3.85-5.452,2.6,2.6,0,0,1,1.521-.94,2.835,2.835,0,0,1,1.584.51q3.566,2.029,7.137,4.054a1.121,1.121,0,0,0,1.819-.386q1.059-1.484,2.121-2.968" transform="translate(-17511.818 8703.507)" fill="none" stroke="#0e3b2e" stroke-linecap="round" stroke-linejoin="round" stroke-width="2.5"/>
    <path id="Path_47774" data-name="Path 47774" d="M2.349,257.81a5.691,5.691,0,0,1-1.8-4.91,5.006,5.006,0,0,1,3.176-4.068l86.424-.182" transform="translate(-17469.676 8686.7)" fill="none" stroke="#0e3b2e" stroke-linecap="round" stroke-linejoin="round" stroke-width="2.5"/>
    <line id="Line_734" data-name="Line 734" y1="0.093" x2="90.403" transform="translate(-17462.168 8945.158)" fill="none" stroke="#0e3b2e" stroke-linecap="round" stroke-linejoin="round" stroke-width="2.5"/>
    <path id="Path_47775" data-name="Path 47775" d="M36.784,278.7l-.106,15.991a6.483,6.483,0,0,0,6.445,5.762l67.27.133" transform="translate(-17489.807 8669.98)" fill="none" stroke="#0e3b2e" stroke-linecap="round" stroke-linejoin="round" stroke-width="2.5"/>
    <line id="Line_735" data-name="Line 735" y1="0.102" x2="16.599" transform="translate(-17339.494 8929.113)" fill="none" stroke="#0e3b2e" stroke-linecap="round" stroke-linejoin="round" stroke-width="2.5"/>
    <line id="Line_736" data-name="Line 736" x2="10.903" y2="0.08" transform="translate(-17335.752 8935.461)" fill="none" stroke="#0e3b2e" stroke-linecap="round" stroke-linejoin="round" stroke-width="2.5"/>
    <line id="Line_737" data-name="Line 737" x2="29.015" y2="0.053" transform="translate(-17354.795 8955.165)" fill="none" stroke="#0e3b2e" stroke-linecap="round" stroke-linejoin="round" stroke-width="2.5"/>
    <line id="Line_738" data-name="Line 738" x2="29.015" y2="0.053" transform="translate(-17354.795 8947.376)" fill="none" stroke="#0e3b2e" stroke-linecap="round" stroke-linejoin="round" stroke-width="2.5"/>
    <path id="Path_47776" data-name="Path 47776" d="M238.628,262.729v-45.5a1.957,1.957,0,0,1,1.956-1.956h41.1a1.957,1.957,0,0,1,1.956,1.956v45.5a2.1,2.1,0,0,1-2.1,2.1H240.731A2.1,2.1,0,0,1,238.628,262.729Z" transform="translate(-17602.174 8705.273)" fill="none" stroke="#0e3b2e" stroke-linecap="round" stroke-linejoin="round" stroke-width="2.5"/>
    <circle id="Ellipse_206" data-name="Ellipse 206" cx="7.448" cy="7.448" r="7.448" transform="translate(-17383.826 8904.845)" fill="none" stroke="#0e3b2e" stroke-linecap="round" stroke-linejoin="round" stroke-width="2.5"/>
    <circle id="Ellipse_207" data-name="Ellipse 207" cx="7.448" cy="7.448" r="7.448" transform="translate(-17430.123 8905.417)" fill="none" stroke="#0e3b2e" stroke-linecap="round" stroke-linejoin="round" stroke-width="2.5"/>
    <path id="Path_47777" data-name="Path 47777" d="M17.4,182.652a63.65,63.65,0,0,1-12.513-38" transform="translate(-17472.119 8744.567)" fill="none" stroke="#0e3b2e" stroke-linecap="round" stroke-linejoin="round" stroke-width="2.5"/>
    <path id="Path_47778" data-name="Path 47778" d="M288.27,144.65a63.766,63.766,0,0,1-3.922,22.1" transform="translate(-17627.613 8744.567)" fill="none" stroke="#0e3b2e" stroke-linecap="round" stroke-linejoin="round" stroke-width="2.5"/>
    <path id="Path_47779" data-name="Path 47779" d="M149.038.5a63.944,63.944,0,0,1,63.943,63.943" transform="translate(-17552.326 8824.774)" fill="none" stroke="#0e3b2e" stroke-linecap="round" stroke-linejoin="round" stroke-width="2.5"/>
    <path id="Path_47780" data-name="Path 47780" d="M4.889,64.443A63.944,63.944,0,0,1,68.831.5" transform="translate(-17472.119 8824.774)" fill="none" stroke="#0e3b2e" stroke-linecap="round" stroke-linejoin="round" stroke-width="2.5"/>
    <circle id="Ellipse_208" data-name="Ellipse 208" cx="5.731" cy="5.731" r="5.731" transform="matrix(0.331, -0.944, 0.944, 0.331, -17361.535, 8934.612)" fill="none" stroke="#0e3b2e" stroke-linecap="round" stroke-linejoin="round" stroke-width="2.5"/>
  </g>
</svg>
