<svg xmlns="http://www.w3.org/2000/svg" width="137.307" height="135.021" viewBox="0 0 137.307 135.021">
  <path id="Path_47741" data-name="Path 47741" d="M1354.02,102.881c-31.94-72.448,33.913-116.835,79.647-98.079m-81.431,55.276,9.175-.046m51.605-52.564V18.01M1463,60.077h8.94m-97.39,34.961a22.755,22.755,0,0,0-9.029,9.291A49.73,49.73,0,0,0,1360.8,118.4a37.638,37.638,0,0,0-.79,7.519c-.008,1.753.146,4.36,1.872,5.408a5.5,5.5,0,0,0,2.265.6,126.552,126.552,0,0,0,16.941,1.021,8.812,8.812,0,0,0,4.507-.963c1.321-.82,2.176-2.592,1.479-3.983M1392,108.74a15.97,15.97,0,0,0-4.7-10.631m25.712-65.33,0,40.642a.425.425,0,0,0,.686.335l22.684-17.6M1469.3,30.721a60.65,60.65,0,0,0-22.268-20.527m31.925,66.9a53.077,53.077,0,0,0-5.177-37.029m-87.209,78.369,21.729.089c5.239,0,6.283-9.549-.32-9.549-7.434,0-15.974-.235-15.974-.235m63.438-19.048a8.76,8.76,0,0,0,2.723-6.04,10.255,10.255,0,1,0-10.254,10.254m-55.642-4.021a8.76,8.76,0,0,0,2.723-6.04A10.255,10.255,0,1,0,1384.744,94.1m53.308,1.76a19.805,19.805,0,0,0-4.31,12m37.981-1.236a24.1,24.1,0,0,0-6.514-12.018,6.968,6.968,0,0,0-3.147-2.045m6.148,29.61,8.274-.027a.644.644,0,0,0,.643-.639l.058-7.588a.6.6,0,0,0-.6-.609l-55.769.008m0,8.856h41.251" transform="translate(-1344.317 0.809)" fill="none" stroke="#0e3b2e" stroke-linecap="round" stroke-linejoin="round" stroke-width="2.5"/>
</svg>
