<svg xmlns="http://www.w3.org/2000/svg" width="134.884" height="153.315" viewBox="0 0 134.884 153.315">
  <g id="Group_5172" data-name="Group 5172" transform="translate(1.437 1.603)">
    <path id="Path_47760" data-name="Path 47760" d="M117.364,171.691a5.175,5.175,0,1,1,5.175,5.175A5.177,5.177,0,0,1,117.364,171.691Zm10.171,9.613c-1.346,1.481-3.081,3.106-5.051,2.727-1.939-.374-3.151-2.578-5.106-2.872-1.511-.229-2.927.778-3.984,1.88a15.529,15.529,0,0,0-3.585,6.083m31.172-1.032c-.688-1.187-1.376-2.378-2.069-3.565a4.43,4.43,0,0,1-.668-1.63,4.734,4.734,0,0,1,.244-1.72c1.625-6.207,1.236-12.744.838-19.151a9.522,9.522,0,0,0-.583-3.226,2.844,2.844,0,0,0-5.474.11,9.1,9.1,0,0,0-.424,3.919c.224,5.26.658,10.695-1.137,15.651" transform="translate(-55.31 -91.389)" fill="none" stroke="#0e3b2e" stroke-linecap="round" stroke-linejoin="round" stroke-width="2.5"/>
    <path id="Path_47761" data-name="Path 47761" d="M126.3,62.026l24.76-24.76M126.3,62.026,114.47,50.194" transform="translate(-57.646 -31.462)" fill="none" stroke="#0e3b2e" stroke-linecap="round" stroke-linejoin="round" stroke-width="2.5"/>
    <line id="Line_725" data-name="Line 725" x1="0.165" y1="16.593" transform="translate(67.234 102.968)" fill="none" stroke="#0e3b2e" stroke-linecap="round" stroke-linejoin="round" stroke-width="2.5"/>
    <line id="Line_726" data-name="Line 726" y1="17.645" transform="translate(67.18 46.698)" fill="none" stroke="#0e3b2e" stroke-linecap="round" stroke-linejoin="round" stroke-width="2.5"/>
    <line id="Line_727" data-name="Line 727" x1="17.156" y1="9.483" transform="translate(30.893 65.404)" fill="none" stroke="#0e3b2e" stroke-linecap="round" stroke-linejoin="round" stroke-width="2.5"/>
    <line id="Line_728" data-name="Line 728" x1="17.156" y2="10.625" transform="translate(30.893 96.352)" fill="none" stroke="#0e3b2e" stroke-linecap="round" stroke-linejoin="round" stroke-width="2.5"/>
    <line id="Line_729" data-name="Line 729" x1="9.707" y2="6.631" transform="translate(90.314 65.404)" fill="none" stroke="#0e3b2e" stroke-linecap="round" stroke-linejoin="round" stroke-width="2.5"/>
    <line id="Line_730" data-name="Line 730" x1="15.76" y1="8.71" transform="translate(88.24 96.506)" fill="none" stroke="#0e3b2e" stroke-linecap="round" stroke-linejoin="round" stroke-width="2.5"/>
    <path id="Path_47762" data-name="Path 47762" d="M116,194.37l21.15-6.262m-40.281-.354,19.35,6.616M116,156.806,96.87,166m19.131-9.2,5.809,1.316m15.341,23.02v6.96m-40.281-.349V166" transform="translate(-48.821 -91.401)" fill="none" stroke="#0e3b2e" stroke-linecap="round" stroke-linejoin="round" stroke-width="2.5"/>
    <path id="Path_47763" data-name="Path 47763" d="M110.953,294.379a15.507,15.507,0,1,1,10.62,1.7" transform="translate(-51.92 -145.83)" fill="none" stroke="#0e3b2e" stroke-linecap="round" stroke-linejoin="round" stroke-width="2.5"/>
    <path id="Path_47764" data-name="Path 47764" d="M26.131,116.407A15.506,15.506,0,1,1,15.9,113.116" transform="translate(-0.778 -69.495)" fill="none" stroke="#0e3b2e" stroke-linecap="round" stroke-linejoin="round" stroke-width="2.5"/>
    <path id="Path_47765" data-name="Path 47765" d="M217.568,254.751a15.5,15.5,0,1,1,10.366-2.852" transform="translate(-102.225 -124.989)" fill="none" stroke="#0e3b2e" stroke-linecap="round" stroke-linejoin="round" stroke-width="2.5"/>
    <path id="Path_47766" data-name="Path 47766" d="M.5,234.28C2.285,223.491,13.024,220,20.134,221.452M1.612,243.165a15.507,15.507,0,1,0,24.241-17.226" transform="translate(-0.5 -123.659)" fill="none" stroke="#0e3b2e" stroke-linecap="round" stroke-linejoin="round" stroke-width="2.5"/>
    <path id="Path_47767" data-name="Path 47767" d="M207.751,142.177c-9.832-4.8-10.106-16.079-6.686-22.481m15.521,23.952A15.507,15.507,0,1,0,207,115.5" transform="translate(-100.071 -69.258)" fill="none" stroke="#0e3b2e" stroke-linecap="round" stroke-linejoin="round" stroke-width="2.5"/>
    <path id="Path_47768" data-name="Path 47768" d="M113.176,25.626a26,26,0,0,1,11.123,4.4m-19.49-4.353C80.095,36.56,86.786,57.356,92.241,64.1c7.838,9.673,23.384,10.715,33.061,2.877a22.534,22.534,0,0,0,8.037-21.3" transform="translate(-43.923 -25.626)" fill="none" stroke="#0e3b2e" stroke-linecap="round" stroke-linejoin="round" stroke-width="2.5"/>
  </g>
</svg>
