<svg xmlns="http://www.w3.org/2000/svg" width="179.267" height="137.914" viewBox="0 0 179.267 137.914">
  <g id="Group_5185" data-name="Group 5185" transform="translate(16800.133 -8827.6)">
    <path id="Path_47810" data-name="Path 47810" d="M1513.749,30.438c12.3-13,28.381-21.878,47.619-21.878a65.973,65.973,0,0,1,49.872,22.7" transform="translate(-18249.67 8820.29)" fill="none" stroke="#0e3b2e" stroke-linecap="round" stroke-linejoin="round" stroke-width="2.5"/>
    <path id="Path_47811" data-name="Path 47811" d="M1477.768,155.44c-4.112-9.324-9.941-27.369-3.362-44.7" transform="translate(-18226.127 8763.436)" fill="none" stroke="#0e3b2e" stroke-linecap="round" stroke-linejoin="round" stroke-width="2.5"/>
    <path id="Path_47812" data-name="Path 47812" d="M1401.289,303.361a13.4,13.4,0,0,1,.062-1.881.994.994,0,0,1,.972-.812l31.9-.169c2.772-.013,2.1,2.5,2.129,2.688" transform="translate(-18187.092 8657.851)" fill="none" stroke="#0e3b2e" stroke-linecap="round" stroke-linejoin="round" stroke-width="2.5"/>
    <line id="Line_747" data-name="Line 747" y1="0.129" x2="32.204" transform="translate(-16783.807 8964.13)" fill="none" stroke="#0e3b2e" stroke-linecap="round" stroke-linejoin="round" stroke-width="2.5"/>
    <path id="Path_47813" data-name="Path 47813" d="M1612.2,83.34c27.1,59.179-19.811,98.2-56.332,98.2-20.551,0-41.462-11.041-55.218-28.9" transform="translate(-18242.381 8778.682)" fill="none" stroke="#0e3b2e" stroke-linecap="round" stroke-linejoin="round" stroke-width="2.5"/>
    <path id="Path_47814" data-name="Path 47814" d="M1496.239,246.235a39.412,39.412,0,0,1,1.419-6.982.844.844,0,0,1,.2-.395.82.82,0,0,1,.533-.142q3.553-.106,7.11-.089" transform="translate(-18239.928 8692.277)" fill="none" stroke="#0e3b2e" stroke-linecap="round" stroke-linejoin="round" stroke-width="2.5"/>
    <path id="Path_47815" data-name="Path 47815" d="M1726.156,44.03a39.458,39.458,0,0,1-1.42,6.982.839.839,0,0,1-.2.395.82.82,0,0,1-.533.142q-3.553.106-7.11.089" transform="translate(-18362.699 8800.554)" fill="none" stroke="#0e3b2e" stroke-linecap="round" stroke-linejoin="round" stroke-width="2.5"/>
    <path id="Path_47816" data-name="Path 47816" d="M1501,165.546a15.094,15.094,0,0,1,1.295-5.194A49.22,49.22,0,0,1,1515.162,142" transform="translate(-18242.576 8746.042)" fill="none" stroke="#0e3b2e" stroke-linecap="round" stroke-linejoin="round" stroke-width="2.5"/>
    <path id="Path_47817" data-name="Path 47817" d="M1540.309,153.555q2.941,2.815,6.086,5.394a18.88,18.88,0,0,0,7.1,4.139,15.5,15.5,0,0,0,3.651.4c1.024.009,2.049-.027,3.07-.106,2.165-.169,4.312-.515,6.459-.856l3.407-.546a6.744,6.744,0,0,0,1.965-.523,3.5,3.5,0,0,0,1.357-4.751c-1.038-1.694-3.291-2.125-5.279-2.147-3.269-.031-6.517.6-9.786.719a1.194,1.194,0,0,1-1.313-.59c-2.985-4.072-5.265-8.947-9.568-11.586" transform="translate(-18264.447 8745.43)" fill="none" stroke="#0e3b2e" stroke-linecap="round" stroke-linejoin="round" stroke-width="2.5"/>
    <path id="Path_47818" data-name="Path 47818" d="M1553.3,180.33a11.8,11.8,0,0,0-1.939,3.5" transform="translate(-18270.596 8724.715)" fill="none" stroke="#0e3b2e" stroke-linecap="round" stroke-linejoin="round" stroke-width="2.5"/>
    <path id="Path_47819" data-name="Path 47819" d="M1546.624,87.819c-10.456-.124-13.57,14.088-3.615,17.837,9.927,3.739,16.989-9.036,9.341-15.321" transform="translate(-18262.584 8776.189)" fill="none" stroke="#0e3b2e" stroke-linecap="round" stroke-linejoin="round" stroke-width="2.5"/>
    <path id="Path_47820" data-name="Path 47820" d="M1737.732,165.546a15.1,15.1,0,0,0-1.3-5.194A49.2,49.2,0,0,0,1723.568,142" transform="translate(-18366.416 8746.042)" fill="none" stroke="#0e3b2e" stroke-linecap="round" stroke-linejoin="round" stroke-width="2.5"/>
    <path id="Path_47821" data-name="Path 47821" d="M1674.113,153.555q-2.941,2.815-6.086,5.394a18.884,18.884,0,0,1-7.1,4.139,15.508,15.508,0,0,1-3.651.4q-1.537.013-3.07-.106c-2.165-.169-4.312-.515-6.458-.856l-3.407-.546a6.8,6.8,0,0,1-1.97-.523,3.5,3.5,0,0,1-1.357-4.751c1.038-1.694,3.291-2.125,5.279-2.147,3.269-.031,6.516.6,9.786.719a1.613,1.613,0,0,0,.883-.142,1.6,1.6,0,0,0,.43-.448c2.985-4.072,5.265-8.947,9.568-11.586" transform="translate(-18320.234 8745.43)" fill="none" stroke="#0e3b2e" stroke-linecap="round" stroke-linejoin="round" stroke-width="2.5"/>
    <path id="Path_47822" data-name="Path 47822" d="M1686.512,87.819c10.455-.124,13.569,14.088,3.615,17.837-9.927,3.739-16.989-9.036-9.341-15.321" transform="translate(-18340.813 8776.189)" fill="none" stroke="#0e3b2e" stroke-linecap="round" stroke-linejoin="round" stroke-width="2.5"/>
    <line id="Line_748" data-name="Line 748" y1="0.821" x2="120.908" transform="translate(-16745.307 8912.026)" fill="none" stroke="#0e3b2e" stroke-linecap="round" stroke-linejoin="round" stroke-width="2.5"/>
    <line id="Line_749" data-name="Line 749" y1="0.821" x2="103.338" transform="translate(-16735.064 8918.707)" fill="none" stroke="#0e3b2e" stroke-linecap="round" stroke-linejoin="round" stroke-width="2.5"/>
    <line id="Line_750" data-name="Line 750" y1="0.821" x2="66.369" transform="translate(-16719.477 8949.887)" fill="none" stroke="#0e3b2e" stroke-linecap="round" stroke-linejoin="round" stroke-width="2.5"/>
    <line id="Line_751" data-name="Line 751" x2="0.106" y2="14.168" transform="translate(-16634.588 8918.894)" fill="none" stroke="#0e3b2e" stroke-linecap="round" stroke-linejoin="round" stroke-width="2.5"/>
    <line id="Line_752" data-name="Line 752" x2="0.111" y2="23.719" transform="translate(-16730.354 8919.559)" fill="none" stroke="#0e3b2e" stroke-linecap="round" stroke-linejoin="round" stroke-width="2.5"/>
    <line id="Line_753" data-name="Line 753" x2="0.106" y2="36.077" transform="translate(-16770.441 8896.625)" fill="none" stroke="#0e3b2e" stroke-linecap="round" stroke-linejoin="round" stroke-width="2.5"/>
    <line id="Line_754" data-name="Line 754" x2="0.106" y2="19.376" transform="translate(-16770.219 8938.939)" fill="none" stroke="#0e3b2e" stroke-linecap="round" stroke-linejoin="round" stroke-width="2.5"/>
    <line id="Line_755" data-name="Line 755" x2="0.106" y2="12.474" transform="translate(-16769.992 8867.673)" fill="none" stroke="#0e3b2e" stroke-linecap="round" stroke-linejoin="round" stroke-width="2.5"/>
    <path id="Path_47823" data-name="Path 47823" d="M1384.26,124.05l25.807.217a1.7,1.7,0,0,1,1.686,1.677l.031,11.95a2.47,2.47,0,0,1-2.018,2.236l-27.13.293-10.4-7.772a.761.761,0,0,1-.138-1.269Z" transform="translate(-18170.697 8756.029)" fill="none" stroke="#0e3b2e" stroke-linecap="round" stroke-linejoin="round" stroke-width="2.5"/>
    <path id="Path_47824" data-name="Path 47824" d="M1445.8,60.225c-1.207-.572-2.085-1.264-3.229-1.255l-24.548.2a1.7,1.7,0,0,0-1.685,1.677l-.032,12.407c.018.98.808,2.227,1.788,2.236l24.508-.151c2.541-.013,10.238-5.762,13.569-8.291a1.175,1.175,0,0,0-.208-2Z" transform="translate(-18195.451 8792.241)" fill="none" stroke="#0e3b2e" stroke-linecap="round" stroke-linejoin="round" stroke-width="2.5"/>
  </g>
</svg>
