<svg xmlns="http://www.w3.org/2000/svg" width="219.983" height="119.076" viewBox="0 0 219.983 119.076">
  <g id="Group_5184" data-name="Group 5184" transform="translate(1.251 1.271)">
    <path id="Path_47790" data-name="Path 47790" d="M877.089,240.377v-60.7a4.432,4.432,0,0,1,4.432-4.432" transform="translate(-877.09 -132.093)" fill="none" stroke="#0e3b2e" stroke-linecap="round" stroke-linejoin="round" stroke-width="2.5"/>
    <path id="Path_47791" data-name="Path 47791" d="M885.987,175.24h41.926a4.432,4.432,0,0,1,4.432,4.432v64.544a4.432,4.432,0,0,1-4.432,4.432H881.938c-1.778,0-4.014-.523-4.019-3.859" transform="translate(-877.505 -132.093)" fill="none" stroke="#0e3b2e" stroke-linecap="round" stroke-linejoin="round" stroke-width="2.5"/>
    <path id="Path_47792" data-name="Path 47792" d="M913.3,216.006s3.471,5.727,5.318,8.391a.691.691,0,0,0,1.065.085c4.955-5.07,19.431-20.8,24.387-26.852" transform="translate(-895.267 -143.333)" fill="none" stroke="#0e3b2e" stroke-linecap="round" stroke-linejoin="round" stroke-width="2.5"/>
    <path id="Path_47793" data-name="Path 47793" d="M919.8,211.344c-15.253-7.893-30.7,10.537-20.786,23.306,8.75,13.54,31.408,4.691,29.237-11.339" transform="translate(-886.522 -149.263)" fill="none" stroke="#0e3b2e" stroke-linecap="round" stroke-linejoin="round" stroke-width="2.5"/>
    <line id="Line_743" data-name="Line 743" x2="0.244" y2="34.157" transform="translate(101.132 37.943)" fill="none" stroke="#0e3b2e" stroke-linecap="round" stroke-linejoin="round" stroke-width="2.5"/>
    <path id="Path_47794" data-name="Path 47794" d="M1079.279,149.31l-.03-2.3a2.667,2.667,0,0,1,2.669-2.7l33.091.04" transform="translate(-978.576 -116.566)" fill="none" stroke="#0e3b2e" stroke-linecap="round" stroke-linejoin="round" stroke-width="2.5"/>
    <line id="Line_744" data-name="Line 744" y1="0.284" x2="28.639" transform="translate(111.519 41.773)" fill="none" stroke="#0e3b2e" stroke-linecap="round" stroke-linejoin="round" stroke-width="2.5"/>
    <line id="Line_745" data-name="Line 745" y1="0.289" x2="24.093" transform="translate(115.976 51.702)" fill="none" stroke="#0e3b2e" stroke-linecap="round" stroke-linejoin="round" stroke-width="2.5"/>
    <line id="Line_746" data-name="Line 746" y1="0.284" x2="20.726" transform="translate(115.458 69.839)" fill="none" stroke="#0e3b2e" stroke-linecap="round" stroke-linejoin="round" stroke-width="2.5"/>
    <path id="Path_47795" data-name="Path 47795" d="M1112.681,273.11a9.538,9.538,0,0,1-4.323,2.978,20.706,20.706,0,0,0-4.77,2.311,3.755,3.755,0,0,0-1.141,1.27,4.859,4.859,0,0,0-.348,2.161,2.547,2.547,0,0,0,.348,1.613c.538.687,1.579.632,2.44.513q3.242-.456,6.489-.906" transform="translate(-990.047 -181.225)" fill="none" stroke="#0e3b2e" stroke-linecap="round" stroke-linejoin="round" stroke-width="2.5"/>
    <path id="Path_47796" data-name="Path 47796" d="M1134.629,245.417c6.27-5.393,11.3-12.345,18.47-16.464a28.992,28.992,0,0,1,14.945-3.83" transform="translate(-1006.378 -157.132)" fill="none" stroke="#0e3b2e" stroke-linecap="round" stroke-linejoin="round" stroke-width="2.5"/>
    <path id="Path_47797" data-name="Path 47797" d="M1201.456,205.56c-.309,2.082-.543,4.178-.707,6.275" transform="translate(-1039.57 -147.315)" fill="none" stroke="#0e3b2e" stroke-linecap="round" stroke-linejoin="round" stroke-width="2.5"/>
    <path id="Path_47798" data-name="Path 47798" d="M1192.76,237.78a210.764,210.764,0,0,1-14.676,19.451,39.142,39.142,0,0,1-8.819,8.272c-3.994,2.48-8.66,3.585-13.242,4.646q-5.581,1.3-11.155,2.595" transform="translate(-1011.518 -163.488)" fill="none" stroke="#0e3b2e" stroke-linecap="round" stroke-linejoin="round" stroke-width="2.5"/>
    <path id="Path_47799" data-name="Path 47799" d="M1087.9,294.12a28.706,28.706,0,0,0-9,2.8c-2.744,1.559-5.06,4.188-5.473,7.315a1.418,1.418,0,0,0,.164,1.061,1.576,1.576,0,0,0,1.439.344q12.878-1.3,25.761-2.595" transform="translate(-975.639 -191.772)" fill="none" stroke="#0e3b2e" stroke-linecap="round" stroke-linejoin="round" stroke-width="2.5"/>
    <path id="Path_47800" data-name="Path 47800" d="M1131.059,282.353c4.288-.139,7.674-3.471,11.414-5.563a21.231,21.231,0,0,1,15.687-1.957" transform="translate(-1004.585 -181.738)" fill="none" stroke="#0e3b2e" stroke-linecap="round" stroke-linejoin="round" stroke-width="2.5"/>
    <path id="Path_47801" data-name="Path 47801" d="M1211.991,180.08a87.131,87.131,0,0,0-6.953,6.19,3.578,3.578,0,0,0-1.394,2.56" transform="translate(-1041.023 -134.523)" fill="none" stroke="#0e3b2e" stroke-linecap="round" stroke-linejoin="round" stroke-width="2.5"/>
    <path id="Path_47802" data-name="Path 47802" d="M1208.568,203.73a13.074,13.074,0,0,1,8.64.986,20.633,20.633,0,0,1,6.887,5.473" transform="translate(-1043.496 -146.222)" fill="none" stroke="#0e3b2e" stroke-linecap="round" stroke-linejoin="round" stroke-width="2.5"/>
    <path id="Path_47803" data-name="Path 47803" d="M1241.088,222.56a15.4,15.4,0,0,1,2.688,3.361,8.977,8.977,0,0,1,1.434,5.045,2.958,2.958,0,0,1-1.1,2.336,3.118,3.118,0,0,1-1.414.438,7.748,7.748,0,0,1-4.482-.9" transform="translate(-1058.38 -155.849)" fill="none" stroke="#0e3b2e" stroke-linecap="round" stroke-linejoin="round" stroke-width="2.5"/>
    <path id="Path_47804" data-name="Path 47804" d="M1224.019,181.23c3.112-.732,8.734.906,11.423,2.634a35.373,35.373,0,0,1,9.95,9.631,5.53,5.53,0,0,1,1.29,3.416,6,6,0,0,1-.761,2.2q-2.151,4.28-4.3,8.56" transform="translate(-1051.253 -135.011)" fill="none" stroke="#0e3b2e" stroke-linecap="round" stroke-linejoin="round" stroke-width="2.5"/>
    <path id="Path_47805" data-name="Path 47805" d="M1268.828,188.444a67.193,67.193,0,0,1,21.936-21.244" transform="translate(-1073.747 -128.057)" fill="none" stroke="#0e3b2e" stroke-linecap="round" stroke-linejoin="round" stroke-width="2.5"/>
    <path id="Path_47806" data-name="Path 47806" d="M1227.869,156.873a36.153,36.153,0,0,1,12.115-23.993" transform="translate(-1053.185 -110.828)" fill="none" stroke="#0e3b2e" stroke-linecap="round" stroke-linejoin="round" stroke-width="2.5"/>
    <path id="Path_47807" data-name="Path 47807" d="M937.179,122.536c.428-28.131,48.026-46.423,72.347-23.7" transform="translate(-907.255 -88.597)" fill="none" stroke="#0e3b2e" stroke-linecap="round" stroke-linejoin="round" stroke-width="2.5"/>
    <path id="Path_47808" data-name="Path 47808" d="M1000.378,293.255c11.494,4.661,27.4,3.864,36.069-5" transform="translate(-938.983 -188.826)" fill="none" stroke="#0e3b2e" stroke-linecap="round" stroke-linejoin="round" stroke-width="2.5"/>
    <path id="Path_47809" data-name="Path 47809" d="M1082.556,201.387H1068.8a4.432,4.432,0,0,1-4.432-4.432V131.982a4.432,4.432,0,0,1,4.432-4.432h45.975a4.432,4.432,0,0,1,4.432,4.432V172.6" transform="translate(-971.107 -108.152)" fill="none" stroke="#0e3b2e" stroke-linecap="round" stroke-linejoin="round" stroke-width="2.5"/>
  </g>
</svg>
