<svg xmlns="http://www.w3.org/2000/svg" width="184.649" height="130.902" viewBox="0 0 184.649 130.902">
  <g id="Group_5183" data-name="Group 5183" transform="translate(1.403 1.26)">
    <line id="Line_739" data-name="Line 739" y1="0.242" x2="91.545" transform="translate(25.027 127.183)" fill="none" stroke="#0e3b2e" stroke-linecap="round" stroke-linejoin="round" stroke-width="2.5"/>
    <line id="Line_740" data-name="Line 740" x2="0.074" y2="33.726" transform="translate(124.797 83.463)" fill="none" stroke="#0e3b2e" stroke-linecap="round" stroke-linejoin="round" stroke-width="2.5"/>
    <line id="Line_741" data-name="Line 741" y1="0.134" x2="137.213" transform="translate(8.289 72.949)" fill="none" stroke="#0e3b2e" stroke-linecap="round" stroke-linejoin="round" stroke-width="2.5"/>
    <path id="Path_47781" data-name="Path 47781" d="M411.394,218.88a6.334,6.334,0,0,0-3.69,2.235,3.4,3.4,0,0,0-.03,4.085A5.211,5.211,0,0,0,411,226.56" transform="translate(-407.006 -145.92)" fill="none" stroke="#0e3b2e" stroke-linecap="round" stroke-linejoin="round" stroke-width="2.5"/>
    <path id="Path_47782" data-name="Path 47782" d="M589.739,191.229c2.487-5.5,5.529-11.181,10.765-14.193a1.217,1.217,0,0,1,.732-.223,1.2,1.2,0,0,1,.469.218c3.724,2.478,6.681,5.989,10.489,8.328a1.1,1.1,0,0,0,.713.227,1.118,1.118,0,0,0,.583-.4l6.35-6.809" transform="translate(-499.376 -124.655)" fill="none" stroke="#0e3b2e" stroke-linecap="round" stroke-linejoin="round" stroke-width="2.5"/>
    <path id="Path_47783" data-name="Path 47783" d="M660.658,171.21a20.154,20.154,0,0,1,13.555,8.263,23.838,23.838,0,0,1,4.416,15.3" transform="translate(-535.224 -121.824)" fill="none" stroke="#0e3b2e" stroke-linecap="round" stroke-linejoin="round" stroke-width="2.5"/>
    <path id="Path_47784" data-name="Path 47784" d="M504.09,191.229c-2.488-5.5-5.529-11.181-10.766-14.193a1.216,1.216,0,0,0-.732-.223,1.2,1.2,0,0,0-.47.218c-3.724,2.478-6.681,5.989-10.489,8.328a1.1,1.1,0,0,1-.712.227,1.118,1.118,0,0,1-.584-.4l-6.35-6.809" transform="translate(-440.867 -124.655)" fill="none" stroke="#0e3b2e" stroke-linecap="round" stroke-linejoin="round" stroke-width="2.5"/>
    <path id="Path_47785" data-name="Path 47785" d="M445.516,171.21a20.154,20.154,0,0,0-13.555,8.263,23.838,23.838,0,0,0-4.416,15.3" transform="translate(-417.368 -121.824)" fill="none" stroke="#0e3b2e" stroke-linecap="round" stroke-linejoin="round" stroke-width="2.5"/>
    <circle id="Ellipse_209" data-name="Ellipse 209" cx="11.567" cy="11.567" r="11.567" transform="translate(26.735 43.881) rotate(-67.5)" fill="none" stroke="#0e3b2e" stroke-linecap="round" stroke-linejoin="round" stroke-width="2.5"/>
    <circle id="Ellipse_210" data-name="Ellipse 210" cx="11.567" cy="11.567" r="11.567" transform="translate(99.111 44.841) rotate(-76.717)" fill="none" stroke="#0e3b2e" stroke-linecap="round" stroke-linejoin="round" stroke-width="2.5"/>
    <path id="Path_47786" data-name="Path 47786" d="M552.654,100.31l-15.839.193a1.845,1.845,0,0,1-2.082-1.459,1.575,1.575,0,0,0-1.607-.86c-1.642.208-4.787.574-7.036,1.043a1,1,0,0,1-1.059-1.5c2.107-2.789,4.545-6.256,4.545-6.256m31.664,8.585,2.6-.069a2.706,2.706,0,0,0,1.815-1.31,4.1,4.1,0,0,0,.766-2.344c.075-3.729.089-23.044.089-23.044a1.542,1.542,0,0,0-1.825-1.874c-7.853-.193-28.929.059-28.929.059m-2.606.03c-2.715-.074-3.027.974-3.1,2.562-.183,3.946-.441,17.407-.441,17.407" transform="translate(-466.58 -71.343)" fill="none" stroke="#0e3b2e" stroke-linecap="round" stroke-linejoin="round" stroke-width="2.5"/>
    <circle id="Ellipse_211" data-name="Ellipse 211" cx="8.669" cy="8.669" r="8.669" transform="translate(70.968 19.744) rotate(-70.67)" fill="none" stroke="#0e3b2e" stroke-linecap="round" stroke-linejoin="round" stroke-width="2.5"/>
    <path id="Path_47787" data-name="Path 47787" d="M683.772,117.39q-2.871.7-5.771,1.271a.824.824,0,0,1-.752-1.38l4.14-4.287a1.767,1.767,0,0,0,.405-.549,1.8,1.8,0,0,0,.085-.653l.014-20.127c0-1.671,2.087-1.592,2.112-1.543m41.3,6.078-.025-3.976A2.369,2.369,0,0,0,722.9,89.87c-1.409.01-36.069.109-36.069.109m38.493,8.041.08,11.814m-37,7.863s25.379-.361,33.859-.371c3.832,0,3.214-1.632,3.2-5.108m-17.348-4.223h9.045a.558.558,0,0,0,.559-.559V98.39a.558.558,0,0,0-.559-.559h-9.045a.558.558,0,0,0-.559.559v9.045A.565.565,0,0,0,708.107,107.994Zm-13.243,1.4a6.4,6.4,0,1,0-6.4-6.4A6.405,6.405,0,0,0,694.864,109.393Z" transform="translate(-543.492 -80.708)" fill="none" stroke="#0e3b2e" stroke-linecap="round" stroke-linejoin="round" stroke-width="2.5"/>
    <line id="Line_742" data-name="Line 742" y1="0.134" x2="136.798" transform="translate(9.115 80.798)" fill="none" stroke="#0e3b2e" stroke-linecap="round" stroke-linejoin="round" stroke-width="2.5"/>
    <path id="Path_47788" data-name="Path 47788" d="M445.324,249.39q-.682,17.046-.613,34.117c.01,2.245.346,4.99,2.423,5.845" transform="translate(-426.063 -161.342)" fill="none" stroke="#0e3b2e" stroke-linecap="round" stroke-linejoin="round" stroke-width="2.5"/>
    <path id="Path_47789" data-name="Path 47789" d="M655.322,315.13s-.01,3.615-.188,4.51a2.779,2.779,0,0,1-1.568,2.1,9.344,9.344,0,0,1-2.008.277" transform="translate(-530.623 -194.573)" fill="none" stroke="#0e3b2e" stroke-linecap="round" stroke-linejoin="round" stroke-width="2.5"/>
  </g>
</svg>
