<svg xmlns="http://www.w3.org/2000/svg" xmlns:xlink="http://www.w3.org/1999/xlink" width="140.612" height="64.094" viewBox="0 0 140.612 64.094">
  <defs>
    <clipPath id="clip-path">
      <rect id="Rectangle_22240" data-name="Rectangle 22240" width="140.612" height="64.094" transform="translate(0 0)" fill="#0e3b2e"/>
    </clipPath>
  </defs>
  <g id="Group_5149" data-name="Group 5149" transform="translate(0 -0.004)">
    <g id="Group_5148" data-name="Group 5148" transform="translate(0 0.004)" clip-path="url(#clip-path)">
      <path id="Path_47698" data-name="Path 47698" d="M116.271.065H93.388l.033,10.5A30.069,30.069,0,0,0,70.833.011H37.389L0,63.994H25.156l7.727-13.523,14.684-.017V64.061l22.762.037A32.73,32.73,0,0,0,93.339,53.44L93.322,64h21.452l.017-13.469h2.22c8.7.666,23.668-8.33,23.6-25.755C140.566,10.326,129.52.065,116.271.065M114.824,42.8l-8.371.021-.017,13.494-5.3.012V42.791H91.772S86.7,55.8,69.721,56.264l-13.8.07v-13.6l-27.616,0-8.078,13.58H13.911L41.824,8.346H69.605c17.5.1,23.37,14.862,24.159,20.364h7.379l.008-20.5,14.242,0c10.8.525,17.1,9.57,17.289,15.685C132.985,33.535,126.225,42.357,114.824,42.8Z" transform="translate(0 -0.004)" fill="#0e3b2e"/>
      <path id="Path_47699" data-name="Path 47699" d="M594.1,243.609l.008,7.933h7.131c14.048-.037,14.056,20.951-.376,20.91h-6.759V280.4h6.809c10.922.058,19.463-7.4,19.447-19.054-.008-7.247-6.185-17.739-18.177-17.739Zm45.371.058v7.954h7.71c4.973.244,5.073,7.437.05,7.408h-7.718v8.028s6.685.041,7.3,0c6.5-.021,12.328-4.518,12.328-12.154,0-7.561-5.982-11.232-12.328-11.232C647.92,243.667,639.474,243.667,639.474,243.667Zm-58.828-.157,8-.017v23.6H564.474L569.117,259l11.509.046Zm78.547,43.176a3.818,3.818,0,0,1,0,5.378,3.763,3.763,0,0,1-5.358,0,3.828,3.828,0,0,1,.008-5.378,3.753,3.753,0,0,1,5.349,0Zm.434-.43a4.421,4.421,0,1,0,1.29,3.109,4.189,4.189,0,0,0-1.29-3.109m-2.46,2.906a2.233,2.233,0,0,1-.806.108h-.769v-1.753h.719c.947,0,1.348.178,1.348.889a.735.735,0,0,1-.492.757m-2.431,2.609h.856v-1.91h.67a2.184,2.184,0,0,1,.947.157,1.2,1.2,0,0,1,.451,1.116v.384l.025.157.008.054a.081.081,0,0,1,.008.045h.806l-.033-.058a.961.961,0,0,1-.042-.252,2.781,2.781,0,0,1-.016-.36v-.36a1.265,1.265,0,0,0-1.1-1.228c.856-.12,1.178-.517,1.178-1.186a1.2,1.2,0,0,0-.752-1.22,3.666,3.666,0,0,0-1.315-.178h-1.7v4.837Z" transform="translate(-532.724 -229.798)" fill="#0e3b2e"/>
    </g>
  </g>
</svg>
