<svg id="Group_5165" data-name="Group 5165" xmlns="http://www.w3.org/2000/svg" xmlns:xlink="http://www.w3.org/1999/xlink" width="148.501" height="46.327" viewBox="0 0 148.501 46.327">
  <defs>
    <clipPath id="clip-path">
      <rect id="Rectangle_22250" data-name="Rectangle 22250" width="148.501" height="46.327" fill="#0e3b2e"/>
    </clipPath>
    <clipPath id="clip-path-3">
      <path id="Path_47721" data-name="Path 47721" d="M66.18,28.231l1.607,3.659S68.67,34,70.045,34.035L84.781,1.459A5.7,5.7,0,0,0,77.2,3.636Z" transform="translate(-66.18 -0.804)" fill="#0e3b2e"/>
    </clipPath>
    <clipPath id="clip-path-4">
      <path id="Path_47723" data-name="Path 47723" d="M319.336,1.193A5.7,5.7,0,0,0,311.76,3.37L300.924,27.544l-.189.421.009.019c-1.46,3.222-8.258,18.228-8.182,18.252,5.948,1.945,7.752-2.678,7.752-2.678l4.393-10.026Z" transform="translate(-292.561 -0.538)" fill="#0e3b2e"/>
    </clipPath>
    <clipPath id="clip-path-5">
      <path id="Path_47725" data-name="Path 47725" d="M435.775,6.607l1.607-3.659S438.265.838,439.64.8l14.736,32.576A5.7,5.7,0,0,1,446.8,31.2Z" transform="translate(-435.775 -0.803)" fill="#0e3b2e"/>
    </clipPath>
    <clipPath id="clip-path-6">
      <path id="Path_47727" data-name="Path 47727" d="M168.05,4.685c-7.716,0-13.972,6.953-13.982,15.533a11.109,11.109,0,1,1,0,.04c.01,8.58,6.266,15.533,13.982,15.533s13.982-6.963,13.982-15.553S175.772,4.685,168.05,4.685" transform="translate(-154.068 -4.685)" fill="#0e3b2e"/>
    </clipPath>
  </defs>
  <g id="Group_5164" data-name="Group 5164" clip-path="url(#clip-path)">
    <g id="Group_5163" data-name="Group 5163" transform="translate(0 0)">
      <g id="Group_5162" data-name="Group 5162" clip-path="url(#clip-path)">
        <path id="Path_47720" data-name="Path 47720" d="M150.252,0a16.856,16.856,0,1,0,16.856,16.856A16.855,16.855,0,0,0,150.252,0m0,27.965a11.109,11.109,0,1,1,11.109-11.109,11.109,11.109,0,0,1-11.109,11.109" transform="translate(-96.312 0)" fill="#0e3b2e"/>
        <g id="Group_5155" data-name="Group 5155" transform="translate(18.398 0.223)">
          <g id="Group_5154" data-name="Group 5154" clip-path="url(#clip-path-3)">
            <rect id="Rectangle_22243" data-name="Rectangle 22243" width="39.594" height="31.37" transform="matrix(0.411, -0.911, 0.911, 0.411, -13.14, 27.301)" fill="#0e3b2e"/>
          </g>
        </g>
        <path id="Path_47722" data-name="Path 47722" d="M.116,2.1s-.371-.614.215-.761c0,0,5.4-1.592,7.381,2.895L20.154,32.322s1.02,1.917,2.153,1.888h-4.85a5.848,5.848,0,0,1-4.631-3.689Z" transform="translate(0 -0.765)" fill="#0e3b2e"/>
        <g id="Group_5157" data-name="Group 5157" transform="translate(81.332 0.149)">
          <g id="Group_5156" data-name="Group 5156" clip-path="url(#clip-path-4)">
            <rect id="Rectangle_22244" data-name="Rectangle 22244" width="56.106" height="44.666" transform="translate(-18.472 39.441) rotate(-65.966)" fill="#0e3b2e"/>
          </g>
        </g>
        <path id="Path_47724" data-name="Path 47724" d="M255.9,1.83s-.371-.615.215-.761c0,0,5.4-1.592,7.381,2.895l12.442,28.093s1.02,1.917,2.153,1.888h-4.85a5.848,5.848,0,0,1-4.631-3.689Z" transform="translate(-184.676 -0.573)" fill="#0e3b2e"/>
        <g id="Group_5159" data-name="Group 5159" transform="translate(121.146 0.223)">
          <g id="Group_5158" data-name="Group 5158" clip-path="url(#clip-path-5)">
            <rect id="Rectangle_22245" data-name="Rectangle 22245" width="31.37" height="39.594" transform="translate(-13.14 5.93) rotate(-24.29)" fill="#0e3b2e"/>
          </g>
        </g>
        <path id="Path_47726" data-name="Path 47726" d="M393.162,25.667l-1.286-2.98a4.238,4.238,0,0,0-4.047-2.353h-5.877l7.8-17.608S390.769.809,391.9.838h-4.85a5.848,5.848,0,0,0-4.631,3.689L369.711,32.953s-.371.614.214.761c0,0,5.4,1.592,7.381-2.895l2.546-5.747h11.27a2.857,2.857,0,0,1,2.039.6" transform="translate(-266.847 -0.605)" fill="#0e3b2e"/>
        <g id="Group_5161" data-name="Group 5161" transform="translate(42.831 1.302)">
          <g id="Group_5160" data-name="Group 5160" clip-path="url(#clip-path-6)">
            <rect id="Rectangle_22246" data-name="Rectangle 22246" width="27.964" height="31.106" transform="translate(0 0)" fill="#0e3b2e"/>
          </g>
        </g>
        <path id="Path_47728" data-name="Path 47728" d="M347.479,150.508v-5.95h4.079v1.007H348.68v1.408h2.484v1.006H348.68v2.529Z" transform="translate(-250.879 -104.371)" fill="#0e3b2e"/>
        <rect id="Rectangle_22247" data-name="Rectangle 22247" width="1.201" height="5.95" transform="translate(102.63 40.188)" fill="#0e3b2e"/>
        <path id="Path_47729" data-name="Path 47729" d="M381.239,150.508v-5.95h1.169l2.435,3.973v-3.973h1.116v5.95h-1.206l-2.4-3.88v3.88Z" transform="translate(-275.254 -104.371)" fill="#0e3b2e"/>
        <path id="Path_47730" data-name="Path 47730" d="M410.17,150.508h-1.307l-.52-1.352h-2.378l-.491,1.352H404.2l2.317-5.95h1.27Zm-2.212-2.354-.82-2.208-.8,2.208Z" transform="translate(-291.832 -104.371)" fill="#0e3b2e"/>
        <path id="Path_47731" data-name="Path 47731" d="M431.6,150.508v-5.95h1.169l2.435,3.973v-3.973h1.116v5.95h-1.206l-2.4-3.88v3.88Z" transform="translate(-311.614 -104.371)" fill="#0e3b2e"/>
        <path id="Path_47732" data-name="Path 47732" d="M459.994,148.057l1.165.369a2.612,2.612,0,0,1-.891,1.447,2.8,2.8,0,0,1-3.529-.337,3.1,3.1,0,0,1-.763-2.214,3.253,3.253,0,0,1,.767-2.307,2.63,2.63,0,0,1,2.017-.822,2.474,2.474,0,0,1,1.773.646,2.346,2.346,0,0,1,.609,1.1l-1.189.284a1.229,1.229,0,0,0-1.254-1,1.354,1.354,0,0,0-1.073.475,2.328,2.328,0,0,0-.412,1.538,2.5,2.5,0,0,0,.406,1.607,1.318,1.318,0,0,0,1.055.479,1.2,1.2,0,0,0,.824-.3,1.768,1.768,0,0,0,.5-.958" transform="translate(-329.214 -104.107)" fill="#0e3b2e"/>
        <rect id="Rectangle_22248" data-name="Rectangle 22248" width="1.201" height="5.95" transform="translate(133.937 40.188)" fill="#0e3b2e"/>
        <path id="Path_47733" data-name="Path 47733" d="M497.605,150.508H496.3l-.52-1.352H493.4l-.491,1.352h-1.274l2.317-5.95h1.27Zm-2.212-2.354-.82-2.208-.8,2.208Z" transform="translate(-354.96 -104.371)" fill="#0e3b2e"/>
        <path id="Path_47734" data-name="Path 47734" d="M519.107,150.635v-5.9h1.2v4.9H523.3v1Z" transform="translate(-374.794 -104.497)" fill="#0e3b2e"/>
        <path id="Path_47735" data-name="Path 47735" d="M514.349,101.929a2.727,2.727,0,0,1,1.308.344,2.44,2.44,0,0,1,.994.984,2.672,2.672,0,0,1,.005,2.657,2.472,2.472,0,0,1-.984.986,2.674,2.674,0,0,1-2.648,0,2.484,2.484,0,0,1-.986-.986,2.663,2.663,0,0,1,.005-2.657,2.452,2.452,0,0,1,1-.984,2.726,2.726,0,0,1,1.308-.344m0,.441a2.262,2.262,0,0,0-1.091.287,2.059,2.059,0,0,0-.83.821,2.211,2.211,0,0,0-.005,2.215,2.085,2.085,0,0,0,.823.822,2.215,2.215,0,0,0,2.208,0,2.076,2.076,0,0,0,.821-.822,2.223,2.223,0,0,0-.005-2.215,2.045,2.045,0,0,0-.83-.821,2.266,2.266,0,0,0-1.089-.287m-1.167,3.692V103.2h.984a2.406,2.406,0,0,1,.73.079.707.707,0,0,1,.36.277.734.734,0,0,1,.134.42.762.762,0,0,1-.224.546.885.885,0,0,1-.594.261.787.787,0,0,1,.243.152,3.257,3.257,0,0,1,.423.568l.349.56h-.564l-.254-.451a2.313,2.313,0,0,0-.483-.667.6.6,0,0,0-.37-.1h-.272v1.216Zm.462-1.611h.561a.9.9,0,0,0,.548-.12.391.391,0,0,0,.147-.317.386.386,0,0,0-.071-.227.426.426,0,0,0-.2-.15,1.455,1.455,0,0,0-.463-.049h-.525Z" transform="translate(-369.437 -73.593)" fill="#0e3b2e"/>
      </g>
    </g>
  </g>
</svg>
