<svg xmlns="http://www.w3.org/2000/svg" width="201.419" height="64.184" viewBox="0 0 201.419 64.184">
  <g id="t-rowe-price-vector-logo" transform="translate(-20.5 -226.1)">
    <path id="Path_47632" data-name="Path 47632" d="M474.353,264.167l-.2-.436c-.839-2.283-1.678-5.136-1.309-6.949,1.141-4.465-.134-9.869,3.39-13.327a3.5,3.5,0,0,0,1.242-3.424c-.7-2.652-4.733-.6-5.3-3.793l-.067-.269a5.184,5.184,0,0,0-2.753,3.558c-.2,1.376-.134,2.451,1.041,2.417a1.133,1.133,0,0,0,1.242-.94c.134-.671-.2-1.611.638-1.611a1.653,1.653,0,0,1,1.511,1.208,4.349,4.349,0,0,1-.638,4.1,5.026,5.026,0,0,1-4.633,1.712,6.3,6.3,0,0,1-4.431-3.592,13.193,13.193,0,0,1,1.208-11.749,11.641,11.641,0,0,1,6.244-4.431c-.5.5-1.443.906-1.041,1.813l.2.2c1.208-.738,2.148-2.014,3.458-2.484a11.138,11.138,0,0,1,1.175-.067c-.806.739-2.484,1.242-2.249,2.551.034.2.269.269.269.269l3.592-2.451a3.688,3.688,0,0,1,1.208.1c-1.007.772-2.686,1.443-2.853,2.686a.446.446,0,0,0,.269.369c.2-.1.3-.134.5-.235l3.424-2.249a5.126,5.126,0,0,1,1.041.269c-1.041.839-3.424,1.746-3.223,2.954.034.2.269.269.269.269l4.162-2.451a1.866,1.866,0,0,1,.873.369c-1.141,1.074-3.189,1.443-3.122,3.021.067.235.168.3.537.369a26.98,26.98,0,0,1,3.995-2.585c.6.235,1.309.974,1.88.3a14.431,14.431,0,0,1,4.935,2.182,1.082,1.082,0,0,0,.1-1.141,7.517,7.517,0,0,0-4.162-1.88,1.382,1.382,0,0,1,.47-.571,11.087,11.087,0,0,1,5.2,1.981.818.818,0,0,0,.1-.873c-.974-1.141-2.451-1.477-3.793-1.981a1.886,1.886,0,0,1,.873-.336,11.522,11.522,0,0,1,2.35.839c.638.336,1.276.638,1.981,1.007.3-.2.2-.671.1-.94a7.218,7.218,0,0,0-2.585-1.41,4.726,4.726,0,0,1,4.263,1.981c1.779,3.827.134,8.359,1.007,12.588a.886.886,0,0,0,1.141.47c1.511-.571.369-3.424,2.451-2.954,1.041.772.806,2.484.6,3.592a4.609,4.609,0,0,1-3.323,3.223,4.892,4.892,0,0,1-3.793-.638c-1.746-1.376-2.048-3.256-2.417-5.17-.2-.4-.873-.5-1.074-.235.369,2.048,1.443,4.062,2.081,6.143,3.088,7.049,2.115,16.549-1.343,23.163a33.855,33.855,0,0,1-1.846,2.887c1.343-.168,3.29-2.249,4.431-3.726.671.4.4,1.175.638,2.182,1.141-1.141,1.477-3.189,1.511-4.9a66.772,66.772,0,0,0-.47-12.756c2.887,4.062,4.1,9.466,3.726,15.072a4.489,4.489,0,0,0,1.846-2.82c.537-2.954-.772-5.4-1.88-7.822,4.263,2.92,8.9,7.251,10.071,12.387.168.7.168,1.343.3,2.115a4.318,4.318,0,0,0,.369-1.309,10.762,10.762,0,0,0-3.525-8.627c4.465,1.913,9.97,6.009,9.769,11.581v1.712H475.427c.168-4.062-2.719-2.182-3.256-7.587a15.765,15.765,0,0,1,.2-4.364,4.054,4.054,0,0,0,1.981,1.443m14.367-29.373c.537.6.537,1.611,1.309,1.511a1.444,1.444,0,0,0,.772-1.242,1.365,1.365,0,0,0-.369-.839c-1.544-1.645-3.357-3.088-5.572-3.323-1.309,1.007-3.625,1.947-3.491,3.961-.034.369.571.94,1.041,1.041,2.719.7,1.242-1.645,3.189-1.88.168-.47-.269-1.007,0-1.511.2-.2.436-.3.671.134.436,1.074.369,1.242.571,1.242a2.941,2.941,0,0,1,1.88.906m-14.837-.3c-.369.134-.168.436-.168.638a2.244,2.244,0,0,0,2.921,1.041l-.134-.269a3.031,3.031,0,0,0-2.618-1.41m12.253.168c-2.048,1.477,1.376,2.753.6,4.8-.3.47-.6.336-1.041.47a3.01,3.01,0,0,0-1.712,2.954c0,.369.1.739.369.839a15.4,15.4,0,0,0,2.652.067c.638-.034,1.208.067,1.074-.974-.3-.973-1.376-.2-1.981-.3a.783.783,0,0,1-.3-.94c.671-1.242,2.249-.6,3.693-.47.4.134.436.571.4.94-.1.7-.4.235-.671.369-.2.034-.369,1.376-.269,1.41.3.235.5.168.974.2.537-.067.839-2.283.369-2.719-2.249-1.276-2.081-3.726-2.585-5.774-.2-.571-.94-1.208-1.578-.873m-6.647.7a.913.913,0,0,0-.739.571c-.436,1.343.4,2.216,1.108,3.122a1.663,1.663,0,0,0,1.779.638,2.542,2.542,0,0,0,1.074-1.712c-1.074.1-2.484.336-3.223-.638a.812.812,0,0,1,.269-1.141,1.864,1.864,0,0,1,1.41.168l-.2-.336a1.354,1.354,0,0,0-1.477-.671M491,236.674c-.2.235-.134.4.1.5a1.837,1.837,0,0,0,1.041-.134c.5-.2,1.544-.436,1.108-1.208-.638-.571-1.611.269-2.249.839m-6.143,7.956v.168c.7,1.041,2.182.974,3.323.94.436-.168,1.108-.436,1.041-1.007-1.242-.638-2.92-.067-4.364-.1" transform="translate(-294.099)" fill="#0e3b2e"/>
    <path id="Path_47633" data-name="Path 47633" d="M308.227,309.394a7.018,7.018,0,0,0-.235-5.807c-1.007-1.779-3.256-1.175-4.8-1.309a1.08,1.08,0,0,0-.873.772v19.537c.336.839,1.41.537,2.081.7a6.843,6.843,0,0,1,.436,1.141H294.9c.369-.839.3-.638.5-1.108.772-.168,2.014.2,2.115-1.074l-.034-19.235c-.134-.974-1.108-.873-1.846-.974a5.383,5.383,0,0,1-.5-1.343h11.011c4.062,0,4.633.571,5.438,1.242a5.246,5.246,0,0,1,1.813,3.894,7.376,7.376,0,0,1-.436,3.223c1.108-.235,1.544-.47,2.383-.638-.034.873.067,1.981,0,2.853,1.376-1.678,3.223-3.088,5.4-2.753-.235,1.645-.47,3.558-.671,5.27-.537.034-.638-.034-1.141,0a2.227,2.227,0,0,0-1.376-2.081,2.046,2.046,0,0,0-2.216,1.242v9.7c.2.806,1.208.671,1.813.873a8.351,8.351,0,0,1,.436,1.074h-8.8a2.846,2.846,0,0,0,.47-1.007c.638-.235,1.712-.3,1.779-1.175l-.034-10.473a9.327,9.327,0,0,1-4.666,1.41,10,10,0,0,1-2.417-.235,6.4,6.4,0,0,1-.772-1.276h0c2.081,0,4.2-.537,5.069-2.451" transform="translate(-182.287 -49.558)" fill="#0e3b2e"/>
    <path id="Path_47634" data-name="Path 47634" d="M389.313,333.335a9.087,9.087,0,0,1,1.98-8.694c2.652-2.585,7.452-2.988,10.742-1.678-.269,1.712-.5,3.323-.806,5.035-.336,0-.739-.034-1.175,0-.369-1.645-.4-3.558-2.35-4.3-1.477-.436-2.618.738-3.256,1.846a8.6,8.6,0,0,0,1.208,9.735,4.449,4.449,0,0,0,4.163,1.376,6.94,6.94,0,0,0,2.585-.873c.067.336.168.671.269,1.242-2.048,2.048-5,2.35-7.822,1.88-2.652-.537-4.935-3.256-5.539-5.572" transform="translate(-244.776 -63.864)" fill="#0e3b2e"/>
    <path id="Path_47635" data-name="Path 47635" d="M374.21,337.6c.2.638,1.208.537,1.846.7a3.86,3.86,0,0,1,.5,1.108l-8.56.067c.336-.571.336-.6.571-1.007.6-.3,1.443-.336,1.578-1.141V323.938c1.343-.235,2.753-.4,4.129-.638Z" transform="translate(-230.848 -64.571)" fill="#0e3b2e"/>
    <path id="Path_47636" data-name="Path 47636" d="M192.91,340.527a14.189,14.189,0,0,1-.47-1.343l-3.424-12.521c-.269-.839-1.276-.571-1.88-.7-.1-.4-.134-.4-.336-1.074h8.728a9.5,9.5,0,0,0-.269.94c-.369.134-.571.235-.94.369-.772.47-.336,1.41-.134,2.35a31.743,31.743,0,0,0,1.208,4.666,62,62,0,0,0,2.585-8.124v-.1h3.088c.839,2.753,1.846,5.774,2.719,8.526l.336-1.074a39.546,39.546,0,0,0,1.074-6.11c-.3-.4-.839-.369-1.208-.6-.034-.3-.235-.436-.336-.873,2.148-.034,3.928-.034,6.244,0-.168.537-.235.6-.336.906-.671.369-2.081,0-2.115,1.443l-3.558,13.394h-2.551c-1.175-3.021-1.645-6.445-2.988-9.332a80.971,80.971,0,0,0-2.853,9.332c-.906-.034-1.611-.067-2.585-.067" transform="translate(-110.475 -65.584)" fill="#0e3b2e"/>
    <path id="Path_47637" data-name="Path 47637" d="M376.049,311.3a2.249,2.249,0,1,0-2.249-2.249,2.249,2.249,0,0,0,2.249,2.249" transform="translate(-234.701 -53.61)" fill="#0e3b2e"/>
    <path id="Path_47638" data-name="Path 47638" d="M72.416,365.031a2.216,2.216,0,1,0-2.216-2.216,2.213,2.213,0,0,0,2.216,2.216" transform="translate(-33.016 -89.35)" fill="#0e3b2e"/>
    <path id="Path_47639" data-name="Path 47639" d="M146.6,331.792c0-4.633,2.551-8.392,7.822-8.392,5.237,0,7.822,3.76,7.822,8.392s-2.652,8.392-7.822,8.392c-5.136,0-7.822-3.76-7.822-8.392m10.272,5.438a21.155,21.155,0,0,0,.134-10.44,2.638,2.638,0,0,0-2.719-1.846c-2.954.47-2.786,3.693-3.088,5.975-.067,2.719.3,5.438.906,6.546a2.609,2.609,0,0,0,4.767-.235" transform="translate(-83.77 -64.637)" fill="#0e3b2e"/>
    <path id="Path_47640" data-name="Path 47640" d="M256.2,336.274a7.134,7.134,0,0,0,5.136-.369c0,.369.134.739.134,1.141a8.358,8.358,0,0,1-7.519,1.712,7.985,7.985,0,0,1-5.237-5.64c-.6-3.592.134-7.318,3.189-9.567a8.448,8.448,0,0,1,6.512-.973,6.223,6.223,0,0,1,3.592,2.686,9.062,9.062,0,0,1,.974,4.062l-1.477,1.074-8.594-.235a9.543,9.543,0,0,0,.235,2.585,5.126,5.126,0,0,0,3.055,3.525m-3.055-7.62h5.539a5.254,5.254,0,0,0-.974-4.163,2.351,2.351,0,0,0-2.685-.537c-1.678.974-1.846,3.021-1.88,4.7" transform="translate(-151.478 -63.916)" fill="#0e3b2e"/>
    <path id="Path_47641" data-name="Path 47641" d="M101.56,304.487a6.925,6.925,0,0,1,.235,6.042c-1.041,2.014-3.39,1.913-5.371,1.88l.168,1.309c.906.034.94.5,1.276.839,2.417,3.961,3.793,8.023,7.15,11.481,1.645,1.343,4.263,1.343,6.412.839a7.576,7.576,0,0,0-.134-.974,3.813,3.813,0,0,1-2.216-1.611l-6.747-11.279a6.04,6.04,0,0,0,3.928-2.585,6.459,6.459,0,0,0,.839-4.666c-.3-2.081-1.913-4.163-5.975-4.163H88.3c.134.47.269.671.4,1.242.873.034,2.115-.034,2.148.7v19.537c-.235,1.242-1.175.839-2.048,1.074l-.4,1.141h9.7a4.065,4.065,0,0,0-.571-1.175c-.7-.134-1.746.1-2.014-.906v-19.47c.034-.3.067-.4.369-.47,2.182.034,4.733-.235,5.673,1.208" transform="translate(-45.04 -50.155)" fill="#0e3b2e"/>
    <path id="Path_47642" data-name="Path 47642" d="M434.3,336.274a7.134,7.134,0,0,0,5.136-.369c0,.369.134.739.134,1.141a8.358,8.358,0,0,1-7.519,1.712,7.985,7.985,0,0,1-5.237-5.64c-.6-3.592.134-7.318,3.189-9.567a8.448,8.448,0,0,1,6.512-.973,6.223,6.223,0,0,1,3.592,2.686,9.062,9.062,0,0,1,.974,4.062l-1.477,1.074-8.594-.235a9.543,9.543,0,0,0,.235,2.585,5.285,5.285,0,0,0,3.055,3.525m-3.055-7.62h5.539a5.128,5.128,0,0,0-.973-4.163,2.351,2.351,0,0,0-2.686-.537c-1.678.974-1.846,3.021-1.88,4.7" transform="translate(-269.791 -63.916)" fill="#0e3b2e"/>
    <path id="Path_47643" data-name="Path 47643" d="M33.055,304.182v19.6c.336.772,1.309.571,1.947.671a6.307,6.307,0,0,1,.6,1.175H25.837a6.573,6.573,0,0,1,.436-1.007c.671-.168,1.746.067,1.981-.839V304.148H24.461c-2.148.2-2.518,2.652-2.988,4.129H20.5c.336-2.081.638-4.163.973-6.277l18.832.034c.1,2.048.168,4.2.235,6.143H39.3c-.436-1.511-.336-3.827-1.947-3.995h-4.3Z" transform="translate(0 -50.421)" fill="#0e3b2e"/>
    <path id="Path_47644" data-name="Path 47644" d="M593.936,305.076h.739c.5-.034.6-.235.6-.5,0-.235-.1-.47-.6-.5h-.739Zm0,.369v1.443H593.5V303.7h1.141c.537,0,1.074.168,1.074.806a.788.788,0,0,1-.6.772h0c.369.1.436.3.47.638a4.25,4.25,0,0,0,.2.94h-.47a4.106,4.106,0,0,1-.1-.571,1.456,1.456,0,0,0-.168-.7.6.6,0,0,0-.47-.134Z" transform="translate(-380.65 -51.551)" fill="#0e3b2e"/>
    <circle id="Ellipse_196" data-name="Ellipse 196" cx="2.719" cy="2.719" r="2.719" transform="translate(211.238 251.109)" fill="none"/>
    <rect id="Rectangle_22213" data-name="Rectangle 22213" width="1.309" height="7.083" transform="translate(28.288 282.932)" fill="#0e3b2e"/>
    <path id="Path_47645" data-name="Path 47645" d="M65.269,402.483l-3.86-5.472v5.472H60.2V395.4h1.578l3.558,5.035V395.4h1.175v7.083Z" transform="translate(-26.373 -112.468)" fill="#0e3b2e"/>
    <path id="Path_47646" data-name="Path 47646" d="M93.463,402.251H92.188L89.2,395.269,90.476,395l2.451,5.875L95.545,395l1.208.235Z" transform="translate(-45.638 -112.202)" fill="#0e3b2e"/>
    <path id="Path_47647" data-name="Path 47647" d="M121.2,402.483V395.4H126v1.074h-3.491v1.813H125.5v1.041h-2.988v2.115h3.928v1.041Z" transform="translate(-66.896 -112.468)" fill="#0e3b2e"/>
    <path id="Path_47648" data-name="Path 47648" d="M149.82,402.353a5.607,5.607,0,0,1-2.82-.806l.47-1.074a4.97,4.97,0,0,0,2.316.739c.906,0,1.578-.3,1.578-.94,0-1.443-4.062-1.108-4.062-3.592,0-1.242,1.208-1.88,2.786-1.88a4.239,4.239,0,0,1,2.35.7l-.5.973a3.674,3.674,0,0,0-1.88-.6c-.7,0-1.443.235-1.443.772,0,1.376,4.129,1.175,4.129,3.491.034,1.309-1.041,2.216-2.92,2.216" transform="translate(-84.035 -112.069)" fill="#0e3b2e"/>
    <path id="Path_47649" data-name="Path 47649" d="M176.595,396.608v5.942h-1.343v-5.942H172.6V395.5h6.714v1.108Z" transform="translate(-101.042 -112.534)" fill="#0e3b2e"/>
    <path id="Path_47650" data-name="Path 47650" d="M226.761,402.084h-1.645l-1.578-5.606-1.779,5.606h-1.645L218,395.035l1.343-.235,1.712,6.076,1.846-5.841h1.343l1.779,5.841,1.913-6.076,1.309.2Z" transform="translate(-131.201 -112.069)" fill="#0e3b2e"/>
    <rect id="Rectangle_22214" data-name="Rectangle 22214" width="1.309" height="7.083" transform="translate(101.233 282.932)" fill="#0e3b2e"/>
    <path id="Path_47651" data-name="Path 47651" d="M279.095,396.608v5.942h-1.309v-5.942H275.1V395.5h6.714v1.108Z" transform="translate(-169.134 -112.534)" fill="#0e3b2e"/>
    <path id="Path_47652" data-name="Path 47652" d="M309.168,402.483v-3.155h-3.659v3.155H304.2V395.4h1.309v2.786h3.659V395.4h1.343v7.083Z" transform="translate(-188.465 -112.468)" fill="#0e3b2e"/>
    <path id="Path_47653" data-name="Path 47653" d="M352.525,402.353c-2.249,0-3.625-1.242-3.625-3.86,0-2.35,1.578-3.693,3.961-3.693a5.8,5.8,0,0,1,2.283.47l-.4,1.007a5.024,5.024,0,0,0-1.88-.4,2.334,2.334,0,0,0-2.551,2.518c0,1.746.7,2.719,2.249,2.719a7.09,7.09,0,0,0,2.585-.5l.336,1.074a7.673,7.673,0,0,1-2.954.671" transform="translate(-218.16 -112.069)" fill="#0e3b2e"/>
    <path id="Path_47654" data-name="Path 47654" d="M383.011,398.862a2.3,2.3,0,0,1-2.35,2.35c-1.578,0-2.551-1.074-2.551-2.988a2.287,2.287,0,0,1,2.35-2.316,2.647,2.647,0,0,1,2.551,2.954m1.443-.3a3.879,3.879,0,0,0-7.754,0,3.878,3.878,0,0,0,7.754,0" transform="translate(-236.628 -112.069)" fill="#0e3b2e"/>
    <path id="Path_47655" data-name="Path 47655" d="M415.069,402.483l-3.86-5.472v5.472H410V395.4h1.578l3.558,5.035V395.4h1.175v7.083Z" transform="translate(-258.749 -112.468)" fill="#0e3b2e"/>
    <path id="Path_47656" data-name="Path 47656" d="M444.109,396.474v2.182h2.82v1.007h-2.82v2.82H442.8V395.4h4.6v1.074Z" transform="translate(-280.539 -112.468)" fill="#0e3b2e"/>
    <rect id="Rectangle_22215" data-name="Rectangle 22215" width="1.309" height="7.083" transform="translate(171.157 282.932)" fill="#0e3b2e"/>
    <path id="Path_47657" data-name="Path 47657" d="M492.037,398.89c0,1.443-.5,2.618-2.316,2.618h-1.578v-4.968h1.41c1.947,0,2.484,1.041,2.484,2.35m1.443.034c0-1.947-1.074-3.424-3.827-3.424H486.8v7.083h3.155c2.585-.034,3.525-1.578,3.525-3.659" transform="translate(-309.768 -112.534)" fill="#0e3b2e"/>
    <path id="Path_47658" data-name="Path 47658" d="M518.4,402.483V395.4h4.8v1.074h-3.491v1.813h3.021v1.041h-3.021v2.115h3.928v1.041Z" transform="translate(-330.761 -112.468)" fill="#0e3b2e"/>
    <path id="Path_47659" data-name="Path 47659" d="M550.969,402.483l-3.86-5.472v5.472H545.9V395.4h1.578l3.558,5.035V395.4h1.208v7.083Z" transform="translate(-349.029 -112.468)" fill="#0e3b2e"/>
    <path id="Path_47660" data-name="Path 47660" d="M579.125,402.353c-2.249,0-3.625-1.242-3.625-3.86,0-2.35,1.578-3.693,3.961-3.693a5.8,5.8,0,0,1,2.283.47l-.4,1.007a5.024,5.024,0,0,0-1.88-.4,2.334,2.334,0,0,0-2.551,2.518c0,1.746.7,2.719,2.249,2.719a7.091,7.091,0,0,0,2.585-.5l.336,1.074a7.672,7.672,0,0,1-2.954.671" transform="translate(-368.693 -112.069)" fill="#0e3b2e"/>
    <path id="Path_47661" data-name="Path 47661" d="M604.8,402.483V395.4h4.8v1.074h-3.491v1.813H609.1v1.041h-2.988v2.115h3.928v1.041Z" transform="translate(-388.157 -112.468)" fill="#0e3b2e"/>
  </g>
</svg>
