<svg id="Group_5153" data-name="Group 5153" xmlns="http://www.w3.org/2000/svg" xmlns:xlink="http://www.w3.org/1999/xlink" width="234.045" height="74.659" viewBox="0 0 234.045 74.659">
  <defs>
    <clipPath id="clip-path">
      <rect id="Rectangle_22242" data-name="Rectangle 22242" width="234.045" height="74.659" fill="#0e3b2e"/>
    </clipPath>
  </defs>
  <g id="Group_5152" data-name="Group 5152" clip-path="url(#clip-path)">
    <path id="Path_47704" data-name="Path 47704" d="M50.9,86.916h.608c.2.632.863.953,1.984.953H69.219c1.323,0,2.044-.32,2.16-.953l.651.011-.35,5.344h-.907a4.827,4.827,0,0,0-.3-2.334c-.32-.456-1.053-.689-2.2-.689H62.912v19.436q0,1.558.821,1.988a5.582,5.582,0,0,0,2.288.3v.862H56.476v-.862a5.759,5.759,0,0,0,2.336-.3q.819-.429.818-1.988V89.248H54.967a3.913,3.913,0,0,0-2.678.649,5.575,5.575,0,0,0-.907,2.375h-.866Z" transform="translate(-21.837 -37.573)" fill="#0e3b2e"/>
    <path id="Path_47705" data-name="Path 47705" d="M86.7,107.532c.66.085,1.078.13,1.252.13a4.553,4.553,0,0,0,3.026-1.017,3.438,3.438,0,0,0,1.211-2.783q0-3.8-4.107-3.8a5.917,5.917,0,0,0-1.382.17Zm4.887,5.391q-.738-1.131-2.727-4.286H86.7v5.8A1.718,1.718,0,0,0,87.305,116a4.38,4.38,0,0,0,1.7.219v.858h-7.3v-.858a4.326,4.326,0,0,0,1.64-.219,1.419,1.419,0,0,0,.65-1.385V101.7q0-1.209-.563-1.51a4.26,4.26,0,0,0-1.728-.215v-.908h7.342a7.425,7.425,0,0,1,4.148,1.078,4.041,4.041,0,0,1,1.9,3.585q0,3.2-3.541,4.407L93.41,110.9a38.23,38.23,0,0,0,2.677,3.753,3.928,3.928,0,0,0,2.891,1.558v.858H94.7a28.957,28.957,0,0,1-3.112-4.151" transform="translate(-35.32 -42.825)" fill="#0e3b2e"/>
    <path id="Path_47706" data-name="Path 47706" d="M119.748,101.518l-2.331,7.171h4.923Zm-3.738,11.569a5.074,5.074,0,0,0-.257,1.515q0,1.083,1.415,1.13h.943v.86h-3.155c-1.7-.03-2.766-.03-3.2,0v-.819a4.392,4.392,0,0,0,1.686-.408,2.827,2.827,0,0,0,.818-1.362l4.317-11.954a6.377,6.377,0,0,0,.518-2.2c-.027-.434-.039-.693-.039-.777a3.825,3.825,0,0,0,1.51-1.123h.559l4.886,13.464.257.733a19.085,19.085,0,0,0,1.163,2.937,2.467,2.467,0,0,0,1.99.693v.819h-6.869v-.86h.564c.925,0,1.386-.25,1.386-.741a1.419,1.419,0,0,0-.086-.389l-1.6-4.677H117Z" transform="translate(-48.313 -42.34)" fill="#0e3b2e"/>
    <path id="Path_47707" data-name="Path 47707" d="M147.615,99.066a44,44,0,0,0,3.629,4.273l6.693,7.3,2.116,2.2v-9.888a3.238,3.238,0,0,0-.65-2.4,3.782,3.782,0,0,0-2.461-.583v-.907h6.7v.907a2.57,2.57,0,0,0-1.919.518,3.217,3.217,0,0,0-.455,2.03v14.873h-.693l-13.22-14.528v9.243a7.67,7.67,0,0,0,.431,3.366c.346.522,1.214.777,2.6.777v.822h-6.994v-.822a3.339,3.339,0,0,0,2.07-.429c.462-.4.693-1.311.693-2.723V102.866a2.837,2.837,0,0,0-.758-2.248A3.639,3.639,0,0,0,143,99.973v-.907h4.618Z" transform="translate(-61.816 -42.825)" fill="#0e3b2e"/>
    <path id="Path_47708" data-name="Path 47708" d="M190.2,102.21h-.777a2.938,2.938,0,0,0-3.2-2.807,2.753,2.753,0,0,0-2.181.907,3.337,3.337,0,0,0-.8,2.294,3.214,3.214,0,0,0,1.122,2.422,11.632,11.632,0,0,0,2.508,1.557,12.207,12.207,0,0,1,2.937,1.9,4.63,4.63,0,0,1,1.338,3.415,4.677,4.677,0,0,1-1.9,3.889,6.478,6.478,0,0,1-4.187,1.385,9.17,9.17,0,0,1-4.018-.912l-.518-3.9h.778a5.291,5.291,0,0,0,1.339,2.593,3.448,3.448,0,0,0,2.593,1.211,3.313,3.313,0,0,0,2.373-.953,3.111,3.111,0,0,0,.993-2.332,3.281,3.281,0,0,0-1.037-2.467,11.729,11.729,0,0,0-2.329-1.471,10.978,10.978,0,0,1-2.807-1.9,5.487,5.487,0,0,1,.15-7.353,5.675,5.675,0,0,1,3.952-1.341,13.893,13.893,0,0,1,2.071.175l1.168.215Z" transform="translate(-78.04 -42.513)" fill="#0e3b2e"/>
    <path id="Path_47709" data-name="Path 47709" d="M207.842,101.518l-2.333,7.171h4.923Zm-3.74,11.569a5.021,5.021,0,0,0-.257,1.515c0,.722.47,1.1,1.415,1.13h.941v.86h-3.153q-2.548-.044-3.2,0v-.819a4.336,4.336,0,0,0,1.685-.408,2.8,2.8,0,0,0,.821-1.362l4.317-11.954a6.337,6.337,0,0,0,.518-2.2c-.027-.434-.039-.693-.039-.777a3.8,3.8,0,0,0,1.51-1.123h.561l4.88,13.464.26.733a19.016,19.016,0,0,0,1.168,2.937,2.454,2.454,0,0,0,1.986.693v.819h-6.87v-.86h.565c.925,0,1.388-.25,1.388-.741a1.487,1.487,0,0,0-.086-.389l-1.6-4.677h-5.822Z" transform="translate(-86.393 -42.34)" fill="#0e3b2e"/>
    <path id="Path_47710" data-name="Path 47710" d="M236.131,115.475q.514.737,2.4.736v.863q-3.36-.085-3.4-.085-1.678,0-3.4.085v-.907a2.721,2.721,0,0,0,2.463-.948,6.278,6.278,0,0,0,.518-2.723l.345-10.41c.028-.923-.1-1.515-.388-1.77a2.908,2.908,0,0,0-1.816-.388v-.863H237.3l6.823,14.164L250.9,99.066h4.537v.863a3.735,3.735,0,0,0-1.728.255,1.692,1.692,0,0,0-.56,1.6l.345,12.151c.027,1.034.215,1.674.559,1.917a4.159,4.159,0,0,0,2.206.325v.9q-4.513-.085-4.382-.085-2.085,0-3.82.085v-.907c1.344.12,2.175-.085,2.5-.6a3.848,3.848,0,0,0,.175-1.512l-.13-11.576-5.832,12.1a27.917,27.917,0,0,0-1.078,2.722h-.648l-6.869-14.175-.258,10.537a3.549,3.549,0,0,0,.215,1.81" transform="translate(-100.172 -42.825)" fill="#0e3b2e"/>
    <path id="Path_47711" data-name="Path 47711" d="M286.764,104.9l-.083,3.026.042,1.51c.028,1.009.041,1.466.041,1.382h-.777c.059-1.11-.078-1.8-.41-2.077a3.769,3.769,0,0,0-2.179-.414h-2.677v4.286a7.361,7.361,0,0,0,.258,2.6q.473.778,2.288.777h1.6A3.917,3.917,0,0,0,289.4,112.8l.778.174-1.079,4.1h-7.691q-4.533-.044-5.786,0v-.907q1.64,0,2.074-.559a4.158,4.158,0,0,0,.346-2.164V102.133q0-1.47-.474-1.859a4.89,4.89,0,0,0-1.946-.388v-.818h12.7v3.973l-.736.169a3.524,3.524,0,0,0-1.123-2.477,4.889,4.889,0,0,0-2.807-.626h-2.935V107.1H284a1.846,1.846,0,0,0,1.642-.687,3.82,3.82,0,0,0,.388-1.512Z" transform="translate(-119.148 -42.826)" fill="#0e3b2e"/>
    <path id="Path_47712" data-name="Path 47712" d="M307.159,107.532c.665.085,1.081.13,1.255.13a4.563,4.563,0,0,0,3.026-1.017,3.437,3.437,0,0,0,1.209-2.783q0-3.8-4.107-3.8a5.954,5.954,0,0,0-1.384.17Zm4.889,5.391q-.737-1.131-2.726-4.286h-2.164v5.8A1.711,1.711,0,0,0,307.77,116a4.355,4.355,0,0,0,1.7.219v.858h-7.3v-.858a4.326,4.326,0,0,0,1.64-.219,1.419,1.419,0,0,0,.65-1.385V101.7c0-.806-.188-1.309-.561-1.51a4.286,4.286,0,0,0-1.729-.215v-.908h7.343a7.408,7.408,0,0,1,4.143,1.078,4.039,4.039,0,0,1,1.905,3.585q0,3.2-3.543,4.407l1.858,2.769a38.232,38.232,0,0,0,2.677,3.753,3.918,3.918,0,0,0,2.893,1.558v.858h-4.283a28.935,28.935,0,0,1-3.114-4.151" transform="translate(-130.624 -42.825)" fill="#0e3b2e"/>
    <path id="Path_47713" data-name="Path 47713" d="M339.521,99.886a4.723,4.723,0,0,0-1.77.215c-.372.236-.56.738-.56,1.515V114.4a1.513,1.513,0,0,0,.648,1.471,4.333,4.333,0,0,0,1.682.215v.993q-3.021-.129-3.541-.13-1.252,0-3.757.13v-.993a4.341,4.341,0,0,0,1.684-.215c.4-.2.6-.692.6-1.471V101.615c0-.777-.186-1.279-.561-1.515a4.145,4.145,0,0,0-1.726-.215v-.818h7.3Z" transform="translate(-143.616 -42.826)" fill="#0e3b2e"/>
    <path id="Path_47714" data-name="Path 47714" d="M362.907,103.517h-.824q-.687-4.193-5.354-4.191a6.671,6.671,0,0,0-5.312,2.373,8.707,8.707,0,0,0-1.858,5.659,9.286,9.286,0,0,0,2.03,5.962,6.847,6.847,0,0,0,5.53,2.723,4.8,4.8,0,0,0,3.345-1.192,5.59,5.59,0,0,0,1.708-3.216l.735.215L362.3,115.7a8.171,8.171,0,0,1-2.656.954,14.567,14.567,0,0,1-3,.39,9.985,9.985,0,0,1-7.194-2.576,9.262,9.262,0,0,1-2.7-7.031,8.452,8.452,0,0,1,2.937-6.537,9.95,9.95,0,0,1,6.866-2.638,17.789,17.789,0,0,1,6.09,1.385Z" transform="translate(-149.897 -42.48)" fill="#0e3b2e"/>
    <path id="Path_47715" data-name="Path 47715" d="M384.566,101.518l-2.334,7.171h4.927Zm-3.74,11.569a5.034,5.034,0,0,0-.26,1.515q0,1.083,1.417,1.13h.945v.86h-3.155q-2.553-.044-3.2,0v-.819a4.341,4.341,0,0,0,1.684-.408A2.792,2.792,0,0,0,379.08,114l4.317-11.954a6.476,6.476,0,0,0,.52-2.2c-.031-.434-.045-.693-.045-.777a3.8,3.8,0,0,0,1.515-1.123h.559l4.881,13.464.258.733a18.63,18.63,0,0,0,1.168,2.937,2.461,2.461,0,0,0,1.988.693v.819h-6.87v-.86h.564c.925,0,1.388-.25,1.388-.741a1.374,1.374,0,0,0-.087-.389l-1.595-4.677h-5.824Z" transform="translate(-162.788 -42.34)" fill="#0e3b2e"/>
    <path id="Path_47716" data-name="Path 47716" d="M11.865,26.551l.109,1.954H10.806V26.551ZM10.806,42.142V40.184h1.817l.107,1.957Zm0-10.3V29.957h1.248l.106,1.889Zm1.548,3.481H10.806V33.3H12.24Zm-1.548,1.45h1.629l.107,1.957H10.806ZM20.962,72.751H10.806V70.794h9.866l-.216-1.45h-9.65v-1.96h9.43l-.219-1.45H10.806v-1.96H19.73l-.218-1.447H10.806V60.636h8.416L19,59.19h-8.2v-1.96h7.98l-.219-1.45H10.806V53.82h7.472l-.216-1.45H10.806V50.413h6.963l-.217-1.454H10.806V47h6.528l-.216-1.45H10.806v-1.96h6.021l-.218-1.449H13.16l1.053-19H11.678l.109,1.959h-.98V.075L10.589,0l-3.3,23.14H5.149l.6,10.787L0,74.206H21.178Z" fill="#0e3b2e"/>
    <path id="Path_47717" data-name="Path 47717" d="M27.257,68.228H25.881l-.073,1.452h1.669Z" transform="translate(-11.156 -29.494)" fill="#0e3b2e"/>
    <path id="Path_47718" data-name="Path 47718" d="M26.989,62.228h-.727l-.073,1.448H27.2Z" transform="translate(-11.321 -26.9)" fill="#0e3b2e"/>
    <path id="Path_47719" data-name="Path 47719" d="M405.145,98.751c.409,0,.778-.031.778-.525,0-.395-.364-.469-.7-.469h-.665v.995Zm-.585,1.808h-.484V97.342H405.3c.759,0,1.134.281,1.134.913a.833.833,0,0,1-.834.884l.912,1.419h-.543l-.848-1.395h-.561Zm.593.712a2.322,2.322,0,1,0-2.272-2.331,2.246,2.246,0,0,0,2.272,2.331m-2.835-2.331a2.823,2.823,0,1,1,2.835,2.8,2.783,2.783,0,0,1-2.835-2.8" transform="translate(-173.917 -41.57)" fill="#0e3b2e"/>
  </g>
</svg>
