<svg xmlns="http://www.w3.org/2000/svg" xmlns:xlink="http://www.w3.org/1999/xlink" width="207.754" height="75.38" viewBox="0 0 207.754 75.38">
  <defs>
    <clipPath id="clip-path">
      <path id="Path_47684" data-name="Path 47684" d="M6.793,19.91h7.041V35.085H28.843v6.875H6.793Zm13.834,0h8.217v8.414H20.626Zm0-13.636h22.05v22.05h-7V13.636H20.626ZM13.834,0V13.636H0V48.722H35.672V35.085H49.506V0Z" fill="#0e3b2e"/>
    </clipPath>
    <clipPath id="clip-path-2">
      <rect id="Rectangle_22239" data-name="Rectangle 22239" width="207.754" height="65.309" fill="#0e3b2e"/>
    </clipPath>
  </defs>
  <g id="Group_5147" data-name="Group 5147" transform="translate(0 11.317)">
    <g id="Group_5144" data-name="Group 5144" transform="translate(0 -11.317)">
      <g id="Group_5143" data-name="Group 5143" clip-path="url(#clip-path)">
        <rect id="Rectangle_22237" data-name="Rectangle 22237" width="49.506" height="48.722" fill="#0e3b2e"/>
      </g>
    </g>
    <path id="Path_47685" data-name="Path 47685" d="M11.219,170.364h1.95l6.8,15.723H17.451L15.861,182.2H8.3l-1.568,3.886H4.222Zm3.857,9.972-2.961-7.219h-.044l-3.006,7.219Z" transform="translate(-3.003 -122.426)" fill="#0e3b2e"/>
    <path id="Path_47686" data-name="Path 47686" d="M65.635,170.362H68.84l5.047,11.9h.089l5-11.9h3.207v15.724H80.031V173.16h-.045l-5.358,12.927H73.192l-5.36-12.927h-.045v12.927H65.635Z" transform="translate(-46.686 -122.424)" fill="#0e3b2e"/>
    <path id="Path_47687" data-name="Path 47687" d="M134.576,170.362h10.249v2h-8.1v4.686h7.535v2h-7.535v5.042h8.5v2H134.576Z" transform="translate(-95.724 -122.424)" fill="#0e3b2e"/>
    <g id="Group_5146" data-name="Group 5146" transform="translate(0 -1.246)">
      <g id="Group_5145" data-name="Group 5145" clip-path="url(#clip-path-2)">
        <path id="Path_47688" data-name="Path 47688" d="M183.039,170.361h5.583c4.059,0,5.088,2.42,5.088,4.4a4.23,4.23,0,0,1-3.9,4.154l4.506,7.174h-2.69l-4.037-6.93h-2.4v6.93h-2.152Zm2.152,6.929h2.826c1.7,0,3.409-.4,3.409-2.532s-1.705-2.532-3.409-2.532h-2.826Z" transform="translate(-130.195 -121.178)" fill="#0e3b2e"/>
        <rect id="Rectangle_22238" data-name="Rectangle 22238" width="2.153" height="15.724" transform="translate(66.588 49.183)" fill="#0e3b2e"/>
        <path id="Path_47689" data-name="Path 47689" d="M260.017,172.77a4.9,4.9,0,0,0-3.834-1.8c-3.565,0-5.92,2.822-5.92,6.4a5.81,5.81,0,0,0,5.92,6.132,4.91,4.91,0,0,0,4.148-2.11l1.818,1.354a7.411,7.411,0,0,1-6.01,2.755,8.134,8.134,0,0,1-8.164-8.13,8,8,0,0,1,8.275-8.4,7,7,0,0,1,5.561,2.445Z" transform="translate(-176.384 -120.189)" fill="#0e3b2e"/>
        <path id="Path_47690" data-name="Path 47690" d="M305.295,170.364h1.95l6.8,15.723h-2.511l-1.592-3.886h-7.558l-1.568,3.886H298.3Zm3.856,9.972-2.959-7.219h-.044l-3.006,7.219Z" transform="translate(-212.179 -121.18)" fill="#0e3b2e"/>
        <path id="Path_47691" data-name="Path 47691" d="M359.807,170.362h2.825l8.746,12.926h.044V170.362h2.153v15.724h-2.736L362,173.16h-.044v12.927h-2.152Z" transform="translate(-255.93 -121.178)" fill="#0e3b2e"/>
        <path id="Path_47692" data-name="Path 47692" d="M446.481,170.365h9.979v2h-7.826v4.932h7.289v2h-7.289v6.8h-2.153Z" transform="translate(-317.581 -121.18)" fill="#0e3b2e"/>
        <path id="Path_47693" data-name="Path 47693" d="M492.2,170.365V180c0,1.955.987,4.487,3.991,4.487s3.991-2.532,3.991-4.487v-9.639h2.155v9.972a6.145,6.145,0,1,1-12.289,0v-9.972Z" transform="translate(-348.572 -121.18)" fill="#0e3b2e"/>
        <path id="Path_47694" data-name="Path 47694" d="M544.853,170.365h2.826l8.745,12.927h.045V170.365h2.152v15.724h-2.736l-8.834-12.927h-.045v12.927h-2.153Z" transform="translate(-387.553 -121.18)" fill="#0e3b2e"/>
        <path id="Path_47695" data-name="Path 47695" d="M604.477,170.365h5.538c6.706,0,8.343,4.952,8.343,7.863,0,4.02-3.027,7.862-8.7,7.862h-5.18Zm2.153,13.726h2.714c3.632,0,6.726-1.977,6.726-5.863,0-2-1.055-5.865-6.211-5.865H606.63Z" transform="translate(-429.964 -121.18)" fill="#0e3b2e"/>
        <path id="Path_47696" data-name="Path 47696" d="M657.82,181.813a3.977,3.977,0,0,0,3.365,1.686c1.414,0,3.163-.886,3.163-2.619,0-3.62-7.827-1.377-7.827-7.507,0-1.845,1.569-4.4,5.383-4.4a5.519,5.519,0,0,1,4.575,1.8l-1.751,1.577a3.333,3.333,0,0,0-2.824-1.378c-2.377,0-3.1,1.422-3.1,2.4,0,3.974,7.828,1.6,7.828,7.262,0,3.043-2.467,4.865-5.517,4.865a6.117,6.117,0,0,1-5.067-2.177Z" transform="translate(-466.648 -120.192)" fill="#0e3b2e"/>
        <path id="Path_47697" data-name="Path 47697" d="M702.766,169.67a2.815,2.815,0,1,1-2.842,2.815,2.812,2.812,0,0,1,2.842-2.815m0,5.223a2.408,2.408,0,1,0-2.338-2.408,2.349,2.349,0,0,0,2.338,2.408m-1.085-4.057h1.253c.787,0,1.162.31,1.162.939a.855.855,0,0,1-.879.9l.955,1.453h-.541l-.9-1.415h-.543v1.415h-.5Zm.5,1.467h.521c.449,0,.886-.022.886-.551,0-.454-.4-.508-.741-.508h-.666Z" transform="translate(-497.855 -120.686)" fill="#0e3b2e"/>
      </g>
    </g>
  </g>
</svg>
