<svg id="nationwide-seeklogo.com" xmlns="http://www.w3.org/2000/svg" xmlns:xlink="http://www.w3.org/1999/xlink" width="211.655" height="82.969" viewBox="0 0 211.655 82.969">
  <defs>
    <clipPath id="clip-path">
      <rect id="Rectangle_22210" data-name="Rectangle 22210" width="211.655" height="82.969" fill="#0e3b2e"/>
    </clipPath>
  </defs>
  <g id="Group_5045" data-name="Group 5045">
    <g id="Group_5044" data-name="Group 5044" clip-path="url(#clip-path)">
      <path id="Path_47617" data-name="Path 47617" d="M40,63.073c-1.482,1.693-3.6,4.233-3.175,6.138h0c.423,1.482,2.54,2.54,2.54,2.54l4.656,2.54-2.963,2.54,3.6,1.058s-3.386,3.386-3.6,3.81a13.016,13.016,0,0,1-2.963.212c-7.62,0-18.2-4.445-20.742-4.445a22.757,22.757,0,0,0-7.2,1.693l2.117-2.328a19.946,19.946,0,0,1-5.291.423l3.6-2.54A12.853,12.853,0,0,1,3.175,72.6s5.926-.423,14.181-.423c3.386,0,8.89.423,8.89.423-2.752-1.27-5.291-2.752-6.35-5.5l5.291.847c-2.117-1.27-5.5-4.656-5.926-7.408l5.926,2.117c-1.058-1.058-4.656-4.445-5.291-8.466l4.656,2.963c-1.27-1.27-4.445-7.62-4.021-9.524l4.233,2.963c-2.117-2.54-4.445-9.313-2.752-12.064,1.27,5.08,4.233,6.985,4.233,6.985-1.9-2.752-6.138-12.7-2.117-16.932C25.187,38.31,29.42,41.7,29.42,41.7c-3.386-5.5-7.408-22.435,0-25.822-1.482,10.794,2.117,16.721,2.117,16.721C29.42,22.647,29.42,8.466,36.828,7.2c-3.6,10.583-1.058,18.837-1.058,18.837C34.5,1.058,42.543,1.482,42.543,1.482a122.035,122.035,0,0,0-1.27,19.684v36.4c0,2.752-.212,4.233-1.27,5.5Zm4.868,8.89a68.248,68.248,0,0,1,7.831.847,1.773,1.773,0,0,1,1.27,1.693c-1.058-.212-2.752-.423-2.752-.423v1.058a12.978,12.978,0,0,1,3.175-.423s3.386,0,3.175,2.328c-.847-.635-2.752-.423-3.386-.212a13.038,13.038,0,0,0-5.08,2.117,35.705,35.705,0,0,1-5.715,2.54c.847-.847,3.386-3.6,3.386-3.6L43.389,76.2l2.752-2.328-4.233-2.328c1.058.212,1.9.212,2.963.423Zm.212-3.81H60.11V18.837H46.352v30.69l-4.021-3.81V21.165C42.331,6.773,44.024,0,44.024,0,39.368,0,37.04,4.445,36.4,5.715c-2.54.212-4.656,1.693-5.926,4.656a10.46,10.46,0,0,0-1.27,4.021c-5.5,1.27-5.926,11.006-5.5,12.7l-8.466-8.255H0V68.153H13.758V38.31l6.561,6.35a11.051,11.051,0,0,0,1.27,2.54l-2.54-2.328c-.423,4.868.847,7.408,2.117,9.1l-3.175-2.752a11.129,11.129,0,0,0,3.6,9.1l-4.233-2.117c-.212,2.963,2.54,6.985,4.233,7.831l-3.6-.423a7.437,7.437,0,0,0,3.6,5.291s-6.138.212-8.89.212A113.2,113.2,0,0,0,0,71.751s3.386,3.386,7.831,3.6l-3.81,2.328a11.165,11.165,0,0,0,5.291.635L6.985,81.064s6.985-2.752,9.948-2.54c2.328.212,13.334,4.445,20.742,4.445,5.08,0,8.678-1.9,11.429-3.386a17.745,17.745,0,0,1,4.868-1.9c2.752-.423,3.81.635,3.81.635.212-1.058,1.058-4.021-3.175-4.656a2.5,2.5,0,0,0-2.117-1.9C50.162,71.328,40.214,70.693,40,70.693c-.847,0-3.6-.635-1.058-4.445.212-.212,1.482-1.9,1.482-1.9l4.656,3.81" transform="translate(0 0)" fill="#0e3b2e"/>
    </g>
  </g>
  <path id="Path_47618" data-name="Path 47618" d="M58.117,17a2.088,2.088,0,0,1,2.117,1.9A2.128,2.128,0,0,1,56,18.9,1.954,1.954,0,0,1,58.117,17" transform="translate(62.527 18.981)" fill="#0e3b2e"/>
  <path id="Path_47619" data-name="Path 47619" d="M83.517,17a2.088,2.088,0,0,1,2.117,1.9,2.128,2.128,0,0,1-4.233,0A1.954,1.954,0,0,1,83.517,17" transform="translate(90.887 18.981)" fill="#0e3b2e"/>
  <path id="Path_47620" data-name="Path 47620" d="M56.129,24.691V32.1H52.955v-1.27a4.741,4.741,0,0,1-3.6,1.482c-2.54,0-4.656-1.482-4.656-3.81,0-3.6,3.81-4.445,7.62-4.445h.423c0-1.058-.423-1.9-2.328-1.9a4.807,4.807,0,0,0-3.386,1.27l-1.9-1.9A7.517,7.517,0,0,1,50.415,19.4c2.117,0,3.175.212,4.445,1.27a6.4,6.4,0,0,1,1.27,4.021m-3.386,2.117h-.212a8.264,8.264,0,0,0-2.963.423c-.635.212-1.27.635-1.27,1.27,0,.847.847,1.27,1.693,1.27a2.505,2.505,0,0,0,2.752-2.54v-.423" transform="translate(49.91 21.661)" fill="#0e3b2e"/>
  <path id="Path_47621" data-name="Path 47621" d="M56.626,21.61V17.8h-3.6v3.81H50.7v2.963h2.328v5.291c0,1.693.212,2.752,1.058,3.6a4.381,4.381,0,0,0,3.175,1.058A9.1,9.1,0,0,0,59.8,34.1V30.923a4.7,4.7,0,0,1-1.9.212c-1.058,0-1.27-.635-1.27-1.693V24.573H59.8V21.61H56.626" transform="translate(56.609 19.875)" fill="#0e3b2e"/>
  <path id="Path_47622" data-name="Path 47622" d="M104.1,26.285v.847H95c0,1.27,1.482,2.328,3.175,2.328a4.137,4.137,0,0,0,3.175-1.482l2.328,1.693a6.438,6.438,0,0,1-5.5,2.752c-3.81,0-6.773-2.328-6.773-6.561,0-3.386,2.117-6.561,6.35-6.561,4.656.423,6.35,3.81,6.35,6.985M100.29,24.8a2.472,2.472,0,0,0-2.752-2.328A2.753,2.753,0,0,0,94.786,24.8h5.5" transform="translate(102.053 21.549)" fill="#0e3b2e"/>
  <path id="Path_47623" data-name="Path 47623" d="M48.376,17V29.064L40.756,17H36.1V34.779h3.81V22.291l7.831,12.488h4.445V17h-3.81" transform="translate(40.307 18.981)" fill="#0e3b2e"/>
  <path id="Path_47624" data-name="Path 47624" d="M87.351,19.6l-2.117,7.62-1.9-7.62h-3.6l-1.9,7.62L75.71,19.6H71.9l3.81,12.276h3.6l2.117-7.62,2.328,7.62h3.386L91.161,19.6h-3.81" transform="translate(80.28 21.884)" fill="#0e3b2e"/>
  <rect id="Rectangle_22211" data-name="Rectangle 22211" width="3.598" height="12.276" transform="translate(118.738 41.484)" fill="#0e3b2e"/>
  <rect id="Rectangle_22212" data-name="Rectangle 22212" width="3.598" height="12.276" transform="translate(172.499 41.484)" fill="#0e3b2e"/>
  <path id="Path_47625" data-name="Path 47625" d="M76.048,20.558A3.686,3.686,0,0,0,73.085,19.5a4.521,4.521,0,0,0-3.6,1.693v-1.27H66.1V32.2h3.6V25.426a2.587,2.587,0,0,1,.635-1.9,1.921,1.921,0,0,1,1.482-.635c.847,0,1.27.212,1.482.635.423.423.423,1.27.423,2.54v6.35h3.6v-7.62c0-1.9-.212-3.175-1.27-4.233" transform="translate(73.804 21.773)" fill="#0e3b2e"/>
  <path id="Path_47626" data-name="Path 47626" d="M97.534,17V34.991H94.148v-1.27a5.366,5.366,0,0,1-3.81,1.693A5.91,5.91,0,0,1,86.1,33.721a6.705,6.705,0,0,1-1.9-4.868c0-3.81,2.54-6.561,5.926-6.561a5.1,5.1,0,0,1,3.81,1.482V17Zm-3.6,11.641a3.181,3.181,0,1,0-6.35,0,3.181,3.181,0,1,0,6.35,0" transform="translate(94.013 18.981)" fill="#0e3b2e"/>
  <path id="Path_47627" data-name="Path 47627" d="M72.246,25.961a6.392,6.392,0,0,1-6.773,6.561A6.512,6.512,0,0,1,58.7,25.961,6.392,6.392,0,0,1,65.473,19.4c4.021.212,6.773,2.752,6.773,6.561m-6.773-3.386A3.163,3.163,0,0,0,62.3,25.961a3.181,3.181,0,1,0,6.35,0,3.163,3.163,0,0,0-3.175-3.386" transform="translate(65.541 21.661)" fill="#0e3b2e"/>
  <path id="Path_47628" data-name="Path 47628" d="M99.2,21.233h.635v-1.27h.423l.635,1.27h.635l-.847-1.27a.91.91,0,0,0,.847-.847,1,1,0,0,0-1.058-1.058H99.2v3.175Zm.423-2.54h.423c.423,0,.847,0,.847.423s-.423.423-.847.423h-.423v-.847ZM97.3,19.752A2.752,2.752,0,1,0,100.052,17,2.8,2.8,0,0,0,97.3,19.752m.635,0a2.328,2.328,0,1,1,2.328,2.328,2.349,2.349,0,0,1-2.328-2.328" transform="translate(108.64 18.981)" fill="#0e3b2e"/>
  <path id="Path_47629" data-name="Path 47629" d="M38.328,62.292c-1.482,1.693-3.6,4.233-3.175,6.138h0c.423,1.482,2.54,2.54,2.54,2.54l4.656,2.54-2.963,2.54,3.6,1.058s-3.386,3.386-3.6,3.81a13.016,13.016,0,0,1-2.963.212c-7.62,0-18.2-4.445-20.742-4.445a22.756,22.756,0,0,0-7.2,1.693L10.6,76.049a19.946,19.946,0,0,1-5.291.423l3.6-2.54A12.854,12.854,0,0,1,1.5,71.816s5.926-.423,14.181-.423c3.386,0,8.89.423,8.89.423-2.752-1.27-5.291-2.752-6.35-5.5l5.291.847c-2.117-1.27-5.5-4.656-5.926-7.408l5.926,2.117c-1.058-1.058-4.656-4.445-5.291-8.466l4.656,2.963c-1.27-1.27-4.445-7.62-4.021-9.524L23.089,49.8c-2.117-2.54-4.445-9.313-2.752-12.064,1.27,5.08,4.233,6.985,4.233,6.985-1.9-2.752-6.138-12.7-2.117-16.932,1.058,9.736,5.291,13.123,5.291,13.123-3.386-5.5-7.408-22.435,0-25.822-1.482,10.794,2.117,16.721,2.117,16.721-2.117-9.948-2.117-24.129,5.291-25.4C31.555,17,34.095,25.252,34.095,25.252,32.825.277,40.868.7,40.868.7A122.035,122.035,0,0,0,39.6,20.384v36.4c0,2.752-.212,4.233-1.27,5.5Zm4.868,8.89a68.251,68.251,0,0,1,7.831.847,1.773,1.773,0,0,1,1.27,1.693c-1.058-.212-2.752-.423-2.752-.423v1.058a12.977,12.977,0,0,1,3.175-.423s3.386,0,3.175,2.328c-.847-.635-2.752-.423-3.386-.212a13.038,13.038,0,0,0-5.08,2.117,35.7,35.7,0,0,1-5.715,2.54c.847-.847,3.386-3.6,3.386-3.6l-3.386-1.693,2.752-2.328-4.233-2.328c1.058.212,1.9.212,2.963.423" transform="translate(1.675 0.781)" fill="#fff"/>
</svg>
