<svg id="Group_5151" data-name="Group 5151" xmlns="http://www.w3.org/2000/svg" xmlns:xlink="http://www.w3.org/1999/xlink" width="219.29" height="65.8" viewBox="0 0 219.29 65.8">
  <defs>
    <clipPath id="clip-path">
      <rect id="Rectangle_22241" data-name="Rectangle 22241" width="219.29" height="65.8" fill="#0e3b2e"/>
    </clipPath>
  </defs>
  <g id="Group_5150" data-name="Group 5150" transform="translate(0 0)" clip-path="url(#clip-path)">
    <path id="Path_47700" data-name="Path 47700" d="M203.82,19.7h.777c.389,0,.648,0,.777-.13s.259-.259.259-.389,0-.259-.13-.259l-.259-.259H203.82Zm-.648,2.2V18.013h1.3a2.227,2.227,0,0,1,1.036.13,1.788,1.788,0,0,1,.518.389.779.779,0,0,1,.13.518,1.841,1.841,0,0,1-.259.777,1.12,1.12,0,0,1-.777.389c.13,0,.259.13.389.259a1.991,1.991,0,0,1,.518.777l.518.777h-.777l-.389-.648a3.222,3.222,0,0,0-.648-.907c-.13-.13-.259-.13-.518-.13h-.389v1.684Zm1.684-5.052a3.449,3.449,0,0,0-1.554.389,2.542,2.542,0,0,0-1.166,1.166,3.3,3.3,0,0,0,0,3.109,2.542,2.542,0,0,0,1.166,1.166,3.3,3.3,0,0,0,3.109,0,2.542,2.542,0,0,0,1.166-1.166,3.3,3.3,0,0,0,0-3.109,2.542,2.542,0,0,0-1.166-1.166,4.478,4.478,0,0,0-1.554-.389m0-.648a3.238,3.238,0,0,1,1.813.518,3.122,3.122,0,0,1,1.3,1.3,3.238,3.238,0,0,1,.518,1.813,2.974,2.974,0,0,1-.518,1.813,3.122,3.122,0,0,1-1.3,1.3,4.216,4.216,0,0,1-1.813.518,2.974,2.974,0,0,1-1.813-.518,3.122,3.122,0,0,1-1.3-1.3,4.216,4.216,0,0,1-.518-1.813,2.974,2.974,0,0,1,.518-1.813,3.105,3.105,0,0,1,1.3-1.3,2.974,2.974,0,0,1,1.813-.518M43.465,37.572c-1.425,0-3.756-.389-3.756-3.238,0-3.886,4.4-4.4,8.808-4.4h.389v.907c.13,1.943.13,6.735-5.44,6.735m8.419-2.2V26.821c0-5.181-2.2-7.513-7.124-7.513a18.121,18.121,0,0,0-5.829,1.3l-.13.13v2.979l.389-.259A10.314,10.314,0,0,1,44.76,21.9c2.979,0,4.145,1.3,4.145,4.663v.648h-.13c-4.274,0-12.176,0-12.176,7.124,0,.907.259,5.7,6.606,5.7a7.467,7.467,0,0,0,5.958-2.979v2.461h2.979v-.259a17.744,17.744,0,0,1-.259-3.886m13.341-7.383C63.283,27.08,61.6,26.3,61.6,25.008c0-2.072,1.166-2.979,3.886-2.979a11.341,11.341,0,0,1,4.145.907l.389.13.259-2.72-.259-.13a17.354,17.354,0,0,0-4.922-.907c-3.238,0-6.606,1.425-6.606,5.57,0,3.109,2.72,4.4,5.181,5.57,2.072,1.036,4.145,1.943,4.145,3.886,0,2.2-2.072,3.109-4.015,3.109a11.424,11.424,0,0,1-4.922-1.166l-.389-.13-.259,2.979.259.13a14.349,14.349,0,0,0,5.57.907c3.5,0,6.994-1.813,6.994-5.829.13-3.756-3.238-5.181-5.829-6.347m25.387,8.808a11.038,11.038,0,0,1-4.274.907c-4.015,0-6.735-3.238-6.735-7.772,0-4.793,2.72-7.772,6.994-7.772a12.627,12.627,0,0,1,4.015.907l.389.13.259-2.85L91,20.215a16.464,16.464,0,0,0-4.793-.777c-5.829,0-9.844,4.274-9.844,10.362,0,5.181,2.979,10.362,9.585,10.362A16.4,16.4,0,0,0,91,39.515l.259-.13L91,36.536l-.389.259m8.937-8.678c.13-2.979,2.2-6.088,5.44-6.088,3.368,0,4.533,3.109,4.663,6.088Zm5.181-8.678c-4.922,0-8.419,4.274-8.419,10.362,0,6.865,3.109,10.362,9.067,10.362a15.941,15.941,0,0,0,5.7-1.036l.13-.13V35.888l-.389.259a12.267,12.267,0,0,1-5.311,1.425c-3.627,0-5.958-2.72-6.088-6.865h13.212V29.153c.13-6.088-2.85-9.715-7.9-9.715m23.833,0a6.549,6.549,0,0,0-6.088,3.109v-2.72h-2.85v.259c.13,1.554.13,3.109.13,4.533V39.774h2.979V28.764c0-3.238,1.425-6.735,5.44-6.735,2.85,0,4.274,1.813,4.274,5.7V39.774h2.979V27.08c0-4.922-2.461-7.642-6.865-7.642m20.465,8.549c-1.943-.907-3.627-1.684-3.627-2.979,0-2.072,1.166-2.979,3.886-2.979a11.341,11.341,0,0,1,4.145.907l.389.13.259-2.72-.259-.13a17.354,17.354,0,0,0-4.922-.907c-3.238,0-6.606,1.425-6.606,5.57,0,3.109,2.72,4.4,5.181,5.57,2.072,1.036,4.145,1.943,4.145,3.886,0,2.2-2.072,3.109-4.015,3.109a11.424,11.424,0,0,1-4.922-1.166l-.389-.13-.259,2.979.13.13a14.349,14.349,0,0,0,5.57.907c3.5,0,6.994-1.813,6.994-5.829.259-3.756-3.109-5.181-5.7-6.347M177.4,34.852V19.827h-2.979v11.01c0,3.238-1.425,6.735-5.44,6.735-2.85,0-4.274-1.813-4.274-5.7V19.827h-2.979V32.52c0,4.922,2.461,7.772,6.865,7.772a6.549,6.549,0,0,0,6.088-3.109V39.9h2.85v-.259c-.13-1.684-.13-3.238-.13-4.793M191,27.987c-1.943-.907-3.627-1.684-3.627-2.979,0-2.072,1.166-2.979,3.886-2.979a11.341,11.341,0,0,1,4.145.907l.389.13.259-2.72-.259-.13a17.354,17.354,0,0,0-4.922-.907c-3.238,0-6.606,1.425-6.606,5.57,0,3.109,2.72,4.4,5.181,5.57,2.072,1.036,4.145,1.943,4.145,3.886,0,2.2-2.072,3.109-4.015,3.109a11.424,11.424,0,0,1-4.922-1.166l-.389-.13L184,39.126l.259.13a14.349,14.349,0,0,0,5.57.907c3.5,0,6.994-1.813,6.994-5.829,0-3.756-3.238-5.181-5.829-6.347" transform="translate(10.807 4.783)" fill="#0e3b2e" fill-rule="evenodd"/>
    <path id="Path_47701" data-name="Path 47701" d="M37.045,0H10.621A10.669,10.669,0,0,0,0,10.621V34.066C6.088,20.465,25.646,6.994,37.045,0" transform="translate(0 0)" fill="#0e3b2e" fill-rule="evenodd"/>
    <path id="Path_47702" data-name="Path 47702" d="M5.7,44.769H26.036A10.669,10.669,0,0,0,36.657,34.148V.6C17.357,16.92,8.938,31.169,5.7,44.769" transform="translate(1.683 0.177)" fill="#0e3b2e" fill-rule="evenodd"/>
    <path id="Path_47703" data-name="Path 47703" d="M79.433,43.313,77.75,47.588h3.5Zm-.648-1.166h1.3l3.627,8.678H82.283l-.907-2.2H77.1l-.907,2.2H74.9Zm6.347-.648H86.3v9.326H85.133m10.492,0h-1.3l-1.684-5.311-1.554,5.311H89.8l-2.072-6.347h1.3l1.425,5.311L92,44.479h1.425l1.554,5.311,1.554-5.311H97.7l-2.072,6.347m6.994-2.979h-.777c-.648,0-2.2.13-2.2,1.166a1.134,1.134,0,0,0,1.166,1.036,1.669,1.669,0,0,0,1.813-1.684ZM99.122,45a3.914,3.914,0,0,1,2.072-.648,2.272,2.272,0,0,1,2.591,2.591v3.886h-1.036v-.777a2.354,2.354,0,0,1-1.943,1.036c-1.425,0-2.331-.648-2.331-1.943,0-1.554,1.684-2.072,2.979-2.072h1.3c0-1.036-.389-1.684-1.554-1.684a2.808,2.808,0,0,0-1.813.648Zm6.088,7.513c.13,0,.389.13.518.13,1.036,0,1.425-1.425,1.425-1.554a1.368,1.368,0,0,0-.259-.648l-2.2-5.958h1.3l1.684,5.311,1.684-5.311h1.166l-2.331,6.476c-.389,1.166-.907,2.591-2.461,2.591-.389,0-.648,0-.777-.13l.259-.907m6.217-2.85a3.931,3.931,0,0,0,1.425.389c.518,0,1.166-.259,1.166-.907,0-1.166-2.72-1.036-2.72-2.85a1.976,1.976,0,0,1,2.2-1.943,4.656,4.656,0,0,1,1.425.259l-.13,1.036a3.8,3.8,0,0,0-1.3-.389c-.648,0-1.166.259-1.166.777,0,1.3,2.72.907,2.72,2.979a1.976,1.976,0,0,1-2.2,1.943,2.517,2.517,0,0,1-1.684-.389l.259-.907m8.808-8.16H121.4v3.886a2.353,2.353,0,0,1,2.072-1.036c1.684,0,2.331,1.036,2.331,2.72v3.756h-1.166V47.588c0-1.425-.389-2.2-1.3-2.331-1.3,0-1.943,1.036-1.943,2.591v2.979h-1.166V41.5m11.4,6.347h-.777c-.648,0-2.2.13-2.2,1.166a1.134,1.134,0,0,0,1.166,1.036,1.669,1.669,0,0,0,1.813-1.684Zm-3.5-2.85a3.914,3.914,0,0,1,2.072-.648A2.272,2.272,0,0,1,132.8,46.94v3.886h-1.036v-.777a2.354,2.354,0,0,1-1.943,1.036c-1.425,0-2.331-.648-2.331-1.943,0-1.554,1.684-2.072,2.979-2.072h1.3c0-1.036-.389-1.684-1.554-1.684a2.808,2.808,0,0,0-1.813.648Zm9.456,5.829h-1.425l-2.331-6.347h1.3l1.684,5.181,1.813-5.181h1.166l-2.2,6.347M145.1,47.07a1.639,1.639,0,0,0-1.554-1.813,1.662,1.662,0,0,0-1.684,1.813Zm.777,3.5a4.93,4.93,0,0,1-1.943.389c-2.2,0-3.238-1.425-3.238-3.5a2.93,2.93,0,0,1,2.979-3.238c2.072,0,2.85,1.554,2.85,3.627h-4.663a2.043,2.043,0,0,0,2.072,2.072,3.417,3.417,0,0,0,1.943-.648Zm9.326-2.72h-.777c-.648,0-2.2.13-2.2,1.166a1.134,1.134,0,0,0,1.166,1.036,1.669,1.669,0,0,0,1.813-1.684ZM151.71,45a3.914,3.914,0,0,1,2.072-.648,2.272,2.272,0,0,1,2.591,2.591v3.886h-1.036v-.777a2.354,2.354,0,0,1-1.943,1.036c-1.425,0-2.331-.648-2.331-1.943,0-1.554,1.684-2.072,2.979-2.072h1.3c0-1.036-.389-1.684-1.554-1.684a2.808,2.808,0,0,0-1.813.648Zm13.082.259a2.089,2.089,0,0,0-1.943,2.331c0,1.036.518,2.331,1.813,2.331s1.813-1.425,1.813-2.461a1.836,1.836,0,0,0-1.684-2.2m-2.979-.777h1.166v.907a2.4,2.4,0,0,1,2.2-1.036c1.813,0,2.72,1.554,2.72,3.238s-.777,3.5-2.72,3.5c-1.166,0-1.813-.389-2.072-1.036v3.5h-1.166Zm7.772-2.979h1.166v9.326h-1.166m7.124-2.979h-.777c-.648,0-2.2.13-2.2,1.166a1.134,1.134,0,0,0,1.166,1.036,1.669,1.669,0,0,0,1.813-1.684Zm-3.5-2.85a3.914,3.914,0,0,1,2.072-.648,2.272,2.272,0,0,1,2.591,2.591v3.886h-1.036v-.777a2.354,2.354,0,0,1-1.943,1.036c-1.425,0-2.331-.648-2.331-1.943,0-1.554,1.684-2.072,2.979-2.072h1.3c0-1.036-.389-1.684-1.554-1.684a2.808,2.808,0,0,0-1.813.648Zm6.606-.518h1.166v1.036a2.2,2.2,0,0,1,2.072-1.166c1.684,0,2.331,1.036,2.331,2.72v3.756h-1.166V47.588c0-1.425-.389-2.2-1.3-2.331-1.3,0-1.943,1.036-1.943,2.591v2.979h-1.166V44.479" transform="translate(22.116 12.254)" fill="#0e3b2e" fill-rule="evenodd"/>
  </g>
</svg>
