<svg xmlns="http://www.w3.org/2000/svg" width="228.392" height="48.415" viewBox="0 0 228.392 48.415">
  <g id="g8" transform="translate(-0.085 -0.188)">
    <path id="path2" d="M86.179,35.579v.3h-11.1V31.557l.079-.013h-.083s0-11.347,0-11.347c-.023-.662.22-3.617-3.141-3.585,0,.009-3.452.058-3.372,4.216v0L68.554,32.06c.1,3.455,2.162,3.527,2.169,3.527v.289H59.5v0H53.112c-.247.029-8.048.283-8.362-6.983V24.964a15.721,15.721,0,0,0-4.058,1.428,3.012,3.012,0,0,0-.842,4.261S41.064,32.782,44.986,32l-1.913,3.89h-3.78s-8.822.18-9.855-6.3c0-.045-.793-5.085,5.23-7.127a41.941,41.941,0,0,1,5.98-1.417c.043,0,3.349-.472,3.657-2.265a1.773,1.773,0,0,0-.11-1.08c.054.141-1.5-3.946-11.018.186.04.045,1.958-5.973,1.958-5.973s8.963-2.635,15.217,1.2c-.041.041,3.268,1.8,3.223,7.316l.1,7.628c-.013.108-.007,3.908,3.733,4.121,0,.036,1.327.025,2.088.022V15.547c0-.094.2-3.56-2.11-3.715v-.319l11.184-.435,0,2.831a10.208,10.208,0,0,1,6.726-2.867s8.7-.3,8.69,8.223c0,0,.014,12.273.014,12.273-.069,3.982,2.186,4.039,2.186,4.039ZM.085.612V.246H12.221l8.71,25.432,6.442-20.4A3.642,3.642,0,0,0,25.165.48V.188h9.722L22.6,36.15l-5.112-1.971s-4.14-1.223-6.344-7.433L3.154,4.679S2.148,1.113.085.612ZM216.4,31.545c-.058,4.265,2.211,4.039,2.214,4.039v.3l-11.419-.007v0l0,0V20.537l0-.317c0,.144,0-3.919-3.562-3.962-.043.043-4.18-.4-4.18,7.334-.041.041-.041,9.042,6.952,7.886,0,.036-2.453,4.384-2.453,4.384a10.2,10.2,0,0,1-10.371-3.067,12.576,12.576,0,0,1-3.576-9.2c.041.041-.119-5.738,3.576-9.4a10.641,10.641,0,0,1,13.613-1.363V4.715c0-.088.2-3.558-2.114-3.713V.688L216.389.25l.007,31.3ZM182.416,14.3a6.237,6.237,0,0,1,7.239-3.221v6.1c-7.547-1.252-7.231,4.431-7.239,4.4h0l0,9.96c-.049,4.223,2.117,4.057,2.224,4.052v.292H173.344v0h-6.532c-.236.029-8.043.283-8.349-6.983V24.964a15.73,15.73,0,0,0-4.067,1.428,3.013,3.013,0,0,0-.835,4.261s1.208,2.128,5.132,1.342l-1.913,3.893h-3.787s-8.815.177-9.848-6.306c0-.045-.793-5.087,5.23-7.121a41.475,41.475,0,0,1,5.976-1.421c.045,0,3.349-.472,3.657-2.263A1.738,1.738,0,0,0,157.9,17.7c.047.144-1.5-3.946-11.022.186.054.045,1.966-5.973,1.966-5.973s8.966-2.635,15.22,1.2c-.047.047,3.259,1.8,3.219,7.311l.1,7.634c-.016.114-.013,3.908,3.733,4.117,0,.036,1.5.029,2.225.025V30.234l0-14.686c0-.094.2-3.565-2.112-3.718v-.31l11.186-.438Z" fill="#0e3b2e" fill-rule="evenodd"/>
    <path id="path4" d="M236.989,24.7c3.421,0,3.024-4.755,3.024-4.828-.072-4.083-3.017-3.962-3.017-3.962-3.244,0-3.114,4.076-3.152,4.034-.355,4.521,2.9,4.811,3.145,4.755Zm25.55-13.516V27.075s-.079,3.444,3.062,3.414c-.014-.056,3.322.5,3.444-4.238.005.005.005.013.011.013l0-2.889V15.684c0-.094.2-3.56-2.114-3.715V11.65l11.184-.435V31.676c-.005.087-.206,3.935,2.218,4.047v.289h-11.3l0-2.9a10.2,10.2,0,0,1-6.786,2.936s-8.862.31-8.844-8.227c-.032-.065-.014-9.091-.005-12.172H246.6a5.073,5.073,0,0,1,.6.662,6.878,6.878,0,0,1,.074,9.013c-2.454,3.435-10.378,4.4-10.378,4.4l-.492.056c-2.683.094-1.83,1.455-1.821,1.463.388.907,2.321.765,2.321.765h4.537c9.186-.031,10.165,5.987,10.2,5.987,1.509,8.441-6.988,10.959-15.473,10.737-8.418.054-11.538-3.61-11.505-3.581-2.137-2.476-1.008-5.933,2.777-6.981a14.382,14.382,0,0,1,6.106,0,2.43,2.43,0,0,0-2.063,2.929c.842,3.024,5.143,3.055,5.4,3.058,5.493-.283,5.65-2.957,5.65-4.265a3.7,3.7,0,0,0-1.434-2.763c-1.991-1.463-5.758-1-8.38-1.114-3.675-.209-4.629-3.663-4.8-4.719s.027-1.5.64-1.89a13.929,13.929,0,0,1,3.343-.934l.054-.011a.364.364,0,0,0-.079-.011,11.288,11.288,0,0,1-5.073-3.666,7.878,7.878,0,0,1,.667-10.275c2.689-2.593,6.1-3.174,9.156-3.322H262.54Zm95.413-6.288a3.894,3.894,0,1,0,3.9-3.865,3.885,3.885,0,0,0-3.9,3.865Zm-.624,0a4.52,4.52,0,1,1,4.521,4.483,4.506,4.506,0,0,1-4.521-4.483Z" transform="translate(-137.89 -0.137)" fill="#0e3b2e" fill-rule="evenodd"/>
    <path id="path6" d="M580.783,8.188v2.384h-.745V5.292h1.9c.9,0,1.814.28,1.814,1.324a1.259,1.259,0,0,1-1,1.273V7.9c.637.15.721.491.8,1.08a7.627,7.627,0,0,0,.335,1.587h-.794c-.065-.312-.151-.656-.189-.974a2.143,2.143,0,0,0-.3-1.172c-.213-.238-.51-.216-.8-.238Zm-.018-.628h1.219c.819-.038,1-.406,1-.821s-.184-.786-1-.821h-1.221V7.56Z" transform="translate(-357.804 -3.149)" fill="#0e3b2e" fill-rule="evenodd"/>
  </g>
</svg>
