<svg xmlns="http://www.w3.org/2000/svg" width="228.393" height="64.184" viewBox="0 0 228.393 64.184">
  <g id="cdnlogo.com_principal" transform="translate(-79.998 -143.796)">
    <path id="Path_47630" data-name="Path 47630" d="M354.4,164.439l-1.967,2.67-1.957-2.67h-.846V170.2h.871v-4.319l1.67,2.28h.518l1.683-2.284v4.322h.871v-5.757H354.4Zm-6.186,4.228a1.834,1.834,0,0,1-2.082,1.627,6.2,6.2,0,0,1-2.115-.481l.24-.763a5.518,5.518,0,0,0,1.829.454c.733-.009,1.205-.331,1.205-.837,0-.613-.613-.785-1.34-1-.875-.252-1.874-.544-1.874-1.729,0-.944.84-1.567,2.055-1.6a5.552,5.552,0,0,1,1.916.413l-.242.76a4.965,4.965,0,0,0-1.626-.387c-.722.025-1.189.316-1.189.81,0,.576.61.757,1.318.953.892.254,1.9.545,1.9,1.772ZM326.5,185.841c0,3.36-1.984,5.338-5.249,5.338-2.407,0-3.872-1.291-3.872-3.357,0-2.322,1.894-3.7,5.074-3.7a19.153,19.153,0,0,1,4.047.435v1.288Zm0-4.215a18.757,18.757,0,0,0-4.562-.515c-5.507,0-8.781,2.665-8.781,7.055,0,3.878,3.1,6.456,7.576,6.456a7.768,7.768,0,0,0,6.283-2.842,4.152,4.152,0,0,0,4.219,2.842,6.688,6.688,0,0,0,2.409-.429l-.429-3.275a5.01,5.01,0,0,1-1.116.175c-1.036,0-1.468-.518-1.468-1.549V180.5c0-4.82-3.18-7.747-8.434-7.747a19.113,19.113,0,0,0-8.009,1.894l1.291,3.36a12.442,12.442,0,0,1,6.031-1.64c3.265,0,4.992,1.468,4.992,4.3v.95Zm-40.8-8.348H281.48v20.913h4.215Zm-2.066-3.014a2.667,2.667,0,1,0,0-5.335,2.669,2.669,0,1,0,0,5.335ZM342.33,191c-1.459,0-1.974-.6-1.974-2.237V164.405h-4.224v24.968c0,3.357,1.9,5.249,5.426,5.249a6.687,6.687,0,0,0,2.407-.429l-.429-3.357A6.078,6.078,0,0,1,342.33,191Zm-71.787-14.465a9.533,9.533,0,0,1,5.344,1.987l1.889-3.1a11.779,11.779,0,0,0-7.4-2.67c-6.111,0-10.589,4.564-10.589,10.933,0,6.628,4.135,10.933,10.328,10.933a11.619,11.619,0,0,0,7.661-2.665l-1.889-3.019a7.864,7.864,0,0,1-5.172,1.9c-4.04,0-6.628-2.756-6.628-7.146,0-4.3,2.588-7.15,6.456-7.15ZM248.6,172.757a8.42,8.42,0,0,0-6.714,3.185l-.343-2.665h-3.532v20.915h4.219V182.484c0-3.529,2.235-5.945,5.426-5.945a4.345,4.345,0,0,1,4.648,4.652v13h4.215V180.676a7.5,7.5,0,0,0-7.919-7.919Zm-16.1,21.436V173.278h-4.215v20.915Zm-2.066-23.929a2.667,2.667,0,1,0,0-5.335,2.669,2.669,0,1,0,0,5.335Zm-8.266,2.67a6.861,6.861,0,0,0-5.85,3.008l-.343-2.665h-3.534v20.915h4.221V182.917c0-4.047,1.9-6.193,5.507-6.193a13.17,13.17,0,0,1,2.327.34l.518-3.619a7.631,7.631,0,0,0-2.845-.51ZM193.6,169.406h5.249c3.961,0,6.284,1.974,6.284,5.5s-2.323,5.51-6.284,5.51H193.6Zm-4.39-3.7v28.491h4.39V184.119h5.85c6.027,0,10.074-3.7,10.074-9.211s-4.047-9.207-10.074-9.207H189.206Zm111.124,25.134a6.818,6.818,0,0,1-5-2.235v-6.293c0-3.523,2.155-5.767,5.421-5.767,3.448,0,5.6,2.591,5.6,6.721,0,4.82-2.235,7.576-6.022,7.576Zm1.288-18.079a8.29,8.29,0,0,0-6.714,3.185l-.343-2.665h-3.529v29.35h4.215V192.558a9.2,9.2,0,0,0,5.764,2.064c5.769,0,9.645-4.648,9.645-11.362C310.657,176.977,307.039,172.757,301.618,172.757Z" transform="translate(-46.852 -8.815)" fill="#0e3b2e" fill-rule="evenodd"/>
    <path id="Path_47631" data-name="Path 47631" d="M80,173.728a34.488,34.488,0,0,0,31.315,34.252V185.374c-8.284-.778-13.975-6.9-13.975-15.007,0-7.854,5.262-13.545,12.506-13.545,6.641,0,11.129,4.142,11.129,10.267,0,5.433-3.45,8.974-9.661,9.919v8.366c12.765-.343,21.049-8.105,21.049-19.758,0-12.592-9.835-21.82-23.29-21.82C92.509,143.8,80,156.732,80,173.729Z" fill="#0e3b2e" fill-rule="evenodd"/>
  </g>
</svg>
