<svg xmlns="http://www.w3.org/2000/svg" width="200.198" height="64.063" viewBox="0 0 200.198 64.063">
  <path id="lincoln-financial-group-lfg-vector-logo-2022" d="M84.329,272.047h6.94v1.635H86.165v3.837h4.871v1.635H86.165v5.973H84.3v-13.08Zm9.376,3.537h1.768v9.543H93.705Zm-.1-4.137h2v2h-2Zm4.938,13.68h1.768v-4.438c0-2.336.9-3.937,2.9-3.937,1.535.1,2.035,1.2,2.035,3.4v4.938h1.768v-5.672c0-2.569-1.1-4.1-3.57-4.1a3.392,3.392,0,0,0-3.1,1.735h-.033v-1.535h-1.7v9.61Zm11.745-8.875a5.969,5.969,0,0,1,3.136-.9c2.736,0,3.837,1.335,3.837,3.937v3.971a16.418,16.418,0,0,0,.067,1.868h-1.635v-1.235h-.033a3.654,3.654,0,0,1-2.97,1.468c-2.069,0-3.5-.9-3.5-2.97,0-2.4,2.636-3.136,4.438-3.136.7,0,1.2,0,1.869.033,0-1.635-.6-2.5-2.369-2.5a4.43,4.43,0,0,0-2.769.968Zm5.205,4.3c-.367,0-.734-.033-1.134-.033-.968,0-3.3.167-3.3,1.835a1.694,1.694,0,0,0,1.768,1.568,2.429,2.429,0,0,0,2.669-2.5Zm4.6,4.571h1.768v-4.438c0-2.336.9-3.937,2.87-3.937,1.568.1,2.035,1.2,2.035,3.4v4.938h1.768v-5.672c0-2.569-1.1-4.1-3.57-4.1a3.483,3.483,0,0,0-3.136,1.735H121.8v-1.535h-1.7Zm17.517-9.409a6.79,6.79,0,0,0-2.135-.367,4.731,4.731,0,0,0-4.871,5,4.845,4.845,0,0,0,4.871,5,5.424,5.424,0,0,0,2.2-.4l-.133-1.568a3.571,3.571,0,0,1-1.9.534c-2.269,0-3.17-1.869-3.17-3.57,0-1.8,1.1-3.57,3.07-3.57a5.261,5.261,0,0,1,1.9.4Zm2.169-.133h1.768v9.543h-1.768Zm1.869-2.135h-2v-1.969h2Zm3.4,2.8a5.969,5.969,0,0,1,3.136-.9c2.736,0,3.837,1.335,3.837,3.937v3.971a9.357,9.357,0,0,0,.1,1.868h-1.668v-1.235h0a3.6,3.6,0,0,1-2.97,1.468c-2.069,0-3.5-.9-3.5-2.97,0-2.4,2.6-3.136,4.438-3.136.7,0,1.168,0,1.869.033,0-1.635-.6-2.5-2.369-2.5a4.43,4.43,0,0,0-2.769.968Zm5.239,4.3c-.367,0-.734-.033-1.1-.033-.968,0-3.337.167-3.337,1.835a1.694,1.694,0,0,0,1.768,1.568,2.429,2.429,0,0,0,2.669-2.5Zm4.8,4.571h1.768V271.079H155.1Zm19.553-12.646a10.036,10.036,0,0,0-3.837-.667c-4,0-6.907,2.669-6.907,6.707,0,4.171,2.769,6.807,6.907,6.807a12.547,12.547,0,0,0,4-.567v-6.807h-4.671v1.535h2.769v3.971a7.17,7.17,0,0,1-2.1.234,5.108,5.108,0,0,1,.1-10.21,6.043,6.043,0,0,1,3.6.9Zm2.8,12.646h1.768v-4.338c0-2.4,1.034-3.9,2.6-3.9a2.468,2.468,0,0,1,.968.167v-1.568a5.365,5.365,0,0,0-1.168-.133,2.876,2.876,0,0,0-2.5,1.7h-.033v-1.468h-1.635v9.543Zm6.173-4.771a4.857,4.857,0,1,1,9.71,0,4.857,4.857,0,1,1-9.71,0m1.869,0c0,1.7.9,3.57,3,3.57,2.069,0,2.97-1.869,2.97-3.57,0-1.8-1.1-3.57-2.97-3.57-1.9,0-3,1.735-3,3.57m18.185-4.771h-1.768v4.438c0,2.3-.9,3.937-2.9,3.937-1.535-.1-2-1.168-2-3.4v-4.938h-1.768v5.672c0,2.569,1.1,4.1,3.6,4.1a3.392,3.392,0,0,0,3.1-1.735h.033v1.535h1.7v-9.609Zm2.5,0h1.7v1.335h.033a3.865,3.865,0,0,1,3.237-1.568c2.769,0,4.1,2.269,4.1,4.838,0,2.636-1.2,5.172-4.1,5.172a3.391,3.391,0,0,1-3.17-1.535h-.033v5.239h-1.768Zm7.207,4.738c.033-1.7-.7-3.537-2.636-3.537-1.9,0-2.836,1.835-2.836,3.6,0,1.6.834,3.57,2.8,3.57,1.935-.033,2.7-2.169,2.669-3.637M26.305,226.935A5.3,5.3,0,0,0,21,232.241v47.681a5.319,5.319,0,0,0,5.305,5.305h.8c.934-1.2,2.069-2.669,2.2-2.736.267-.133-.734-.8-.6-1.535.133-.8,2.035-2.636,3.1-4.471,1.134-1.935,2.236-4.771,2.5-5.172a4.853,4.853,0,0,1,1.5-.5,4.31,4.31,0,0,0-1-2.336,17.674,17.674,0,0,1-2-2.169,5.259,5.259,0,0,1-1.134-2.1,4.074,4.074,0,0,1-.667-1.2,26.345,26.345,0,0,1-1.034-3.47,17.238,17.238,0,0,0-.4-3.07c0-.4-.667-1.2-.667-2.269a11.832,11.832,0,0,1,.667-3.2c.133-.4.133-1.735.267-2.135a14.829,14.829,0,0,1,.934-2.135,8.817,8.817,0,0,0,.667-2,11.249,11.249,0,0,1,.8-1.869,12.866,12.866,0,0,1,2.135-2.669,7.189,7.189,0,0,1,1.768-1.335,9.705,9.705,0,0,0,1.068-1.2,1.952,1.952,0,0,1,.667-.4l.534-.534a2.167,2.167,0,0,1,1.2-.667l.8-.8a10.644,10.644,0,0,0,1.068-.8c.4-.133,1.335-.4,1.335-.4a7.816,7.816,0,0,0,1.235-.434c.534-.267,1.068-.133,2-.534.934-.267,2.4.133,4.137-.133,1.735-.133,2.8-.667,3.6-.667a14.123,14.123,0,0,1,2.936.4,2.227,2.227,0,0,0,1.335,0,3.712,3.712,0,0,1,1.735.4,27.152,27.152,0,0,1,3.07.968,24.621,24.621,0,0,1,2.135,1.335,4.617,4.617,0,0,1,1.468,1.335,3.979,3.979,0,0,1,.8,3.47,6.472,6.472,0,0,1-.567,2.769c-.133.4-1.568,1.335-1.568,1.335s.4,1.335.667,2.135c.4.667.4,1.468.667,1.869.4.4.267,1.2.667,1.6.267.4.8.4.934.8.4.8-.2,1.435-.667,1.9-.234.234-1.1.968-1.1.968a4.25,4.25,0,0,0,.167.9c.133.267,1.068,1.2,2,2.669s1.869,2.4,1.869,3.871c0,.934-.934,1.068-1.869,1.2s-2.135-.133-2.669.133c-.4.267-.267,1.068-.267,1.068a2.7,2.7,0,0,1,.667,1.335c.133.8-.667,1.068-1.134,1.134v.2c.567,0,.868.5.868,1.068-.133.934-1.335,1.068-1.2,1.6,0,.667.267.934,1.2,1.335a5.351,5.351,0,0,1,2,1.869,4.166,4.166,0,0,1,.267,2.8,1.474,1.474,0,0,1-.4.934,4.259,4.259,0,0,1-.8.934,6.251,6.251,0,0,1-2.4,2.269,3.581,3.581,0,0,1-2.4.4,27.944,27.944,0,0,0-2.8-.667c-.4-.133-.934,1.368-1.535,2.536-.334.667.267,1,1,1.5.534.367,1.935,1.568,3.136,2.6H72.551a5.3,5.3,0,0,0,5.305-5.305V232.241a5.3,5.3,0,0,0-5.305-5.305H26.305M88.9,248.59c0,1.935-.033,4.838-.133,7.107-.033,1.2-.334,1.969-3.871,1.969-1.034,0-1.034.267-1.034.767,0,.4,0,.567.367.567.3,0,.5-.1,7.107-.1,17.551,0,16.183.1,16.683.1a.385.385,0,0,0,.434-.367c.767-4.538,1.7-8.208,1.7-8.442,0-.4-.1-.534-.934-.534-.4,0-.334.3-.634,1.268-1.9,5.806-4.137,6.607-10.377,6.607-3.4,0-4.671-.234-4.738-1.835-.1-2.236-.133-5.172-.133-7.107V237.579c0-3.2.033-4.271.1-6.34.033-2.636.8-3,4.7-3,.5,0,.5-.367.5-.767,0-.267-.1-.567-.4-.567-.367,0-4.271.167-7.14.167-2.836,0-6.506-.167-6.873-.167-.3,0-.4.3-.4.567,0,.4,0,.767.5.767,3.67,0,4.438.367,4.5,3,.033,2.069.1,3.136.1,6.34V248.59Zm26.293-16.75a2.369,2.369,0,1,0-2.336-2.369,2.393,2.393,0,0,0,2.336,2.369m39.739,25.225c-6.873,0-7.641-5.606-7.641-7.641,0-7.374,3.5-9.509,6.34-9.509,2.336,0,2.669,1.435,2.8,2.1.5,2.469.667,2.936,2.1,2.936a2.311,2.311,0,0,0,2.369-1.935c0-.934-1.168-4.271-7.307-4.271-5.806,0-10.21,4.037-10.21,10.677,0,6.44,4.1,10.177,9.309,10.177a9.978,9.978,0,0,0,7.841-3.837,1.032,1.032,0,0,0,.367-.667c0-.334-.534-.634-.667-.634-.234,0-.4.4-.767.7a8.193,8.193,0,0,1-4.538,1.9m23.457-7.941c0-4.4-1.468-9.242-6.206-9.242-4.671,0-6.173,4.838-6.173,9.242,0,3.837.9,9.242,6.173,9.242,5.305.033,6.206-5.405,6.206-9.242m4.271,0c0,6.306-4.171,10.444-10.477,10.444a10.058,10.058,0,0,1-10.444-10.444,10.46,10.46,0,0,1,20.921,0m-65.632-4.071c0-5.839.234-6.306.234-6.473,0-.267-.1-.5-.267-.5-.534,0-1.168,1.168-6.273,2.2-.234.033-.367.267-.367.634,0,.3.033.5.4.534,2.236.234,2.669,1.134,2.669,2.7v6.173a47.954,47.954,0,0,1-.267,6.473c-.267.634-.667,1.068-1.835,1.068-1.668,0-1.7.1-1.7.667,0,.234,0,.5.367.5.667,0,6.373-.1,10.41-.1,4,0,10.01.1,10.21.1.467,0,.467-.3.467-.6,0-.534-.1-.567-1.3-.567-1.969,0-2.069-.534-2.069-3.1V243.251c.2-.534,2.6-2.069,4.3-2.069,4.671,0,5.038,2.769,5.038,6.974V256.2c0,1.5-.4,1.668-2.569,1.668a.585.585,0,0,0-.634.634c0,.234.033.534.3.534.367,0,1.1-.1,4.738-.1,2.369,0,3.2.1,4.538.1.634,0,.634-.3.634-.6s0-.567-.434-.567c-2.8,0-2.9-.868-2.9-1.635V245.454c0-6.44-4.4-6.74-5.939-6.74-2.436,0-4.738,1.535-7.074,3.1,0-1.969.1-2.97.1-3.237,0-.367-.033-.5-.133-.5-.534,0-1.168,1.168-6.273,2.2-.234.033-.367.267-.367.634,0,.3.067.5.4.534,2.236.234,2.636,1.134,2.636,2.7v6.173a47.953,47.953,0,0,1-.267,6.473c-.267.634-.667,1.068-1.835,1.068h-2.836c-1.969,0-2.069-.534-2.069-3.1v-9.71m72.2-13.08c0-5.839.234-6.306.234-6.473,0-.267-.1-.5-.267-.5a35.754,35.754,0,0,1-6.24,1.935c-.234.033-.367.267-.367.634,0,.3.133.5.4.534,2.469.234,2.6.767,2.6,4.671V248.49c0,1.935-.1,7.874-.3,8.275a1.537,1.537,0,0,1-1.6,1.068c-1.668,0-1.7.1-1.7.667,0,.234,0,.5.367.5.434,0,6.106-.1,9.977-.1,3.9,0,9.743.1,9.977.1.434,0,.434-.3.434-.567,0-.534-.1-.567-1.3-.567-1.969,0-2.069-.534-2.069-3.1V243.251c.2-.534,2.6-2.069,4.3-2.069,4.671,0,5.038,2.8,5.038,6.974V256.2c0,1.5-.4,1.668-2.569,1.668a.585.585,0,0,0-.634.634c0,.234.033.534.3.534.367,0,1.1-.1,4.7-.1,2.4,0,3.136.1,4.471.1.634,0,.634-.3.634-.567,0-.3,0-.567-.434-.567-2.8,0-2.836-.868-2.836-1.635V245.487c0-6.44-4.4-6.74-5.939-6.74-2.436,0-4.7,1.535-7.074,3.1,0-1.969.1-2.97.1-3.237,0-.367-.033-.5-.133-.5-.534,0-1.168,1.168-6.273,2.2-.234.033-.367.267-.367.634,0,.334.033.5.4.534,2.236.234,2.669,1.134,2.669,2.7v6.173a47.951,47.951,0,0,1-.267,6.473c-.267.634-.667,1.068-1.835,1.068h-2.336c-1.969,0-2.069-.534-2.069-3.1V231.974m-104.937,34.5H215.092v-.934H84.329Zm133.632,8.976h1c.6,0,.9.234.9.734a.668.668,0,0,1-.667.734l.734,1.134h-.467l-.734-1.134h-.367v1.134h-.434v-2.6Zm.434,1.1h.5c.334,0,.534-.067.534-.4,0-.3-.267-.4-.534-.4h-.5Zm-1.5.2a1.954,1.954,0,1,0,1.969-2.035,1.947,1.947,0,0,0-1.969,2.035m-.434,0a2.369,2.369,0,1,1,2.369,2.369,2.336,2.336,0,0,1-2.369-2.369" transform="translate(-21 -225)" fill="#0e3b2e"/>
</svg>
