<svg xmlns="http://www.w3.org/2000/svg" width="60.256" height="86.172" viewBox="0 0 60.256 86.172">
  <g id="Group_4950" data-name="Group 4950" transform="translate(-765.986 -1339.243)">
    <path id="Path_47603" data-name="Path 47603" d="M85.921,202.986a70.825,70.825,0,0,0-.443-7.68" transform="translate(717.809 1221.384)" fill="none" stroke="#fcd263" stroke-linecap="round" stroke-miterlimit="10" stroke-width="2"/>
    <g id="Group_4945" data-name="Group 4945" transform="translate(766.986 1340.259)">
      <path id="Path_47605" data-name="Path 47605" d="M11.925,117.281c6.942-7.648,4.223-18.9,5.312-28.291.006-.058.015-.116.026-.174A97.446,97.446,0,0,1,27.949,59.033a1.611,1.611,0,0,1,3-.07c.927,1.549.437,3.673-.315,5.763M27.6,121.348q.253-3.068.209-6.151a1.791,1.791,0,0,1,1.026-1.653c12.8-6,3.056-23.864,6.1-34.631a1.8,1.8,0,0,1,.1-.271c1.289-2.81.977-10.084-3.214-7.064a.874.874,0,0,0-.226.241c-2.383,3.819-2.25,8.633-3.7,12.782-1.128,2.817-3.653,5.339-3.387,8.56m22.969.115c-1.694-5.444-5.635-13.438-6.533-20.3a1.732,1.732,0,0,0-.907-1.319c-4.656-2.424-4.784,6.969-3.4,10.172a1.858,1.858,0,0,1,.095.266c2.846,10.772-6.337,27.79,8.107,32.589m15.426,3.644c-8-8.778-6.211-21.631-6.338-32.623a1.906,1.906,0,0,0-.061-.458c-2.337-9.09-7.038-17.793-9.826-26.9a1.852,1.852,0,0,0-2.492-1.225c-1.878.9-1.285,4.553-.256,7.622m-.07-7.66c-1.523-3.573-3.747-4.075-4.88-.814a1.045,1.045,0,0,0-.043.173c-.534,3.383.994,7.426,2.589,11.351m-5.464-.161c2.394-5.522,4.159-10.907.693-13.465a1.733,1.733,0,0,0-2.439.728c-.463.841-1.071,2.08-1.465,2.956" transform="translate(-6.985 -37.769)" fill="none" stroke="#fcd263" stroke-linecap="round" stroke-miterlimit="10" stroke-width="2"/>
      <path id="Path_47606" data-name="Path 47606" d="M5.6,43.715C-9.164,22.854,9.965-4,34.877,1.14" transform="translate(-0.439 -0.5)" fill="none" stroke="#fcd263" stroke-linecap="round" stroke-miterlimit="10" stroke-width="2"/>
      <path id="Path_47607" data-name="Path 47607" d="M118.8,56.228c8.907-10.09,7.879-25.592-2.605-36.076" transform="translate(-66.581 -11.772)" fill="none" stroke="#fcd263" stroke-linecap="round" stroke-miterlimit="10" stroke-width="2"/>
      <path id="Path_47608" data-name="Path 47608" d="M87.106,3.247a25.756,25.756,0,0,1,8.843,4.46" transform="translate(-50.11 -2.076)" fill="none" stroke="#fcd263" stroke-linecap="round" stroke-miterlimit="10" stroke-width="2"/>
    </g>
  </g>
</svg>
