<svg xmlns="http://www.w3.org/2000/svg" width="75.477" height="59.066" viewBox="0 0 75.477 59.066">
  <g id="Group_4937" data-name="Group 4937" transform="translate(1.001 1.01)">
    <path id="Path_47599" data-name="Path 47599" d="M463.865,16.38l2.552-.544a.71.71,0,0,1,.86.7L466.888,69.2a1.522,1.522,0,0,1-1.565,1.512l-34.585-.933-34.775.467a1.682,1.682,0,0,1-1.706-1.667L393.8,16.5a1.649,1.649,0,0,1,1.648-1.662H396.8m65.34,1.04s-6.635-4.287-17.373-.943c-9.877,3.082-12.541,8.716-12.541,8.716m-1.38,2.289c0,5.337.034,10.884.253,15.837m0,3.15q.233,11.345.471,22.686m-4.827-47.33c-8.074-5.643-19.128-8.011-28.188-3.354M462.868,64.5c-7.214-7.214-20.931-5.561-27.95.233m-3.383,3.13c-9.527-10.184-29.6,2.124-32.9-.967m-.083-49.863.083,49.863ZM462.868,64.42l-.729-48.478Z" transform="translate(-393.801 -13.66)" fill="none" stroke="#fcd263" stroke-linecap="round" stroke-miterlimit="10" stroke-width="2"/>
  </g>
</svg>
