<svg xmlns="http://www.w3.org/2000/svg" width="75.495" height="69.564" viewBox="0 0 75.495 69.564">
  <path id="Path_47600" data-name="Path 47600" d="M47.577,67.881C26.542,78.615-.134,61.055.512,37.556,1.9-10.362,74.174-3.845,66.8,43.641M59.949,54.8c-1.207-1.982-2.436-4.491-4.777-5.221C44.281,46.2,40.189,64.917,61.7,72.058c.667.219,1.689.6,3.469-1.19,5.6-5.6,8.313-13.013,8.74-16.044.865-6.169-7.079-10.419-10.93-6.7C60.073,50.939,60.263,55.329,59.949,54.8ZM53.667,24.909c-3.778-2.571-7.915,2.93-11.839,3.486-5.9,1.095-8.072,6.22-6.585,11.817m15.342,2.347c3.823.606,7.63-1.583,7.343-5.636a4.532,4.532,0,0,1,.006-.915c.415-3.031,1.6-7.264-1.746-8.875M35.137,39.762c.786,2.582-1.684,5.052-1.656,7.685-.1,2.448,2.532,4.115,4.5,2.453,2.7-2.4,4.221-6.9,8.381-7.1M22.287,35.81c2.386-4.25-.162-8.881-4.794-8.9a3.525,3.525,0,0,1-2.325-.82c-1.353-1.184-2.307-3.065-4.041-3.593m9.807,15.1c-3.907,3.436-14.2,8.449-8.224,14.017a.953.953,0,0,1,.253,1.044c-.635,1.6-3.256,2.487-3.655,4.418m35.714,8.791c-1.173-5.49-5.473-3.7-9.268-2.807A6.1,6.1,0,0,1,31.7,62.61c-4.137-2.015-7.011-1.7-8.74,3.946M16.326,11.514c3.716,2.077,7.214-2.391,10.862-2.543,6.517-.213,10.929,12.328,17.654,6.007,1.516-.966,3.161-3.784,5.12-2.964" transform="translate(0.5 -3.645)" fill="none" stroke="#fcd263" stroke-linecap="round" stroke-miterlimit="10" stroke-width="2"/>
</svg>
